G04 #@! TF.GenerationSoftware,KiCad,Pcbnew,7.0.6*
G04 #@! TF.CreationDate,2023-10-03T18:05:15-04:00*
G04 #@! TF.ProjectId,pcb,7063622e-6b69-4636-9164-5f7063625858,1.0*
G04 #@! TF.SameCoordinates,Original*
G04 #@! TF.FileFunction,Soldermask,Bot*
G04 #@! TF.FilePolarity,Negative*
%FSLAX46Y46*%
G04 Gerber Fmt 4.6, Leading zero omitted, Abs format (unit mm)*
G04 Created by KiCad (PCBNEW 7.0.6) date 2023-10-03 18:05:15*
%MOMM*%
%LPD*%
G01*
G04 APERTURE LIST*
G04 Aperture macros list*
%AMRoundRect*
0 Rectangle with rounded corners*
0 $1 Rounding radius*
0 $2 $3 $4 $5 $6 $7 $8 $9 X,Y pos of 4 corners*
0 Add a 4 corners polygon primitive as box body*
4,1,4,$2,$3,$4,$5,$6,$7,$8,$9,$2,$3,0*
0 Add four circle primitives for the rounded corners*
1,1,$1+$1,$2,$3*
1,1,$1+$1,$4,$5*
1,1,$1+$1,$6,$7*
1,1,$1+$1,$8,$9*
0 Add four rect primitives between the rounded corners*
20,1,$1+$1,$2,$3,$4,$5,0*
20,1,$1+$1,$4,$5,$6,$7,0*
20,1,$1+$1,$6,$7,$8,$9,0*
20,1,$1+$1,$8,$9,$2,$3,0*%
G04 Aperture macros list end*
%ADD10R,1.200000X1.200000*%
%ADD11C,1.200000*%
%ADD12C,5.000000*%
%ADD13RoundRect,0.250000X0.625000X-0.350000X0.625000X0.350000X-0.625000X0.350000X-0.625000X-0.350000X0*%
%ADD14O,1.750000X1.200000*%
%ADD15C,1.600000*%
%ADD16O,1.600000X1.600000*%
%ADD17RoundRect,0.250000X0.350000X0.625000X-0.350000X0.625000X-0.350000X-0.625000X0.350000X-0.625000X0*%
%ADD18O,1.200000X1.750000*%
%ADD19R,1.600000X1.600000*%
%ADD20C,3.301600*%
%ADD21C,3.001600*%
%ADD22RoundRect,0.050800X-0.889000X-0.889000X0.889000X-0.889000X0.889000X0.889000X-0.889000X0.889000X0*%
%ADD23C,1.879600*%
%ADD24C,3.000000*%
%ADD25R,1.700000X1.700000*%
%ADD26C,1.700000*%
%ADD27R,1.400000X2.000000*%
%ADD28R,2.000000X1.905000*%
%ADD29O,2.000000X1.905000*%
G04 APERTURE END LIST*
D10*
X94072026Y-106500000D03*
D11*
X96072026Y-106500000D03*
D12*
X66500000Y-94500000D03*
D13*
X123613000Y-135241233D03*
D14*
X123613000Y-133241233D03*
X123613000Y-131241233D03*
D13*
X131191000Y-135145233D03*
D14*
X131191000Y-133145233D03*
X131191000Y-131145233D03*
D15*
X167005000Y-107950000D03*
D16*
X167005000Y-100330000D03*
D17*
X149750000Y-103250000D03*
D18*
X147750000Y-103250000D03*
X145750000Y-103250000D03*
X143750000Y-103250000D03*
X141750000Y-103250000D03*
X139750000Y-103250000D03*
D15*
X83834626Y-93260000D03*
D16*
X76214626Y-93260000D03*
D15*
X160100000Y-86600000D03*
X160100000Y-91600000D03*
X166600000Y-129600000D03*
X171600000Y-129600000D03*
D19*
X99150000Y-99700000D03*
D15*
X99150000Y-97200000D03*
D13*
X161671000Y-133177233D03*
D14*
X161671000Y-131177233D03*
D15*
X91100000Y-105100000D03*
X91100000Y-110100000D03*
D20*
X155473400Y-66019633D03*
X138963400Y-66019633D03*
D21*
X153788400Y-96753633D03*
X140648400Y-96753633D03*
D22*
X156743400Y-73639633D03*
D23*
X156743400Y-76179633D03*
X156743400Y-78719633D03*
X156743400Y-81259633D03*
X156743400Y-83799633D03*
X156743400Y-86339633D03*
X156743400Y-88879633D03*
X156743400Y-91419633D03*
D10*
X106850000Y-97500000D03*
D11*
X104850000Y-97500000D03*
D15*
X91024626Y-93260000D03*
X86024626Y-93260000D03*
X163830000Y-100330000D03*
D16*
X163830000Y-107950000D03*
D19*
X91024626Y-99682380D03*
D15*
X91024626Y-97182380D03*
D13*
X146431000Y-135209233D03*
D14*
X146431000Y-133209233D03*
X146431000Y-131209233D03*
D24*
X65524626Y-71522400D03*
X81754626Y-71522400D03*
X65524626Y-84222400D03*
X81754626Y-84222400D03*
D15*
X112000000Y-105100000D03*
D16*
X112000000Y-97480000D03*
D24*
X89789000Y-71522400D03*
X106019000Y-71522400D03*
X89789000Y-84222400D03*
X106019000Y-84222400D03*
D25*
X168764626Y-111000000D03*
D26*
X166224626Y-111000000D03*
X163684626Y-111000000D03*
X161144626Y-111000000D03*
X158604626Y-111000000D03*
X156064626Y-111000000D03*
X153524626Y-111000000D03*
X150984626Y-111000000D03*
X148444626Y-111000000D03*
X145904626Y-111000000D03*
X143364626Y-111000000D03*
X140824626Y-111000000D03*
X138284626Y-111000000D03*
X135744626Y-111000000D03*
X133204626Y-111000000D03*
X130664626Y-111000000D03*
X128124626Y-111000000D03*
X125584626Y-111000000D03*
X123044626Y-111000000D03*
X120504626Y-111000000D03*
X120504626Y-126240000D03*
X123044626Y-126240000D03*
X125584626Y-126240000D03*
X128124626Y-126240000D03*
X130664626Y-126240000D03*
X133204626Y-126240000D03*
X135744626Y-126240000D03*
X138284626Y-126240000D03*
X140824626Y-126240000D03*
X143364626Y-126240000D03*
X145904626Y-126240000D03*
X148444626Y-126240000D03*
X150984626Y-126240000D03*
X153524626Y-126240000D03*
X156064626Y-126240000D03*
X158604626Y-126240000D03*
X161144626Y-126240000D03*
X163684626Y-126240000D03*
X166224626Y-126240000D03*
X168764626Y-126240000D03*
D19*
X98500000Y-118000000D03*
D15*
X96500000Y-118000000D03*
X94500000Y-118000000D03*
X92500000Y-118000000D03*
X90500000Y-118000000D03*
D27*
X89500000Y-128000000D03*
X99500000Y-128000000D03*
D28*
X131250000Y-100540000D03*
D29*
X131250000Y-98000000D03*
X131250000Y-95460000D03*
D15*
X134500000Y-101750000D03*
D16*
X134500000Y-94130000D03*
D15*
X77900000Y-105000000D03*
D16*
X77900000Y-97380000D03*
D19*
X109300000Y-112700000D03*
D16*
X109300000Y-110160000D03*
X109300000Y-107620000D03*
X109300000Y-105080000D03*
X101680000Y-105080000D03*
X101680000Y-107620000D03*
X101680000Y-110160000D03*
X101680000Y-112700000D03*
D13*
X138811000Y-135145233D03*
D14*
X138811000Y-133145233D03*
X138811000Y-131145233D03*
D24*
X113919000Y-77872400D03*
X130149000Y-77872400D03*
X113919000Y-71522400D03*
X130149000Y-71522400D03*
X113919000Y-84222400D03*
X130149000Y-84222400D03*
D15*
X106300000Y-93260000D03*
D16*
X113920000Y-93260000D03*
D10*
X84052027Y-97500000D03*
D11*
X86052027Y-97500000D03*
D15*
X99000000Y-112600000D03*
X99000000Y-107600000D03*
D19*
X80700000Y-105000000D03*
D16*
X80700000Y-107540000D03*
X80700000Y-110080000D03*
X80700000Y-112620000D03*
X88320000Y-112620000D03*
X88320000Y-110080000D03*
X88320000Y-107540000D03*
X88320000Y-105000000D03*
D10*
X95877226Y-111380000D03*
D11*
X93877226Y-111380000D03*
D15*
X104100000Y-93260000D03*
X99100000Y-93260000D03*
D12*
X170475374Y-94500000D03*
D15*
X160655000Y-100330000D03*
D16*
X160655000Y-107950000D03*
D12*
X170475374Y-136500000D03*
X66500000Y-136500000D03*
D15*
X157480000Y-107315000D03*
D16*
X149860000Y-107315000D03*
D13*
X154051000Y-133177233D03*
D14*
X154051000Y-131177233D03*
M02*
