%TF.GenerationSoftware,KiCad,Pcbnew,7.0.6*%
%TF.CreationDate,2023-10-03T18:06:36-04:00*%
%TF.ProjectId,pcb,7063622e-6b69-4636-9164-5f7063625858,1.0*%
%TF.SameCoordinates,Original*%
%TF.FileFunction,Drillmap*%
%TF.FilePolarity,Positive*%
%FSLAX45Y45*%
G04 Gerber Fmt 4.5, Leading zero omitted, Abs format (unit mm)*
G04 Created by KiCad (PCBNEW 7.0.6) date 2023-10-03 18:06:36*
%MOMM*%
%LPD*%
G01*
G04 APERTURE LIST*
%ADD10C,0.100000*%
%ADD11C,0.200000*%
%ADD12C,0.040000*%
%ADD13C,0.060000*%
%ADD14C,0.070000*%
%ADD15C,0.075000*%
%ADD16C,0.080000*%
%ADD17C,0.101600*%
%ADD18C,0.110000*%
%ADD19C,0.140000*%
%ADD20C,0.230000*%
%ADD21C,0.250000*%
G04 APERTURE END LIST*
D10*
X17050000Y-13950000D02*
X6650000Y-13950000D01*
X6350000Y-13650000D02*
G75*
G03*
X6650000Y-13950000I300000J0D01*
G01*
X17350000Y-6650000D02*
G75*
G03*
X17050000Y-6350000I-300000J0D01*
G01*
X6350000Y-13650000D02*
X6350000Y-6650000D01*
X17050000Y-13950000D02*
G75*
G03*
X17350000Y-13650000I0J300000D01*
G01*
X6650000Y-6350000D02*
G75*
G03*
X6350000Y-6650000I0J-300000D01*
G01*
X17350000Y-6650000D02*
X17350000Y-13650000D01*
X6650000Y-6350000D02*
X17050000Y-6350000D01*
D11*
D12*
X15220000Y-9101600D02*
X15260000Y-9141600D01*
X15260000Y-9101600D02*
X15220000Y-9141600D01*
D13*
X8435203Y-9750000D02*
G75*
G03*
X8435203Y-9750000I-30000J0D01*
G01*
X8635203Y-9750000D02*
G75*
G03*
X8635203Y-9750000I-30000J0D01*
G01*
X9417723Y-11138000D02*
G75*
G03*
X9417723Y-11138000I-30000J0D01*
G01*
X9437203Y-10650000D02*
G75*
G03*
X9437203Y-10650000I-30000J0D01*
G01*
X9617723Y-11138000D02*
G75*
G03*
X9617723Y-11138000I-30000J0D01*
G01*
X9637203Y-10650000D02*
G75*
G03*
X9637203Y-10650000I-30000J0D01*
G01*
X10515000Y-9750000D02*
G75*
G03*
X10515000Y-9750000I-30000J0D01*
G01*
X10715000Y-9750000D02*
G75*
G03*
X10715000Y-9750000I-30000J0D01*
G01*
D14*
X8950000Y-12765000D02*
X8950000Y-12835000D01*
X8915000Y-12800000D02*
X8985000Y-12800000D01*
D11*
X8985000Y-12830000D02*
X8985000Y-12770000D01*
X8985000Y-12770000D02*
G75*
G03*
X8915000Y-12770000I-35000J0D01*
G01*
X8915000Y-12770000D02*
X8915000Y-12830000D01*
X8915000Y-12830000D02*
G75*
G03*
X8985000Y-12830000I35000J0D01*
G01*
D14*
X9950000Y-12765000D02*
X9950000Y-12835000D01*
X9915000Y-12800000D02*
X9985000Y-12800000D01*
D11*
X9985000Y-12830000D02*
X9985000Y-12770000D01*
X9985000Y-12770000D02*
G75*
G03*
X9915000Y-12770000I-35000J0D01*
G01*
X9915000Y-12770000D02*
X9915000Y-12830000D01*
X9915000Y-12830000D02*
G75*
G03*
X9985000Y-12830000I35000J0D01*
G01*
D15*
X12387817Y-13150640D02*
X12387817Y-13097606D01*
X12334783Y-13097606D01*
X12334783Y-13150640D01*
X12387817Y-13150640D01*
X12387817Y-13350640D02*
X12387817Y-13297606D01*
X12334783Y-13297606D01*
X12334783Y-13350640D01*
X12387817Y-13350640D01*
X12387817Y-13550640D02*
X12387817Y-13497606D01*
X12334783Y-13497606D01*
X12334783Y-13550640D01*
X12387817Y-13550640D01*
X13145617Y-13141040D02*
X13145617Y-13088006D01*
X13092583Y-13088006D01*
X13092583Y-13141040D01*
X13145617Y-13141040D01*
X13145617Y-13341040D02*
X13145617Y-13288006D01*
X13092583Y-13288006D01*
X13092583Y-13341040D01*
X13145617Y-13341040D01*
X13145617Y-13541040D02*
X13145617Y-13488006D01*
X13092583Y-13488006D01*
X13092583Y-13541040D01*
X13145617Y-13541040D01*
X13907617Y-13141040D02*
X13907617Y-13088006D01*
X13854583Y-13088006D01*
X13854583Y-13141040D01*
X13907617Y-13141040D01*
X13907617Y-13341040D02*
X13907617Y-13288006D01*
X13854583Y-13288006D01*
X13854583Y-13341040D01*
X13907617Y-13341040D01*
X13907617Y-13541040D02*
X13907617Y-13488006D01*
X13854583Y-13488006D01*
X13854583Y-13541040D01*
X13907617Y-13541040D01*
X14001517Y-10351517D02*
X14001517Y-10298483D01*
X13948483Y-10298483D01*
X13948483Y-10351517D01*
X14001517Y-10351517D01*
X14201517Y-10351517D02*
X14201517Y-10298483D01*
X14148483Y-10298483D01*
X14148483Y-10351517D01*
X14201517Y-10351517D01*
X14401517Y-10351517D02*
X14401517Y-10298483D01*
X14348483Y-10298483D01*
X14348483Y-10351517D01*
X14401517Y-10351517D01*
X14601517Y-10351517D02*
X14601517Y-10298483D01*
X14548483Y-10298483D01*
X14548483Y-10351517D01*
X14601517Y-10351517D01*
X14669617Y-13147440D02*
X14669617Y-13094406D01*
X14616583Y-13094406D01*
X14616583Y-13147440D01*
X14669617Y-13147440D01*
X14669617Y-13347440D02*
X14669617Y-13294406D01*
X14616583Y-13294406D01*
X14616583Y-13347440D01*
X14669617Y-13347440D01*
X14669617Y-13547440D02*
X14669617Y-13494406D01*
X14616583Y-13494406D01*
X14616583Y-13547440D01*
X14669617Y-13547440D01*
X14801517Y-10351517D02*
X14801517Y-10298483D01*
X14748483Y-10298483D01*
X14748483Y-10351517D01*
X14801517Y-10351517D01*
X15001517Y-10351517D02*
X15001517Y-10298483D01*
X14948483Y-10298483D01*
X14948483Y-10351517D01*
X15001517Y-10351517D01*
X15431617Y-13144240D02*
X15431617Y-13091206D01*
X15378583Y-13091206D01*
X15378583Y-13144240D01*
X15431617Y-13144240D01*
X15431617Y-13344240D02*
X15431617Y-13291206D01*
X15378583Y-13291206D01*
X15378583Y-13344240D01*
X15431617Y-13344240D01*
X16193617Y-13144240D02*
X16193617Y-13091206D01*
X16140583Y-13091206D01*
X16140583Y-13144240D01*
X16193617Y-13144240D01*
X16193617Y-13344240D02*
X16193617Y-13291206D01*
X16140583Y-13291206D01*
X16140583Y-13344240D01*
X16193617Y-13344240D01*
D16*
X7621463Y-9366000D02*
X7661463Y-9326000D01*
X7621463Y-9286000D01*
X7581463Y-9326000D01*
X7621463Y-9366000D01*
X7790000Y-9778000D02*
X7830000Y-9738000D01*
X7790000Y-9698000D01*
X7750000Y-9738000D01*
X7790000Y-9778000D01*
X7790000Y-10540000D02*
X7830000Y-10500000D01*
X7790000Y-10460000D01*
X7750000Y-10500000D01*
X7790000Y-10540000D01*
X8070000Y-10540000D02*
X8110000Y-10500000D01*
X8070000Y-10460000D01*
X8030000Y-10500000D01*
X8070000Y-10540000D01*
X8070000Y-10794000D02*
X8110000Y-10754000D01*
X8070000Y-10714000D01*
X8030000Y-10754000D01*
X8070000Y-10794000D01*
X8070000Y-11048000D02*
X8110000Y-11008000D01*
X8070000Y-10968000D01*
X8030000Y-11008000D01*
X8070000Y-11048000D01*
X8070000Y-11302000D02*
X8110000Y-11262000D01*
X8070000Y-11222000D01*
X8030000Y-11262000D01*
X8070000Y-11302000D01*
X8383463Y-9366000D02*
X8423463Y-9326000D01*
X8383463Y-9286000D01*
X8343463Y-9326000D01*
X8383463Y-9366000D01*
X8602463Y-9366000D02*
X8642463Y-9326000D01*
X8602463Y-9286000D01*
X8562463Y-9326000D01*
X8602463Y-9366000D01*
X8832000Y-10540000D02*
X8872000Y-10500000D01*
X8832000Y-10460000D01*
X8792000Y-10500000D01*
X8832000Y-10540000D01*
X8832000Y-10794000D02*
X8872000Y-10754000D01*
X8832000Y-10714000D01*
X8792000Y-10754000D01*
X8832000Y-10794000D01*
X8832000Y-11048000D02*
X8872000Y-11008000D01*
X8832000Y-10968000D01*
X8792000Y-11008000D01*
X8832000Y-11048000D01*
X8832000Y-11302000D02*
X8872000Y-11262000D01*
X8832000Y-11222000D01*
X8792000Y-11262000D01*
X8832000Y-11302000D01*
X9102463Y-9366000D02*
X9142463Y-9326000D01*
X9102463Y-9286000D01*
X9062463Y-9326000D01*
X9102463Y-9366000D01*
X9102463Y-9758238D02*
X9142463Y-9718238D01*
X9102463Y-9678238D01*
X9062463Y-9718238D01*
X9102463Y-9758238D01*
X9102463Y-10008238D02*
X9142463Y-9968238D01*
X9102463Y-9928238D01*
X9062463Y-9968238D01*
X9102463Y-10008238D01*
X9110000Y-10550000D02*
X9150000Y-10510000D01*
X9110000Y-10470000D01*
X9070000Y-10510000D01*
X9110000Y-10550000D01*
X9110000Y-11050000D02*
X9150000Y-11010000D01*
X9110000Y-10970000D01*
X9070000Y-11010000D01*
X9110000Y-11050000D01*
X9900000Y-10800000D02*
X9940000Y-10760000D01*
X9900000Y-10720000D01*
X9860000Y-10760000D01*
X9900000Y-10800000D01*
X9900000Y-11300000D02*
X9940000Y-11260000D01*
X9900000Y-11220000D01*
X9860000Y-11260000D01*
X9900000Y-11300000D01*
X9910000Y-9366000D02*
X9950000Y-9326000D01*
X9910000Y-9286000D01*
X9870000Y-9326000D01*
X9910000Y-9366000D01*
X9915000Y-9760000D02*
X9955000Y-9720000D01*
X9915000Y-9680000D01*
X9875000Y-9720000D01*
X9915000Y-9760000D01*
X9915000Y-10010000D02*
X9955000Y-9970000D01*
X9915000Y-9930000D01*
X9875000Y-9970000D01*
X9915000Y-10010000D01*
X10168000Y-10548000D02*
X10208000Y-10508000D01*
X10168000Y-10468000D01*
X10128000Y-10508000D01*
X10168000Y-10548000D01*
X10168000Y-10802000D02*
X10208000Y-10762000D01*
X10168000Y-10722000D01*
X10128000Y-10762000D01*
X10168000Y-10802000D01*
X10168000Y-11056000D02*
X10208000Y-11016000D01*
X10168000Y-10976000D01*
X10128000Y-11016000D01*
X10168000Y-11056000D01*
X10168000Y-11310000D02*
X10208000Y-11270000D01*
X10168000Y-11230000D01*
X10128000Y-11270000D01*
X10168000Y-11310000D01*
X10410000Y-9366000D02*
X10450000Y-9326000D01*
X10410000Y-9286000D01*
X10370000Y-9326000D01*
X10410000Y-9366000D01*
X10630000Y-9366000D02*
X10670000Y-9326000D01*
X10630000Y-9286000D01*
X10590000Y-9326000D01*
X10630000Y-9366000D01*
X10930000Y-10548000D02*
X10970000Y-10508000D01*
X10930000Y-10468000D01*
X10890000Y-10508000D01*
X10930000Y-10548000D01*
X10930000Y-10802000D02*
X10970000Y-10762000D01*
X10930000Y-10722000D01*
X10890000Y-10762000D01*
X10930000Y-10802000D01*
X10930000Y-11056000D02*
X10970000Y-11016000D01*
X10930000Y-10976000D01*
X10890000Y-11016000D01*
X10930000Y-11056000D01*
X10930000Y-11310000D02*
X10970000Y-11270000D01*
X10930000Y-11230000D01*
X10890000Y-11270000D01*
X10930000Y-11310000D01*
X11200000Y-9788000D02*
X11240000Y-9748000D01*
X11200000Y-9708000D01*
X11160000Y-9748000D01*
X11200000Y-9788000D01*
X11200000Y-10550000D02*
X11240000Y-10510000D01*
X11200000Y-10470000D01*
X11160000Y-10510000D01*
X11200000Y-10550000D01*
X11392000Y-9366000D02*
X11432000Y-9326000D01*
X11392000Y-9286000D01*
X11352000Y-9326000D01*
X11392000Y-9366000D01*
X13450000Y-9453000D02*
X13490000Y-9413000D01*
X13450000Y-9373000D01*
X13410000Y-9413000D01*
X13450000Y-9453000D01*
X13450000Y-10215000D02*
X13490000Y-10175000D01*
X13450000Y-10135000D01*
X13410000Y-10175000D01*
X13450000Y-10215000D01*
X14986000Y-10771500D02*
X15026000Y-10731500D01*
X14986000Y-10691500D01*
X14946000Y-10731500D01*
X14986000Y-10771500D01*
X15748000Y-10771500D02*
X15788000Y-10731500D01*
X15748000Y-10691500D01*
X15708000Y-10731500D01*
X15748000Y-10771500D01*
X16010000Y-8700000D02*
X16050000Y-8660000D01*
X16010000Y-8620000D01*
X15970000Y-8660000D01*
X16010000Y-8700000D01*
X16010000Y-9200000D02*
X16050000Y-9160000D01*
X16010000Y-9120000D01*
X15970000Y-9160000D01*
X16010000Y-9200000D01*
X16065500Y-10073000D02*
X16105500Y-10033000D01*
X16065500Y-9993000D01*
X16025500Y-10033000D01*
X16065500Y-10073000D01*
X16065500Y-10835000D02*
X16105500Y-10795000D01*
X16065500Y-10755000D01*
X16025500Y-10795000D01*
X16065500Y-10835000D01*
X16383000Y-10073000D02*
X16423000Y-10033000D01*
X16383000Y-9993000D01*
X16343000Y-10033000D01*
X16383000Y-10073000D01*
X16383000Y-10835000D02*
X16423000Y-10795000D01*
X16383000Y-10755000D01*
X16343000Y-10795000D01*
X16383000Y-10835000D01*
X16660000Y-13000000D02*
X16700000Y-12960000D01*
X16660000Y-12920000D01*
X16620000Y-12960000D01*
X16660000Y-13000000D01*
X16700500Y-10073000D02*
X16740500Y-10033000D01*
X16700500Y-9993000D01*
X16660500Y-10033000D01*
X16700500Y-10073000D01*
X16700500Y-10835000D02*
X16740500Y-10795000D01*
X16700500Y-10755000D01*
X16660500Y-10795000D01*
X16700500Y-10835000D01*
X17160000Y-13000000D02*
X17200000Y-12960000D01*
X17160000Y-12920000D01*
X17120000Y-12960000D01*
X17160000Y-13000000D01*
D10*
X9000000Y-11750000D02*
X9100000Y-11850000D01*
X9100000Y-11750000D02*
X9000000Y-11850000D01*
X9100000Y-11800000D02*
G75*
G03*
X9100000Y-11800000I-50000J0D01*
G01*
X9200000Y-11750000D02*
X9300000Y-11850000D01*
X9300000Y-11750000D02*
X9200000Y-11850000D01*
X9300000Y-11800000D02*
G75*
G03*
X9300000Y-11800000I-50000J0D01*
G01*
X9400000Y-11750000D02*
X9500000Y-11850000D01*
X9500000Y-11750000D02*
X9400000Y-11850000D01*
X9500000Y-11800000D02*
G75*
G03*
X9500000Y-11800000I-50000J0D01*
G01*
X9600000Y-11750000D02*
X9700000Y-11850000D01*
X9700000Y-11750000D02*
X9600000Y-11850000D01*
X9700000Y-11800000D02*
G75*
G03*
X9700000Y-11800000I-50000J0D01*
G01*
X9800000Y-11750000D02*
X9900000Y-11850000D01*
X9900000Y-11750000D02*
X9800000Y-11850000D01*
X9900000Y-11800000D02*
G75*
G03*
X9900000Y-11800000I-50000J0D01*
G01*
X15624340Y-7313963D02*
X15724340Y-7413963D01*
X15724340Y-7313963D02*
X15624340Y-7413963D01*
X15724340Y-7363963D02*
G75*
G03*
X15724340Y-7363963I-50000J0D01*
G01*
X15624340Y-7567963D02*
X15724340Y-7667963D01*
X15724340Y-7567963D02*
X15624340Y-7667963D01*
X15724340Y-7617963D02*
G75*
G03*
X15724340Y-7617963I-50000J0D01*
G01*
D17*
X15623540Y-7821163D02*
X15725140Y-7922763D01*
X15725140Y-7821163D02*
X15623540Y-7922763D01*
X15674340Y-7821163D02*
X15674340Y-7922763D01*
X15623540Y-7871963D02*
X15725140Y-7871963D01*
X15623540Y-8075163D02*
X15725140Y-8176763D01*
X15725140Y-8075163D02*
X15623540Y-8176763D01*
X15674340Y-8075163D02*
X15674340Y-8176763D01*
X15623540Y-8125963D02*
X15725140Y-8125963D01*
X15623540Y-8329163D02*
X15725140Y-8430763D01*
X15725140Y-8329163D02*
X15623540Y-8430763D01*
X15674340Y-8329163D02*
X15674340Y-8430763D01*
X15623540Y-8379963D02*
X15725140Y-8379963D01*
X15623540Y-8583163D02*
X15725140Y-8684763D01*
X15725140Y-8583163D02*
X15623540Y-8684763D01*
X15674340Y-8583163D02*
X15674340Y-8684763D01*
X15623540Y-8633963D02*
X15725140Y-8633963D01*
X15623540Y-8837163D02*
X15725140Y-8938763D01*
X15725140Y-8837163D02*
X15623540Y-8938763D01*
X15674340Y-8837163D02*
X15674340Y-8938763D01*
X15623540Y-8887963D02*
X15725140Y-8887963D01*
X15623540Y-9091163D02*
X15725140Y-9192763D01*
X15725140Y-9091163D02*
X15623540Y-9192763D01*
X15674340Y-9091163D02*
X15674340Y-9192763D01*
X15623540Y-9141963D02*
X15725140Y-9141963D01*
D18*
X11995463Y-11045000D02*
X12105463Y-11155000D01*
X12105463Y-11045000D02*
X11995463Y-11155000D01*
X12089354Y-11138891D02*
X12089354Y-11061109D01*
X12011571Y-11061109D01*
X12011571Y-11138891D01*
X12089354Y-11138891D01*
X11995463Y-12569000D02*
X12105463Y-12679000D01*
X12105463Y-12569000D02*
X11995463Y-12679000D01*
X12089354Y-12662891D02*
X12089354Y-12585109D01*
X12011571Y-12585109D01*
X12011571Y-12662891D01*
X12089354Y-12662891D01*
X12249463Y-11045000D02*
X12359463Y-11155000D01*
X12359463Y-11045000D02*
X12249463Y-11155000D01*
X12343354Y-11138891D02*
X12343354Y-11061109D01*
X12265571Y-11061109D01*
X12265571Y-11138891D01*
X12343354Y-11138891D01*
X12249463Y-12569000D02*
X12359463Y-12679000D01*
X12359463Y-12569000D02*
X12249463Y-12679000D01*
X12343354Y-12662891D02*
X12343354Y-12585109D01*
X12265571Y-12585109D01*
X12265571Y-12662891D01*
X12343354Y-12662891D01*
X12503463Y-11045000D02*
X12613463Y-11155000D01*
X12613463Y-11045000D02*
X12503463Y-11155000D01*
X12597354Y-11138891D02*
X12597354Y-11061109D01*
X12519571Y-11061109D01*
X12519571Y-11138891D01*
X12597354Y-11138891D01*
X12503463Y-12569000D02*
X12613463Y-12679000D01*
X12613463Y-12569000D02*
X12503463Y-12679000D01*
X12597354Y-12662891D02*
X12597354Y-12585109D01*
X12519571Y-12585109D01*
X12519571Y-12662891D01*
X12597354Y-12662891D01*
X12757463Y-11045000D02*
X12867463Y-11155000D01*
X12867463Y-11045000D02*
X12757463Y-11155000D01*
X12851354Y-11138891D02*
X12851354Y-11061109D01*
X12773571Y-11061109D01*
X12773571Y-11138891D01*
X12851354Y-11138891D01*
X12757463Y-12569000D02*
X12867463Y-12679000D01*
X12867463Y-12569000D02*
X12757463Y-12679000D01*
X12851354Y-12662891D02*
X12851354Y-12585109D01*
X12773571Y-12585109D01*
X12773571Y-12662891D01*
X12851354Y-12662891D01*
X13011463Y-11045000D02*
X13121463Y-11155000D01*
X13121463Y-11045000D02*
X13011463Y-11155000D01*
X13105354Y-11138891D02*
X13105354Y-11061109D01*
X13027571Y-11061109D01*
X13027571Y-11138891D01*
X13105354Y-11138891D01*
X13011463Y-12569000D02*
X13121463Y-12679000D01*
X13121463Y-12569000D02*
X13011463Y-12679000D01*
X13105354Y-12662891D02*
X13105354Y-12585109D01*
X13027571Y-12585109D01*
X13027571Y-12662891D01*
X13105354Y-12662891D01*
X13070000Y-9491000D02*
X13180000Y-9601000D01*
X13180000Y-9491000D02*
X13070000Y-9601000D01*
X13163891Y-9584891D02*
X13163891Y-9507109D01*
X13086109Y-9507109D01*
X13086109Y-9584891D01*
X13163891Y-9584891D01*
X13070000Y-9745000D02*
X13180000Y-9855000D01*
X13180000Y-9745000D02*
X13070000Y-9855000D01*
X13163891Y-9838891D02*
X13163891Y-9761109D01*
X13086109Y-9761109D01*
X13086109Y-9838891D01*
X13163891Y-9838891D01*
X13070000Y-9999000D02*
X13180000Y-10109000D01*
X13180000Y-9999000D02*
X13070000Y-10109000D01*
X13163891Y-10092891D02*
X13163891Y-10015109D01*
X13086109Y-10015109D01*
X13086109Y-10092891D01*
X13163891Y-10092891D01*
X13265463Y-11045000D02*
X13375463Y-11155000D01*
X13375463Y-11045000D02*
X13265463Y-11155000D01*
X13359354Y-11138891D02*
X13359354Y-11061109D01*
X13281571Y-11061109D01*
X13281571Y-11138891D01*
X13359354Y-11138891D01*
X13265463Y-12569000D02*
X13375463Y-12679000D01*
X13375463Y-12569000D02*
X13265463Y-12679000D01*
X13359354Y-12662891D02*
X13359354Y-12585109D01*
X13281571Y-12585109D01*
X13281571Y-12662891D01*
X13359354Y-12662891D01*
X13519463Y-11045000D02*
X13629463Y-11155000D01*
X13629463Y-11045000D02*
X13519463Y-11155000D01*
X13613354Y-11138891D02*
X13613354Y-11061109D01*
X13535571Y-11061109D01*
X13535571Y-11138891D01*
X13613354Y-11138891D01*
X13519463Y-12569000D02*
X13629463Y-12679000D01*
X13629463Y-12569000D02*
X13519463Y-12679000D01*
X13613354Y-12662891D02*
X13613354Y-12585109D01*
X13535571Y-12585109D01*
X13535571Y-12662891D01*
X13613354Y-12662891D01*
X13773463Y-11045000D02*
X13883463Y-11155000D01*
X13883463Y-11045000D02*
X13773463Y-11155000D01*
X13867354Y-11138891D02*
X13867354Y-11061109D01*
X13789571Y-11061109D01*
X13789571Y-11138891D01*
X13867354Y-11138891D01*
X13773463Y-12569000D02*
X13883463Y-12679000D01*
X13883463Y-12569000D02*
X13773463Y-12679000D01*
X13867354Y-12662891D02*
X13867354Y-12585109D01*
X13789571Y-12585109D01*
X13789571Y-12662891D01*
X13867354Y-12662891D01*
X14027463Y-11045000D02*
X14137463Y-11155000D01*
X14137463Y-11045000D02*
X14027463Y-11155000D01*
X14121354Y-11138891D02*
X14121354Y-11061109D01*
X14043571Y-11061109D01*
X14043571Y-11138891D01*
X14121354Y-11138891D01*
X14027463Y-12569000D02*
X14137463Y-12679000D01*
X14137463Y-12569000D02*
X14027463Y-12679000D01*
X14121354Y-12662891D02*
X14121354Y-12585109D01*
X14043571Y-12585109D01*
X14043571Y-12662891D01*
X14121354Y-12662891D01*
X14281463Y-11045000D02*
X14391463Y-11155000D01*
X14391463Y-11045000D02*
X14281463Y-11155000D01*
X14375354Y-11138891D02*
X14375354Y-11061109D01*
X14297571Y-11061109D01*
X14297571Y-11138891D01*
X14375354Y-11138891D01*
X14281463Y-12569000D02*
X14391463Y-12679000D01*
X14391463Y-12569000D02*
X14281463Y-12679000D01*
X14375354Y-12662891D02*
X14375354Y-12585109D01*
X14297571Y-12585109D01*
X14297571Y-12662891D01*
X14375354Y-12662891D01*
X14535463Y-11045000D02*
X14645463Y-11155000D01*
X14645463Y-11045000D02*
X14535463Y-11155000D01*
X14629354Y-11138891D02*
X14629354Y-11061109D01*
X14551571Y-11061109D01*
X14551571Y-11138891D01*
X14629354Y-11138891D01*
X14535463Y-12569000D02*
X14645463Y-12679000D01*
X14645463Y-12569000D02*
X14535463Y-12679000D01*
X14629354Y-12662891D02*
X14629354Y-12585109D01*
X14551571Y-12585109D01*
X14551571Y-12662891D01*
X14629354Y-12662891D01*
X14789463Y-11045000D02*
X14899463Y-11155000D01*
X14899463Y-11045000D02*
X14789463Y-11155000D01*
X14883354Y-11138891D02*
X14883354Y-11061109D01*
X14805571Y-11061109D01*
X14805571Y-11138891D01*
X14883354Y-11138891D01*
X14789463Y-12569000D02*
X14899463Y-12679000D01*
X14899463Y-12569000D02*
X14789463Y-12679000D01*
X14883354Y-12662891D02*
X14883354Y-12585109D01*
X14805571Y-12585109D01*
X14805571Y-12662891D01*
X14883354Y-12662891D01*
X15043463Y-11045000D02*
X15153463Y-11155000D01*
X15153463Y-11045000D02*
X15043463Y-11155000D01*
X15137354Y-11138891D02*
X15137354Y-11061109D01*
X15059571Y-11061109D01*
X15059571Y-11138891D01*
X15137354Y-11138891D01*
X15043463Y-12569000D02*
X15153463Y-12679000D01*
X15153463Y-12569000D02*
X15043463Y-12679000D01*
X15137354Y-12662891D02*
X15137354Y-12585109D01*
X15059571Y-12585109D01*
X15059571Y-12662891D01*
X15137354Y-12662891D01*
X15297463Y-11045000D02*
X15407463Y-11155000D01*
X15407463Y-11045000D02*
X15297463Y-11155000D01*
X15391354Y-11138891D02*
X15391354Y-11061109D01*
X15313571Y-11061109D01*
X15313571Y-11138891D01*
X15391354Y-11138891D01*
X15297463Y-12569000D02*
X15407463Y-12679000D01*
X15407463Y-12569000D02*
X15297463Y-12679000D01*
X15391354Y-12662891D02*
X15391354Y-12585109D01*
X15313571Y-12585109D01*
X15313571Y-12662891D01*
X15391354Y-12662891D01*
X15551463Y-11045000D02*
X15661463Y-11155000D01*
X15661463Y-11045000D02*
X15551463Y-11155000D01*
X15645354Y-11138891D02*
X15645354Y-11061109D01*
X15567571Y-11061109D01*
X15567571Y-11138891D01*
X15645354Y-11138891D01*
X15551463Y-12569000D02*
X15661463Y-12679000D01*
X15661463Y-12569000D02*
X15551463Y-12679000D01*
X15645354Y-12662891D02*
X15645354Y-12585109D01*
X15567571Y-12585109D01*
X15567571Y-12662891D01*
X15645354Y-12662891D01*
X15805463Y-11045000D02*
X15915463Y-11155000D01*
X15915463Y-11045000D02*
X15805463Y-11155000D01*
X15899354Y-11138891D02*
X15899354Y-11061109D01*
X15821571Y-11061109D01*
X15821571Y-11138891D01*
X15899354Y-11138891D01*
X15805463Y-12569000D02*
X15915463Y-12679000D01*
X15915463Y-12569000D02*
X15805463Y-12679000D01*
X15899354Y-12662891D02*
X15899354Y-12585109D01*
X15821571Y-12585109D01*
X15821571Y-12662891D01*
X15899354Y-12662891D01*
X16059463Y-11045000D02*
X16169463Y-11155000D01*
X16169463Y-11045000D02*
X16059463Y-11155000D01*
X16153354Y-11138891D02*
X16153354Y-11061109D01*
X16075571Y-11061109D01*
X16075571Y-11138891D01*
X16153354Y-11138891D01*
X16059463Y-12569000D02*
X16169463Y-12679000D01*
X16169463Y-12569000D02*
X16059463Y-12679000D01*
X16153354Y-12662891D02*
X16153354Y-12585109D01*
X16075571Y-12585109D01*
X16075571Y-12662891D01*
X16153354Y-12662891D01*
X16313463Y-11045000D02*
X16423463Y-11155000D01*
X16423463Y-11045000D02*
X16313463Y-11155000D01*
X16407354Y-11138891D02*
X16407354Y-11061109D01*
X16329571Y-11061109D01*
X16329571Y-11138891D01*
X16407354Y-11138891D01*
X16313463Y-12569000D02*
X16423463Y-12679000D01*
X16423463Y-12569000D02*
X16313463Y-12679000D01*
X16407354Y-12662891D02*
X16407354Y-12585109D01*
X16329571Y-12585109D01*
X16329571Y-12662891D01*
X16407354Y-12662891D01*
X16567463Y-11045000D02*
X16677463Y-11155000D01*
X16677463Y-11045000D02*
X16567463Y-11155000D01*
X16661354Y-11138891D02*
X16661354Y-11061109D01*
X16583571Y-11061109D01*
X16583571Y-11138891D01*
X16661354Y-11138891D01*
X16567463Y-12569000D02*
X16677463Y-12679000D01*
X16677463Y-12569000D02*
X16567463Y-12679000D01*
X16661354Y-12662891D02*
X16661354Y-12585109D01*
X16583571Y-12585109D01*
X16583571Y-12662891D01*
X16661354Y-12662891D01*
X16821463Y-11045000D02*
X16931463Y-11155000D01*
X16931463Y-11045000D02*
X16821463Y-11155000D01*
X16915354Y-11138891D02*
X16915354Y-11061109D01*
X16837571Y-11061109D01*
X16837571Y-11138891D01*
X16915354Y-11138891D01*
X16821463Y-12569000D02*
X16931463Y-12679000D01*
X16931463Y-12569000D02*
X16821463Y-12679000D01*
X16915354Y-12662891D02*
X16915354Y-12585109D01*
X16837571Y-12585109D01*
X16837571Y-12662891D01*
X16915354Y-12662891D01*
D19*
X6482463Y-7082240D02*
X6622463Y-7222240D01*
X6622463Y-7082240D02*
X6482463Y-7222240D01*
X6552463Y-7222240D02*
X6622463Y-7152240D01*
X6552463Y-7082240D01*
X6482463Y-7152240D01*
X6552463Y-7222240D01*
X6482463Y-8352240D02*
X6622463Y-8492240D01*
X6622463Y-8352240D02*
X6482463Y-8492240D01*
X6552463Y-8492240D02*
X6622463Y-8422240D01*
X6552463Y-8352240D01*
X6482463Y-8422240D01*
X6552463Y-8492240D01*
X8105463Y-7082240D02*
X8245463Y-7222240D01*
X8245463Y-7082240D02*
X8105463Y-7222240D01*
X8175463Y-7222240D02*
X8245463Y-7152240D01*
X8175463Y-7082240D01*
X8105463Y-7152240D01*
X8175463Y-7222240D01*
X8105463Y-8352240D02*
X8245463Y-8492240D01*
X8245463Y-8352240D02*
X8105463Y-8492240D01*
X8175463Y-8492240D02*
X8245463Y-8422240D01*
X8175463Y-8352240D01*
X8105463Y-8422240D01*
X8175463Y-8492240D01*
X8908900Y-7082240D02*
X9048900Y-7222240D01*
X9048900Y-7082240D02*
X8908900Y-7222240D01*
X8978900Y-7222240D02*
X9048900Y-7152240D01*
X8978900Y-7082240D01*
X8908900Y-7152240D01*
X8978900Y-7222240D01*
X8908900Y-8352240D02*
X9048900Y-8492240D01*
X9048900Y-8352240D02*
X8908900Y-8492240D01*
X8978900Y-8492240D02*
X9048900Y-8422240D01*
X8978900Y-8352240D01*
X8908900Y-8422240D01*
X8978900Y-8492240D01*
X10531900Y-7082240D02*
X10671900Y-7222240D01*
X10671900Y-7082240D02*
X10531900Y-7222240D01*
X10601900Y-7222240D02*
X10671900Y-7152240D01*
X10601900Y-7082240D01*
X10531900Y-7152240D01*
X10601900Y-7222240D01*
X10531900Y-8352240D02*
X10671900Y-8492240D01*
X10671900Y-8352240D02*
X10531900Y-8492240D01*
X10601900Y-8492240D02*
X10671900Y-8422240D01*
X10601900Y-8352240D01*
X10531900Y-8422240D01*
X10601900Y-8492240D01*
X11321900Y-7082240D02*
X11461900Y-7222240D01*
X11461900Y-7082240D02*
X11321900Y-7222240D01*
X11391900Y-7222240D02*
X11461900Y-7152240D01*
X11391900Y-7082240D01*
X11321900Y-7152240D01*
X11391900Y-7222240D01*
X11321900Y-7717240D02*
X11461900Y-7857240D01*
X11461900Y-7717240D02*
X11321900Y-7857240D01*
X11391900Y-7857240D02*
X11461900Y-7787240D01*
X11391900Y-7717240D01*
X11321900Y-7787240D01*
X11391900Y-7857240D01*
X11321900Y-8352240D02*
X11461900Y-8492240D01*
X11461900Y-8352240D02*
X11321900Y-8492240D01*
X11391900Y-8492240D02*
X11461900Y-8422240D01*
X11391900Y-8352240D01*
X11321900Y-8422240D01*
X11391900Y-8492240D01*
X12944900Y-7082240D02*
X13084900Y-7222240D01*
X13084900Y-7082240D02*
X12944900Y-7222240D01*
X13014900Y-7222240D02*
X13084900Y-7152240D01*
X13014900Y-7082240D01*
X12944900Y-7152240D01*
X13014900Y-7222240D01*
X12944900Y-7717240D02*
X13084900Y-7857240D01*
X13084900Y-7717240D02*
X12944900Y-7857240D01*
X13014900Y-7857240D02*
X13084900Y-7787240D01*
X13014900Y-7717240D01*
X12944900Y-7787240D01*
X13014900Y-7857240D01*
X12944900Y-8352240D02*
X13084900Y-8492240D01*
X13084900Y-8352240D02*
X12944900Y-8492240D01*
X13014900Y-8492240D02*
X13084900Y-8422240D01*
X13014900Y-8352240D01*
X12944900Y-8422240D01*
X13014900Y-8492240D01*
D20*
X14064840Y-9560363D02*
X14064840Y-9790363D01*
X13949840Y-9675363D02*
X14179840Y-9675363D01*
X14179840Y-9675363D02*
G75*
G03*
X14179840Y-9675363I-115000J0D01*
G01*
X15378840Y-9560363D02*
X15378840Y-9790363D01*
X15263840Y-9675363D02*
X15493840Y-9675363D01*
X15493840Y-9675363D02*
G75*
G03*
X15493840Y-9675363I-115000J0D01*
G01*
D21*
X6738389Y-9538389D02*
X6738389Y-9361611D01*
X6561611Y-9361611D01*
X6561611Y-9538389D01*
X6738389Y-9538389D01*
X6775000Y-9450000D02*
G75*
G03*
X6775000Y-9450000I-125000J0D01*
G01*
X6738389Y-13738389D02*
X6738389Y-13561611D01*
X6561611Y-13561611D01*
X6561611Y-13738389D01*
X6738389Y-13738389D01*
X6775000Y-13650000D02*
G75*
G03*
X6775000Y-13650000I-125000J0D01*
G01*
X13984729Y-6690352D02*
X13984729Y-6513574D01*
X13807951Y-6513574D01*
X13807951Y-6690352D01*
X13984729Y-6690352D01*
X14021340Y-6601963D02*
G75*
G03*
X14021340Y-6601963I-125000J0D01*
G01*
X15635729Y-6690352D02*
X15635729Y-6513574D01*
X15458951Y-6513574D01*
X15458951Y-6690352D01*
X15635729Y-6690352D01*
X15672340Y-6601963D02*
G75*
G03*
X15672340Y-6601963I-125000J0D01*
G01*
X17135927Y-9538389D02*
X17135927Y-9361611D01*
X16959148Y-9361611D01*
X16959148Y-9538389D01*
X17135927Y-9538389D01*
X17172537Y-9450000D02*
G75*
G03*
X17172537Y-9450000I-125000J0D01*
G01*
X17135927Y-13738389D02*
X17135927Y-13561611D01*
X16959148Y-13561611D01*
X16959148Y-13738389D01*
X17135927Y-13738389D01*
X17172537Y-13650000D02*
G75*
G03*
X17172537Y-13650000I-125000J0D01*
G01*
D11*
X6605777Y-14266484D02*
X6605777Y-14066484D01*
X6605777Y-14066484D02*
X6653396Y-14066484D01*
X6653396Y-14066484D02*
X6681967Y-14076008D01*
X6681967Y-14076008D02*
X6701015Y-14095055D01*
X6701015Y-14095055D02*
X6710539Y-14114103D01*
X6710539Y-14114103D02*
X6720062Y-14152198D01*
X6720062Y-14152198D02*
X6720062Y-14180769D01*
X6720062Y-14180769D02*
X6710539Y-14218865D01*
X6710539Y-14218865D02*
X6701015Y-14237912D01*
X6701015Y-14237912D02*
X6681967Y-14256960D01*
X6681967Y-14256960D02*
X6653396Y-14266484D01*
X6653396Y-14266484D02*
X6605777Y-14266484D01*
X6805777Y-14266484D02*
X6805777Y-14133150D01*
X6805777Y-14171246D02*
X6815301Y-14152198D01*
X6815301Y-14152198D02*
X6824824Y-14142674D01*
X6824824Y-14142674D02*
X6843872Y-14133150D01*
X6843872Y-14133150D02*
X6862920Y-14133150D01*
X6929586Y-14266484D02*
X6929586Y-14133150D01*
X6929586Y-14066484D02*
X6920062Y-14076008D01*
X6920062Y-14076008D02*
X6929586Y-14085531D01*
X6929586Y-14085531D02*
X6939110Y-14076008D01*
X6939110Y-14076008D02*
X6929586Y-14066484D01*
X6929586Y-14066484D02*
X6929586Y-14085531D01*
X7053396Y-14266484D02*
X7034348Y-14256960D01*
X7034348Y-14256960D02*
X7024824Y-14237912D01*
X7024824Y-14237912D02*
X7024824Y-14066484D01*
X7158158Y-14266484D02*
X7139110Y-14256960D01*
X7139110Y-14256960D02*
X7129586Y-14237912D01*
X7129586Y-14237912D02*
X7129586Y-14066484D01*
X7386729Y-14266484D02*
X7386729Y-14066484D01*
X7386729Y-14066484D02*
X7453396Y-14209341D01*
X7453396Y-14209341D02*
X7520062Y-14066484D01*
X7520062Y-14066484D02*
X7520062Y-14266484D01*
X7701015Y-14266484D02*
X7701015Y-14161722D01*
X7701015Y-14161722D02*
X7691491Y-14142674D01*
X7691491Y-14142674D02*
X7672443Y-14133150D01*
X7672443Y-14133150D02*
X7634348Y-14133150D01*
X7634348Y-14133150D02*
X7615301Y-14142674D01*
X7701015Y-14256960D02*
X7681967Y-14266484D01*
X7681967Y-14266484D02*
X7634348Y-14266484D01*
X7634348Y-14266484D02*
X7615301Y-14256960D01*
X7615301Y-14256960D02*
X7605777Y-14237912D01*
X7605777Y-14237912D02*
X7605777Y-14218865D01*
X7605777Y-14218865D02*
X7615301Y-14199817D01*
X7615301Y-14199817D02*
X7634348Y-14190293D01*
X7634348Y-14190293D02*
X7681967Y-14190293D01*
X7681967Y-14190293D02*
X7701015Y-14180769D01*
X7796253Y-14133150D02*
X7796253Y-14333150D01*
X7796253Y-14142674D02*
X7815301Y-14133150D01*
X7815301Y-14133150D02*
X7853396Y-14133150D01*
X7853396Y-14133150D02*
X7872443Y-14142674D01*
X7872443Y-14142674D02*
X7881967Y-14152198D01*
X7881967Y-14152198D02*
X7891491Y-14171246D01*
X7891491Y-14171246D02*
X7891491Y-14228388D01*
X7891491Y-14228388D02*
X7881967Y-14247436D01*
X7881967Y-14247436D02*
X7872443Y-14256960D01*
X7872443Y-14256960D02*
X7853396Y-14266484D01*
X7853396Y-14266484D02*
X7815301Y-14266484D01*
X7815301Y-14266484D02*
X7796253Y-14256960D01*
X7977205Y-14247436D02*
X7986729Y-14256960D01*
X7986729Y-14256960D02*
X7977205Y-14266484D01*
X7977205Y-14266484D02*
X7967682Y-14256960D01*
X7967682Y-14256960D02*
X7977205Y-14247436D01*
X7977205Y-14247436D02*
X7977205Y-14266484D01*
X7977205Y-14142674D02*
X7986729Y-14152198D01*
X7986729Y-14152198D02*
X7977205Y-14161722D01*
X7977205Y-14161722D02*
X7967682Y-14152198D01*
X7967682Y-14152198D02*
X7977205Y-14142674D01*
X7977205Y-14142674D02*
X7977205Y-14161722D01*
D12*
X6305000Y-14575000D02*
X6345000Y-14615000D01*
X6345000Y-14575000D02*
X6305000Y-14615000D01*
D11*
X6643872Y-14486484D02*
X6662920Y-14486484D01*
X6662920Y-14486484D02*
X6681967Y-14496008D01*
X6681967Y-14496008D02*
X6691491Y-14505531D01*
X6691491Y-14505531D02*
X6701015Y-14524579D01*
X6701015Y-14524579D02*
X6710539Y-14562674D01*
X6710539Y-14562674D02*
X6710539Y-14610293D01*
X6710539Y-14610293D02*
X6701015Y-14648388D01*
X6701015Y-14648388D02*
X6691491Y-14667436D01*
X6691491Y-14667436D02*
X6681967Y-14676960D01*
X6681967Y-14676960D02*
X6662920Y-14686484D01*
X6662920Y-14686484D02*
X6643872Y-14686484D01*
X6643872Y-14686484D02*
X6624824Y-14676960D01*
X6624824Y-14676960D02*
X6615301Y-14667436D01*
X6615301Y-14667436D02*
X6605777Y-14648388D01*
X6605777Y-14648388D02*
X6596253Y-14610293D01*
X6596253Y-14610293D02*
X6596253Y-14562674D01*
X6596253Y-14562674D02*
X6605777Y-14524579D01*
X6605777Y-14524579D02*
X6615301Y-14505531D01*
X6615301Y-14505531D02*
X6624824Y-14496008D01*
X6624824Y-14496008D02*
X6643872Y-14486484D01*
X6796253Y-14667436D02*
X6805777Y-14676960D01*
X6805777Y-14676960D02*
X6796253Y-14686484D01*
X6796253Y-14686484D02*
X6786729Y-14676960D01*
X6786729Y-14676960D02*
X6796253Y-14667436D01*
X6796253Y-14667436D02*
X6796253Y-14686484D01*
X6977205Y-14553150D02*
X6977205Y-14686484D01*
X6929586Y-14476960D02*
X6881967Y-14619817D01*
X6881967Y-14619817D02*
X7005777Y-14619817D01*
X7120062Y-14486484D02*
X7139110Y-14486484D01*
X7139110Y-14486484D02*
X7158158Y-14496008D01*
X7158158Y-14496008D02*
X7167682Y-14505531D01*
X7167682Y-14505531D02*
X7177205Y-14524579D01*
X7177205Y-14524579D02*
X7186729Y-14562674D01*
X7186729Y-14562674D02*
X7186729Y-14610293D01*
X7186729Y-14610293D02*
X7177205Y-14648388D01*
X7177205Y-14648388D02*
X7167682Y-14667436D01*
X7167682Y-14667436D02*
X7158158Y-14676960D01*
X7158158Y-14676960D02*
X7139110Y-14686484D01*
X7139110Y-14686484D02*
X7120062Y-14686484D01*
X7120062Y-14686484D02*
X7101015Y-14676960D01*
X7101015Y-14676960D02*
X7091491Y-14667436D01*
X7091491Y-14667436D02*
X7081967Y-14648388D01*
X7081967Y-14648388D02*
X7072443Y-14610293D01*
X7072443Y-14610293D02*
X7072443Y-14562674D01*
X7072443Y-14562674D02*
X7081967Y-14524579D01*
X7081967Y-14524579D02*
X7091491Y-14505531D01*
X7091491Y-14505531D02*
X7101015Y-14496008D01*
X7101015Y-14496008D02*
X7120062Y-14486484D01*
X7310539Y-14486484D02*
X7329586Y-14486484D01*
X7329586Y-14486484D02*
X7348634Y-14496008D01*
X7348634Y-14496008D02*
X7358158Y-14505531D01*
X7358158Y-14505531D02*
X7367682Y-14524579D01*
X7367682Y-14524579D02*
X7377205Y-14562674D01*
X7377205Y-14562674D02*
X7377205Y-14610293D01*
X7377205Y-14610293D02*
X7367682Y-14648388D01*
X7367682Y-14648388D02*
X7358158Y-14667436D01*
X7358158Y-14667436D02*
X7348634Y-14676960D01*
X7348634Y-14676960D02*
X7329586Y-14686484D01*
X7329586Y-14686484D02*
X7310539Y-14686484D01*
X7310539Y-14686484D02*
X7291491Y-14676960D01*
X7291491Y-14676960D02*
X7281967Y-14667436D01*
X7281967Y-14667436D02*
X7272443Y-14648388D01*
X7272443Y-14648388D02*
X7262920Y-14610293D01*
X7262920Y-14610293D02*
X7262920Y-14562674D01*
X7262920Y-14562674D02*
X7272443Y-14524579D01*
X7272443Y-14524579D02*
X7281967Y-14505531D01*
X7281967Y-14505531D02*
X7291491Y-14496008D01*
X7291491Y-14496008D02*
X7310539Y-14486484D01*
X7462920Y-14686484D02*
X7462920Y-14553150D01*
X7462920Y-14572198D02*
X7472443Y-14562674D01*
X7472443Y-14562674D02*
X7491491Y-14553150D01*
X7491491Y-14553150D02*
X7520063Y-14553150D01*
X7520063Y-14553150D02*
X7539110Y-14562674D01*
X7539110Y-14562674D02*
X7548634Y-14581722D01*
X7548634Y-14581722D02*
X7548634Y-14686484D01*
X7548634Y-14581722D02*
X7558158Y-14562674D01*
X7558158Y-14562674D02*
X7577205Y-14553150D01*
X7577205Y-14553150D02*
X7605777Y-14553150D01*
X7605777Y-14553150D02*
X7624824Y-14562674D01*
X7624824Y-14562674D02*
X7634348Y-14581722D01*
X7634348Y-14581722D02*
X7634348Y-14686484D01*
X7729586Y-14686484D02*
X7729586Y-14553150D01*
X7729586Y-14572198D02*
X7739110Y-14562674D01*
X7739110Y-14562674D02*
X7758158Y-14553150D01*
X7758158Y-14553150D02*
X7786729Y-14553150D01*
X7786729Y-14553150D02*
X7805777Y-14562674D01*
X7805777Y-14562674D02*
X7815301Y-14581722D01*
X7815301Y-14581722D02*
X7815301Y-14686484D01*
X7815301Y-14581722D02*
X7824824Y-14562674D01*
X7824824Y-14562674D02*
X7843872Y-14553150D01*
X7843872Y-14553150D02*
X7872443Y-14553150D01*
X7872443Y-14553150D02*
X7891491Y-14562674D01*
X7891491Y-14562674D02*
X7901015Y-14581722D01*
X7901015Y-14581722D02*
X7901015Y-14686484D01*
X8291491Y-14476960D02*
X8120063Y-14734103D01*
X8548634Y-14486484D02*
X8567682Y-14486484D01*
X8567682Y-14486484D02*
X8586729Y-14496008D01*
X8586729Y-14496008D02*
X8596253Y-14505531D01*
X8596253Y-14505531D02*
X8605777Y-14524579D01*
X8605777Y-14524579D02*
X8615301Y-14562674D01*
X8615301Y-14562674D02*
X8615301Y-14610293D01*
X8615301Y-14610293D02*
X8605777Y-14648388D01*
X8605777Y-14648388D02*
X8596253Y-14667436D01*
X8596253Y-14667436D02*
X8586729Y-14676960D01*
X8586729Y-14676960D02*
X8567682Y-14686484D01*
X8567682Y-14686484D02*
X8548634Y-14686484D01*
X8548634Y-14686484D02*
X8529587Y-14676960D01*
X8529587Y-14676960D02*
X8520063Y-14667436D01*
X8520063Y-14667436D02*
X8510539Y-14648388D01*
X8510539Y-14648388D02*
X8501015Y-14610293D01*
X8501015Y-14610293D02*
X8501015Y-14562674D01*
X8501015Y-14562674D02*
X8510539Y-14524579D01*
X8510539Y-14524579D02*
X8520063Y-14505531D01*
X8520063Y-14505531D02*
X8529587Y-14496008D01*
X8529587Y-14496008D02*
X8548634Y-14486484D01*
X8701015Y-14667436D02*
X8710539Y-14676960D01*
X8710539Y-14676960D02*
X8701015Y-14686484D01*
X8701015Y-14686484D02*
X8691491Y-14676960D01*
X8691491Y-14676960D02*
X8701015Y-14667436D01*
X8701015Y-14667436D02*
X8701015Y-14686484D01*
X8834348Y-14486484D02*
X8853396Y-14486484D01*
X8853396Y-14486484D02*
X8872444Y-14496008D01*
X8872444Y-14496008D02*
X8881968Y-14505531D01*
X8881968Y-14505531D02*
X8891491Y-14524579D01*
X8891491Y-14524579D02*
X8901015Y-14562674D01*
X8901015Y-14562674D02*
X8901015Y-14610293D01*
X8901015Y-14610293D02*
X8891491Y-14648388D01*
X8891491Y-14648388D02*
X8881968Y-14667436D01*
X8881968Y-14667436D02*
X8872444Y-14676960D01*
X8872444Y-14676960D02*
X8853396Y-14686484D01*
X8853396Y-14686484D02*
X8834348Y-14686484D01*
X8834348Y-14686484D02*
X8815301Y-14676960D01*
X8815301Y-14676960D02*
X8805777Y-14667436D01*
X8805777Y-14667436D02*
X8796253Y-14648388D01*
X8796253Y-14648388D02*
X8786729Y-14610293D01*
X8786729Y-14610293D02*
X8786729Y-14562674D01*
X8786729Y-14562674D02*
X8796253Y-14524579D01*
X8796253Y-14524579D02*
X8805777Y-14505531D01*
X8805777Y-14505531D02*
X8815301Y-14496008D01*
X8815301Y-14496008D02*
X8834348Y-14486484D01*
X9091491Y-14686484D02*
X8977206Y-14686484D01*
X9034348Y-14686484D02*
X9034348Y-14486484D01*
X9034348Y-14486484D02*
X9015301Y-14515055D01*
X9015301Y-14515055D02*
X8996253Y-14534103D01*
X8996253Y-14534103D02*
X8977206Y-14543627D01*
X9272444Y-14486484D02*
X9177206Y-14486484D01*
X9177206Y-14486484D02*
X9167682Y-14581722D01*
X9167682Y-14581722D02*
X9177206Y-14572198D01*
X9177206Y-14572198D02*
X9196253Y-14562674D01*
X9196253Y-14562674D02*
X9243872Y-14562674D01*
X9243872Y-14562674D02*
X9262920Y-14572198D01*
X9262920Y-14572198D02*
X9272444Y-14581722D01*
X9272444Y-14581722D02*
X9281968Y-14600769D01*
X9281968Y-14600769D02*
X9281968Y-14648388D01*
X9281968Y-14648388D02*
X9272444Y-14667436D01*
X9272444Y-14667436D02*
X9262920Y-14676960D01*
X9262920Y-14676960D02*
X9243872Y-14686484D01*
X9243872Y-14686484D02*
X9196253Y-14686484D01*
X9196253Y-14686484D02*
X9177206Y-14676960D01*
X9177206Y-14676960D02*
X9167682Y-14667436D01*
X9348634Y-14486484D02*
X9481968Y-14486484D01*
X9481968Y-14486484D02*
X9396253Y-14686484D01*
X9548634Y-14486484D02*
X9548634Y-14524579D01*
X9624825Y-14486484D02*
X9624825Y-14524579D01*
X9920063Y-14762674D02*
X9910539Y-14753150D01*
X9910539Y-14753150D02*
X9891491Y-14724579D01*
X9891491Y-14724579D02*
X9881968Y-14705531D01*
X9881968Y-14705531D02*
X9872444Y-14676960D01*
X9872444Y-14676960D02*
X9862920Y-14629341D01*
X9862920Y-14629341D02*
X9862920Y-14591246D01*
X9862920Y-14591246D02*
X9872444Y-14543627D01*
X9872444Y-14543627D02*
X9881968Y-14515055D01*
X9881968Y-14515055D02*
X9891491Y-14496008D01*
X9891491Y-14496008D02*
X9910539Y-14467436D01*
X9910539Y-14467436D02*
X9920063Y-14457912D01*
X10101015Y-14686484D02*
X9986730Y-14686484D01*
X10043872Y-14686484D02*
X10043872Y-14486484D01*
X10043872Y-14486484D02*
X10024825Y-14515055D01*
X10024825Y-14515055D02*
X10005777Y-14534103D01*
X10005777Y-14534103D02*
X9986730Y-14543627D01*
X10339111Y-14686484D02*
X10339111Y-14486484D01*
X10424825Y-14686484D02*
X10424825Y-14581722D01*
X10424825Y-14581722D02*
X10415301Y-14562674D01*
X10415301Y-14562674D02*
X10396253Y-14553150D01*
X10396253Y-14553150D02*
X10367682Y-14553150D01*
X10367682Y-14553150D02*
X10348634Y-14562674D01*
X10348634Y-14562674D02*
X10339111Y-14572198D01*
X10548634Y-14686484D02*
X10529587Y-14676960D01*
X10529587Y-14676960D02*
X10520063Y-14667436D01*
X10520063Y-14667436D02*
X10510539Y-14648388D01*
X10510539Y-14648388D02*
X10510539Y-14591246D01*
X10510539Y-14591246D02*
X10520063Y-14572198D01*
X10520063Y-14572198D02*
X10529587Y-14562674D01*
X10529587Y-14562674D02*
X10548634Y-14553150D01*
X10548634Y-14553150D02*
X10577206Y-14553150D01*
X10577206Y-14553150D02*
X10596253Y-14562674D01*
X10596253Y-14562674D02*
X10605777Y-14572198D01*
X10605777Y-14572198D02*
X10615301Y-14591246D01*
X10615301Y-14591246D02*
X10615301Y-14648388D01*
X10615301Y-14648388D02*
X10605777Y-14667436D01*
X10605777Y-14667436D02*
X10596253Y-14676960D01*
X10596253Y-14676960D02*
X10577206Y-14686484D01*
X10577206Y-14686484D02*
X10548634Y-14686484D01*
X10729587Y-14686484D02*
X10710539Y-14676960D01*
X10710539Y-14676960D02*
X10701015Y-14657912D01*
X10701015Y-14657912D02*
X10701015Y-14486484D01*
X10881968Y-14676960D02*
X10862920Y-14686484D01*
X10862920Y-14686484D02*
X10824825Y-14686484D01*
X10824825Y-14686484D02*
X10805777Y-14676960D01*
X10805777Y-14676960D02*
X10796253Y-14657912D01*
X10796253Y-14657912D02*
X10796253Y-14581722D01*
X10796253Y-14581722D02*
X10805777Y-14562674D01*
X10805777Y-14562674D02*
X10824825Y-14553150D01*
X10824825Y-14553150D02*
X10862920Y-14553150D01*
X10862920Y-14553150D02*
X10881968Y-14562674D01*
X10881968Y-14562674D02*
X10891492Y-14581722D01*
X10891492Y-14581722D02*
X10891492Y-14600769D01*
X10891492Y-14600769D02*
X10796253Y-14619817D01*
X10958158Y-14762674D02*
X10967682Y-14753150D01*
X10967682Y-14753150D02*
X10986730Y-14724579D01*
X10986730Y-14724579D02*
X10996253Y-14705531D01*
X10996253Y-14705531D02*
X11005777Y-14676960D01*
X11005777Y-14676960D02*
X11015301Y-14629341D01*
X11015301Y-14629341D02*
X11015301Y-14591246D01*
X11015301Y-14591246D02*
X11005777Y-14543627D01*
X11005777Y-14543627D02*
X10996253Y-14515055D01*
X10996253Y-14515055D02*
X10986730Y-14496008D01*
X10986730Y-14496008D02*
X10967682Y-14467436D01*
X10967682Y-14467436D02*
X10958158Y-14457912D01*
D13*
X6345000Y-14859000D02*
G75*
G03*
X6345000Y-14859000I-30000J0D01*
G01*
D11*
X6643872Y-14750484D02*
X6662920Y-14750484D01*
X6662920Y-14750484D02*
X6681967Y-14760008D01*
X6681967Y-14760008D02*
X6691491Y-14769531D01*
X6691491Y-14769531D02*
X6701015Y-14788579D01*
X6701015Y-14788579D02*
X6710539Y-14826674D01*
X6710539Y-14826674D02*
X6710539Y-14874293D01*
X6710539Y-14874293D02*
X6701015Y-14912388D01*
X6701015Y-14912388D02*
X6691491Y-14931436D01*
X6691491Y-14931436D02*
X6681967Y-14940960D01*
X6681967Y-14940960D02*
X6662920Y-14950484D01*
X6662920Y-14950484D02*
X6643872Y-14950484D01*
X6643872Y-14950484D02*
X6624824Y-14940960D01*
X6624824Y-14940960D02*
X6615301Y-14931436D01*
X6615301Y-14931436D02*
X6605777Y-14912388D01*
X6605777Y-14912388D02*
X6596253Y-14874293D01*
X6596253Y-14874293D02*
X6596253Y-14826674D01*
X6596253Y-14826674D02*
X6605777Y-14788579D01*
X6605777Y-14788579D02*
X6615301Y-14769531D01*
X6615301Y-14769531D02*
X6624824Y-14760008D01*
X6624824Y-14760008D02*
X6643872Y-14750484D01*
X6796253Y-14931436D02*
X6805777Y-14940960D01*
X6805777Y-14940960D02*
X6796253Y-14950484D01*
X6796253Y-14950484D02*
X6786729Y-14940960D01*
X6786729Y-14940960D02*
X6796253Y-14931436D01*
X6796253Y-14931436D02*
X6796253Y-14950484D01*
X6977205Y-14750484D02*
X6939110Y-14750484D01*
X6939110Y-14750484D02*
X6920062Y-14760008D01*
X6920062Y-14760008D02*
X6910539Y-14769531D01*
X6910539Y-14769531D02*
X6891491Y-14798103D01*
X6891491Y-14798103D02*
X6881967Y-14836198D01*
X6881967Y-14836198D02*
X6881967Y-14912388D01*
X6881967Y-14912388D02*
X6891491Y-14931436D01*
X6891491Y-14931436D02*
X6901015Y-14940960D01*
X6901015Y-14940960D02*
X6920062Y-14950484D01*
X6920062Y-14950484D02*
X6958158Y-14950484D01*
X6958158Y-14950484D02*
X6977205Y-14940960D01*
X6977205Y-14940960D02*
X6986729Y-14931436D01*
X6986729Y-14931436D02*
X6996253Y-14912388D01*
X6996253Y-14912388D02*
X6996253Y-14864769D01*
X6996253Y-14864769D02*
X6986729Y-14845722D01*
X6986729Y-14845722D02*
X6977205Y-14836198D01*
X6977205Y-14836198D02*
X6958158Y-14826674D01*
X6958158Y-14826674D02*
X6920062Y-14826674D01*
X6920062Y-14826674D02*
X6901015Y-14836198D01*
X6901015Y-14836198D02*
X6891491Y-14845722D01*
X6891491Y-14845722D02*
X6881967Y-14864769D01*
X7120062Y-14750484D02*
X7139110Y-14750484D01*
X7139110Y-14750484D02*
X7158158Y-14760008D01*
X7158158Y-14760008D02*
X7167682Y-14769531D01*
X7167682Y-14769531D02*
X7177205Y-14788579D01*
X7177205Y-14788579D02*
X7186729Y-14826674D01*
X7186729Y-14826674D02*
X7186729Y-14874293D01*
X7186729Y-14874293D02*
X7177205Y-14912388D01*
X7177205Y-14912388D02*
X7167682Y-14931436D01*
X7167682Y-14931436D02*
X7158158Y-14940960D01*
X7158158Y-14940960D02*
X7139110Y-14950484D01*
X7139110Y-14950484D02*
X7120062Y-14950484D01*
X7120062Y-14950484D02*
X7101015Y-14940960D01*
X7101015Y-14940960D02*
X7091491Y-14931436D01*
X7091491Y-14931436D02*
X7081967Y-14912388D01*
X7081967Y-14912388D02*
X7072443Y-14874293D01*
X7072443Y-14874293D02*
X7072443Y-14826674D01*
X7072443Y-14826674D02*
X7081967Y-14788579D01*
X7081967Y-14788579D02*
X7091491Y-14769531D01*
X7091491Y-14769531D02*
X7101015Y-14760008D01*
X7101015Y-14760008D02*
X7120062Y-14750484D01*
X7310539Y-14750484D02*
X7329586Y-14750484D01*
X7329586Y-14750484D02*
X7348634Y-14760008D01*
X7348634Y-14760008D02*
X7358158Y-14769531D01*
X7358158Y-14769531D02*
X7367682Y-14788579D01*
X7367682Y-14788579D02*
X7377205Y-14826674D01*
X7377205Y-14826674D02*
X7377205Y-14874293D01*
X7377205Y-14874293D02*
X7367682Y-14912388D01*
X7367682Y-14912388D02*
X7358158Y-14931436D01*
X7358158Y-14931436D02*
X7348634Y-14940960D01*
X7348634Y-14940960D02*
X7329586Y-14950484D01*
X7329586Y-14950484D02*
X7310539Y-14950484D01*
X7310539Y-14950484D02*
X7291491Y-14940960D01*
X7291491Y-14940960D02*
X7281967Y-14931436D01*
X7281967Y-14931436D02*
X7272443Y-14912388D01*
X7272443Y-14912388D02*
X7262920Y-14874293D01*
X7262920Y-14874293D02*
X7262920Y-14826674D01*
X7262920Y-14826674D02*
X7272443Y-14788579D01*
X7272443Y-14788579D02*
X7281967Y-14769531D01*
X7281967Y-14769531D02*
X7291491Y-14760008D01*
X7291491Y-14760008D02*
X7310539Y-14750484D01*
X7462920Y-14950484D02*
X7462920Y-14817150D01*
X7462920Y-14836198D02*
X7472443Y-14826674D01*
X7472443Y-14826674D02*
X7491491Y-14817150D01*
X7491491Y-14817150D02*
X7520063Y-14817150D01*
X7520063Y-14817150D02*
X7539110Y-14826674D01*
X7539110Y-14826674D02*
X7548634Y-14845722D01*
X7548634Y-14845722D02*
X7548634Y-14950484D01*
X7548634Y-14845722D02*
X7558158Y-14826674D01*
X7558158Y-14826674D02*
X7577205Y-14817150D01*
X7577205Y-14817150D02*
X7605777Y-14817150D01*
X7605777Y-14817150D02*
X7624824Y-14826674D01*
X7624824Y-14826674D02*
X7634348Y-14845722D01*
X7634348Y-14845722D02*
X7634348Y-14950484D01*
X7729586Y-14950484D02*
X7729586Y-14817150D01*
X7729586Y-14836198D02*
X7739110Y-14826674D01*
X7739110Y-14826674D02*
X7758158Y-14817150D01*
X7758158Y-14817150D02*
X7786729Y-14817150D01*
X7786729Y-14817150D02*
X7805777Y-14826674D01*
X7805777Y-14826674D02*
X7815301Y-14845722D01*
X7815301Y-14845722D02*
X7815301Y-14950484D01*
X7815301Y-14845722D02*
X7824824Y-14826674D01*
X7824824Y-14826674D02*
X7843872Y-14817150D01*
X7843872Y-14817150D02*
X7872443Y-14817150D01*
X7872443Y-14817150D02*
X7891491Y-14826674D01*
X7891491Y-14826674D02*
X7901015Y-14845722D01*
X7901015Y-14845722D02*
X7901015Y-14950484D01*
X8291491Y-14740960D02*
X8120063Y-14998103D01*
X8548634Y-14750484D02*
X8567682Y-14750484D01*
X8567682Y-14750484D02*
X8586729Y-14760008D01*
X8586729Y-14760008D02*
X8596253Y-14769531D01*
X8596253Y-14769531D02*
X8605777Y-14788579D01*
X8605777Y-14788579D02*
X8615301Y-14826674D01*
X8615301Y-14826674D02*
X8615301Y-14874293D01*
X8615301Y-14874293D02*
X8605777Y-14912388D01*
X8605777Y-14912388D02*
X8596253Y-14931436D01*
X8596253Y-14931436D02*
X8586729Y-14940960D01*
X8586729Y-14940960D02*
X8567682Y-14950484D01*
X8567682Y-14950484D02*
X8548634Y-14950484D01*
X8548634Y-14950484D02*
X8529587Y-14940960D01*
X8529587Y-14940960D02*
X8520063Y-14931436D01*
X8520063Y-14931436D02*
X8510539Y-14912388D01*
X8510539Y-14912388D02*
X8501015Y-14874293D01*
X8501015Y-14874293D02*
X8501015Y-14826674D01*
X8501015Y-14826674D02*
X8510539Y-14788579D01*
X8510539Y-14788579D02*
X8520063Y-14769531D01*
X8520063Y-14769531D02*
X8529587Y-14760008D01*
X8529587Y-14760008D02*
X8548634Y-14750484D01*
X8701015Y-14931436D02*
X8710539Y-14940960D01*
X8710539Y-14940960D02*
X8701015Y-14950484D01*
X8701015Y-14950484D02*
X8691491Y-14940960D01*
X8691491Y-14940960D02*
X8701015Y-14931436D01*
X8701015Y-14931436D02*
X8701015Y-14950484D01*
X8834348Y-14750484D02*
X8853396Y-14750484D01*
X8853396Y-14750484D02*
X8872444Y-14760008D01*
X8872444Y-14760008D02*
X8881968Y-14769531D01*
X8881968Y-14769531D02*
X8891491Y-14788579D01*
X8891491Y-14788579D02*
X8901015Y-14826674D01*
X8901015Y-14826674D02*
X8901015Y-14874293D01*
X8901015Y-14874293D02*
X8891491Y-14912388D01*
X8891491Y-14912388D02*
X8881968Y-14931436D01*
X8881968Y-14931436D02*
X8872444Y-14940960D01*
X8872444Y-14940960D02*
X8853396Y-14950484D01*
X8853396Y-14950484D02*
X8834348Y-14950484D01*
X8834348Y-14950484D02*
X8815301Y-14940960D01*
X8815301Y-14940960D02*
X8805777Y-14931436D01*
X8805777Y-14931436D02*
X8796253Y-14912388D01*
X8796253Y-14912388D02*
X8786729Y-14874293D01*
X8786729Y-14874293D02*
X8786729Y-14826674D01*
X8786729Y-14826674D02*
X8796253Y-14788579D01*
X8796253Y-14788579D02*
X8805777Y-14769531D01*
X8805777Y-14769531D02*
X8815301Y-14760008D01*
X8815301Y-14760008D02*
X8834348Y-14750484D01*
X8977206Y-14769531D02*
X8986729Y-14760008D01*
X8986729Y-14760008D02*
X9005777Y-14750484D01*
X9005777Y-14750484D02*
X9053396Y-14750484D01*
X9053396Y-14750484D02*
X9072444Y-14760008D01*
X9072444Y-14760008D02*
X9081968Y-14769531D01*
X9081968Y-14769531D02*
X9091491Y-14788579D01*
X9091491Y-14788579D02*
X9091491Y-14807627D01*
X9091491Y-14807627D02*
X9081968Y-14836198D01*
X9081968Y-14836198D02*
X8967682Y-14950484D01*
X8967682Y-14950484D02*
X9091491Y-14950484D01*
X9158158Y-14750484D02*
X9281968Y-14750484D01*
X9281968Y-14750484D02*
X9215301Y-14826674D01*
X9215301Y-14826674D02*
X9243872Y-14826674D01*
X9243872Y-14826674D02*
X9262920Y-14836198D01*
X9262920Y-14836198D02*
X9272444Y-14845722D01*
X9272444Y-14845722D02*
X9281968Y-14864769D01*
X9281968Y-14864769D02*
X9281968Y-14912388D01*
X9281968Y-14912388D02*
X9272444Y-14931436D01*
X9272444Y-14931436D02*
X9262920Y-14940960D01*
X9262920Y-14940960D02*
X9243872Y-14950484D01*
X9243872Y-14950484D02*
X9186729Y-14950484D01*
X9186729Y-14950484D02*
X9167682Y-14940960D01*
X9167682Y-14940960D02*
X9158158Y-14931436D01*
X9453396Y-14750484D02*
X9415301Y-14750484D01*
X9415301Y-14750484D02*
X9396253Y-14760008D01*
X9396253Y-14760008D02*
X9386729Y-14769531D01*
X9386729Y-14769531D02*
X9367682Y-14798103D01*
X9367682Y-14798103D02*
X9358158Y-14836198D01*
X9358158Y-14836198D02*
X9358158Y-14912388D01*
X9358158Y-14912388D02*
X9367682Y-14931436D01*
X9367682Y-14931436D02*
X9377206Y-14940960D01*
X9377206Y-14940960D02*
X9396253Y-14950484D01*
X9396253Y-14950484D02*
X9434349Y-14950484D01*
X9434349Y-14950484D02*
X9453396Y-14940960D01*
X9453396Y-14940960D02*
X9462920Y-14931436D01*
X9462920Y-14931436D02*
X9472444Y-14912388D01*
X9472444Y-14912388D02*
X9472444Y-14864769D01*
X9472444Y-14864769D02*
X9462920Y-14845722D01*
X9462920Y-14845722D02*
X9453396Y-14836198D01*
X9453396Y-14836198D02*
X9434349Y-14826674D01*
X9434349Y-14826674D02*
X9396253Y-14826674D01*
X9396253Y-14826674D02*
X9377206Y-14836198D01*
X9377206Y-14836198D02*
X9367682Y-14845722D01*
X9367682Y-14845722D02*
X9358158Y-14864769D01*
X9548634Y-14750484D02*
X9548634Y-14788579D01*
X9624825Y-14750484D02*
X9624825Y-14788579D01*
X9920063Y-15026674D02*
X9910539Y-15017150D01*
X9910539Y-15017150D02*
X9891491Y-14988579D01*
X9891491Y-14988579D02*
X9881968Y-14969531D01*
X9881968Y-14969531D02*
X9872444Y-14940960D01*
X9872444Y-14940960D02*
X9862920Y-14893341D01*
X9862920Y-14893341D02*
X9862920Y-14855246D01*
X9862920Y-14855246D02*
X9872444Y-14807627D01*
X9872444Y-14807627D02*
X9881968Y-14779055D01*
X9881968Y-14779055D02*
X9891491Y-14760008D01*
X9891491Y-14760008D02*
X9910539Y-14731436D01*
X9910539Y-14731436D02*
X9920063Y-14721912D01*
X10024825Y-14836198D02*
X10005777Y-14826674D01*
X10005777Y-14826674D02*
X9996253Y-14817150D01*
X9996253Y-14817150D02*
X9986730Y-14798103D01*
X9986730Y-14798103D02*
X9986730Y-14788579D01*
X9986730Y-14788579D02*
X9996253Y-14769531D01*
X9996253Y-14769531D02*
X10005777Y-14760008D01*
X10005777Y-14760008D02*
X10024825Y-14750484D01*
X10024825Y-14750484D02*
X10062920Y-14750484D01*
X10062920Y-14750484D02*
X10081968Y-14760008D01*
X10081968Y-14760008D02*
X10091491Y-14769531D01*
X10091491Y-14769531D02*
X10101015Y-14788579D01*
X10101015Y-14788579D02*
X10101015Y-14798103D01*
X10101015Y-14798103D02*
X10091491Y-14817150D01*
X10091491Y-14817150D02*
X10081968Y-14826674D01*
X10081968Y-14826674D02*
X10062920Y-14836198D01*
X10062920Y-14836198D02*
X10024825Y-14836198D01*
X10024825Y-14836198D02*
X10005777Y-14845722D01*
X10005777Y-14845722D02*
X9996253Y-14855246D01*
X9996253Y-14855246D02*
X9986730Y-14874293D01*
X9986730Y-14874293D02*
X9986730Y-14912388D01*
X9986730Y-14912388D02*
X9996253Y-14931436D01*
X9996253Y-14931436D02*
X10005777Y-14940960D01*
X10005777Y-14940960D02*
X10024825Y-14950484D01*
X10024825Y-14950484D02*
X10062920Y-14950484D01*
X10062920Y-14950484D02*
X10081968Y-14940960D01*
X10081968Y-14940960D02*
X10091491Y-14931436D01*
X10091491Y-14931436D02*
X10101015Y-14912388D01*
X10101015Y-14912388D02*
X10101015Y-14874293D01*
X10101015Y-14874293D02*
X10091491Y-14855246D01*
X10091491Y-14855246D02*
X10081968Y-14845722D01*
X10081968Y-14845722D02*
X10062920Y-14836198D01*
X10339111Y-14950484D02*
X10339111Y-14750484D01*
X10424825Y-14950484D02*
X10424825Y-14845722D01*
X10424825Y-14845722D02*
X10415301Y-14826674D01*
X10415301Y-14826674D02*
X10396253Y-14817150D01*
X10396253Y-14817150D02*
X10367682Y-14817150D01*
X10367682Y-14817150D02*
X10348634Y-14826674D01*
X10348634Y-14826674D02*
X10339111Y-14836198D01*
X10548634Y-14950484D02*
X10529587Y-14940960D01*
X10529587Y-14940960D02*
X10520063Y-14931436D01*
X10520063Y-14931436D02*
X10510539Y-14912388D01*
X10510539Y-14912388D02*
X10510539Y-14855246D01*
X10510539Y-14855246D02*
X10520063Y-14836198D01*
X10520063Y-14836198D02*
X10529587Y-14826674D01*
X10529587Y-14826674D02*
X10548634Y-14817150D01*
X10548634Y-14817150D02*
X10577206Y-14817150D01*
X10577206Y-14817150D02*
X10596253Y-14826674D01*
X10596253Y-14826674D02*
X10605777Y-14836198D01*
X10605777Y-14836198D02*
X10615301Y-14855246D01*
X10615301Y-14855246D02*
X10615301Y-14912388D01*
X10615301Y-14912388D02*
X10605777Y-14931436D01*
X10605777Y-14931436D02*
X10596253Y-14940960D01*
X10596253Y-14940960D02*
X10577206Y-14950484D01*
X10577206Y-14950484D02*
X10548634Y-14950484D01*
X10729587Y-14950484D02*
X10710539Y-14940960D01*
X10710539Y-14940960D02*
X10701015Y-14921912D01*
X10701015Y-14921912D02*
X10701015Y-14750484D01*
X10881968Y-14940960D02*
X10862920Y-14950484D01*
X10862920Y-14950484D02*
X10824825Y-14950484D01*
X10824825Y-14950484D02*
X10805777Y-14940960D01*
X10805777Y-14940960D02*
X10796253Y-14921912D01*
X10796253Y-14921912D02*
X10796253Y-14845722D01*
X10796253Y-14845722D02*
X10805777Y-14826674D01*
X10805777Y-14826674D02*
X10824825Y-14817150D01*
X10824825Y-14817150D02*
X10862920Y-14817150D01*
X10862920Y-14817150D02*
X10881968Y-14826674D01*
X10881968Y-14826674D02*
X10891492Y-14845722D01*
X10891492Y-14845722D02*
X10891492Y-14864769D01*
X10891492Y-14864769D02*
X10796253Y-14883817D01*
X10967682Y-14940960D02*
X10986730Y-14950484D01*
X10986730Y-14950484D02*
X11024825Y-14950484D01*
X11024825Y-14950484D02*
X11043873Y-14940960D01*
X11043873Y-14940960D02*
X11053396Y-14921912D01*
X11053396Y-14921912D02*
X11053396Y-14912388D01*
X11053396Y-14912388D02*
X11043873Y-14893341D01*
X11043873Y-14893341D02*
X11024825Y-14883817D01*
X11024825Y-14883817D02*
X10996253Y-14883817D01*
X10996253Y-14883817D02*
X10977206Y-14874293D01*
X10977206Y-14874293D02*
X10967682Y-14855246D01*
X10967682Y-14855246D02*
X10967682Y-14845722D01*
X10967682Y-14845722D02*
X10977206Y-14826674D01*
X10977206Y-14826674D02*
X10996253Y-14817150D01*
X10996253Y-14817150D02*
X11024825Y-14817150D01*
X11024825Y-14817150D02*
X11043873Y-14826674D01*
X11120063Y-15026674D02*
X11129587Y-15017150D01*
X11129587Y-15017150D02*
X11148634Y-14988579D01*
X11148634Y-14988579D02*
X11158158Y-14969531D01*
X11158158Y-14969531D02*
X11167682Y-14940960D01*
X11167682Y-14940960D02*
X11177206Y-14893341D01*
X11177206Y-14893341D02*
X11177206Y-14855246D01*
X11177206Y-14855246D02*
X11167682Y-14807627D01*
X11167682Y-14807627D02*
X11158158Y-14779055D01*
X11158158Y-14779055D02*
X11148634Y-14760008D01*
X11148634Y-14760008D02*
X11129587Y-14731436D01*
X11129587Y-14731436D02*
X11120063Y-14721912D01*
D14*
X6310000Y-15088000D02*
X6310000Y-15158000D01*
X6275000Y-15123000D02*
X6345000Y-15123000D01*
D11*
X6643872Y-15014484D02*
X6662920Y-15014484D01*
X6662920Y-15014484D02*
X6681967Y-15024008D01*
X6681967Y-15024008D02*
X6691491Y-15033531D01*
X6691491Y-15033531D02*
X6701015Y-15052579D01*
X6701015Y-15052579D02*
X6710539Y-15090674D01*
X6710539Y-15090674D02*
X6710539Y-15138293D01*
X6710539Y-15138293D02*
X6701015Y-15176388D01*
X6701015Y-15176388D02*
X6691491Y-15195436D01*
X6691491Y-15195436D02*
X6681967Y-15204960D01*
X6681967Y-15204960D02*
X6662920Y-15214484D01*
X6662920Y-15214484D02*
X6643872Y-15214484D01*
X6643872Y-15214484D02*
X6624824Y-15204960D01*
X6624824Y-15204960D02*
X6615301Y-15195436D01*
X6615301Y-15195436D02*
X6605777Y-15176388D01*
X6605777Y-15176388D02*
X6596253Y-15138293D01*
X6596253Y-15138293D02*
X6596253Y-15090674D01*
X6596253Y-15090674D02*
X6605777Y-15052579D01*
X6605777Y-15052579D02*
X6615301Y-15033531D01*
X6615301Y-15033531D02*
X6624824Y-15024008D01*
X6624824Y-15024008D02*
X6643872Y-15014484D01*
X6796253Y-15195436D02*
X6805777Y-15204960D01*
X6805777Y-15204960D02*
X6796253Y-15214484D01*
X6796253Y-15214484D02*
X6786729Y-15204960D01*
X6786729Y-15204960D02*
X6796253Y-15195436D01*
X6796253Y-15195436D02*
X6796253Y-15214484D01*
X6872443Y-15014484D02*
X7005777Y-15014484D01*
X7005777Y-15014484D02*
X6920062Y-15214484D01*
X7120062Y-15014484D02*
X7139110Y-15014484D01*
X7139110Y-15014484D02*
X7158158Y-15024008D01*
X7158158Y-15024008D02*
X7167682Y-15033531D01*
X7167682Y-15033531D02*
X7177205Y-15052579D01*
X7177205Y-15052579D02*
X7186729Y-15090674D01*
X7186729Y-15090674D02*
X7186729Y-15138293D01*
X7186729Y-15138293D02*
X7177205Y-15176388D01*
X7177205Y-15176388D02*
X7167682Y-15195436D01*
X7167682Y-15195436D02*
X7158158Y-15204960D01*
X7158158Y-15204960D02*
X7139110Y-15214484D01*
X7139110Y-15214484D02*
X7120062Y-15214484D01*
X7120062Y-15214484D02*
X7101015Y-15204960D01*
X7101015Y-15204960D02*
X7091491Y-15195436D01*
X7091491Y-15195436D02*
X7081967Y-15176388D01*
X7081967Y-15176388D02*
X7072443Y-15138293D01*
X7072443Y-15138293D02*
X7072443Y-15090674D01*
X7072443Y-15090674D02*
X7081967Y-15052579D01*
X7081967Y-15052579D02*
X7091491Y-15033531D01*
X7091491Y-15033531D02*
X7101015Y-15024008D01*
X7101015Y-15024008D02*
X7120062Y-15014484D01*
X7310539Y-15014484D02*
X7329586Y-15014484D01*
X7329586Y-15014484D02*
X7348634Y-15024008D01*
X7348634Y-15024008D02*
X7358158Y-15033531D01*
X7358158Y-15033531D02*
X7367682Y-15052579D01*
X7367682Y-15052579D02*
X7377205Y-15090674D01*
X7377205Y-15090674D02*
X7377205Y-15138293D01*
X7377205Y-15138293D02*
X7367682Y-15176388D01*
X7367682Y-15176388D02*
X7358158Y-15195436D01*
X7358158Y-15195436D02*
X7348634Y-15204960D01*
X7348634Y-15204960D02*
X7329586Y-15214484D01*
X7329586Y-15214484D02*
X7310539Y-15214484D01*
X7310539Y-15214484D02*
X7291491Y-15204960D01*
X7291491Y-15204960D02*
X7281967Y-15195436D01*
X7281967Y-15195436D02*
X7272443Y-15176388D01*
X7272443Y-15176388D02*
X7262920Y-15138293D01*
X7262920Y-15138293D02*
X7262920Y-15090674D01*
X7262920Y-15090674D02*
X7272443Y-15052579D01*
X7272443Y-15052579D02*
X7281967Y-15033531D01*
X7281967Y-15033531D02*
X7291491Y-15024008D01*
X7291491Y-15024008D02*
X7310539Y-15014484D01*
X7462920Y-15214484D02*
X7462920Y-15081150D01*
X7462920Y-15100198D02*
X7472443Y-15090674D01*
X7472443Y-15090674D02*
X7491491Y-15081150D01*
X7491491Y-15081150D02*
X7520063Y-15081150D01*
X7520063Y-15081150D02*
X7539110Y-15090674D01*
X7539110Y-15090674D02*
X7548634Y-15109722D01*
X7548634Y-15109722D02*
X7548634Y-15214484D01*
X7548634Y-15109722D02*
X7558158Y-15090674D01*
X7558158Y-15090674D02*
X7577205Y-15081150D01*
X7577205Y-15081150D02*
X7605777Y-15081150D01*
X7605777Y-15081150D02*
X7624824Y-15090674D01*
X7624824Y-15090674D02*
X7634348Y-15109722D01*
X7634348Y-15109722D02*
X7634348Y-15214484D01*
X7729586Y-15214484D02*
X7729586Y-15081150D01*
X7729586Y-15100198D02*
X7739110Y-15090674D01*
X7739110Y-15090674D02*
X7758158Y-15081150D01*
X7758158Y-15081150D02*
X7786729Y-15081150D01*
X7786729Y-15081150D02*
X7805777Y-15090674D01*
X7805777Y-15090674D02*
X7815301Y-15109722D01*
X7815301Y-15109722D02*
X7815301Y-15214484D01*
X7815301Y-15109722D02*
X7824824Y-15090674D01*
X7824824Y-15090674D02*
X7843872Y-15081150D01*
X7843872Y-15081150D02*
X7872443Y-15081150D01*
X7872443Y-15081150D02*
X7891491Y-15090674D01*
X7891491Y-15090674D02*
X7901015Y-15109722D01*
X7901015Y-15109722D02*
X7901015Y-15214484D01*
X8291491Y-15004960D02*
X8120063Y-15262103D01*
X8548634Y-15014484D02*
X8567682Y-15014484D01*
X8567682Y-15014484D02*
X8586729Y-15024008D01*
X8586729Y-15024008D02*
X8596253Y-15033531D01*
X8596253Y-15033531D02*
X8605777Y-15052579D01*
X8605777Y-15052579D02*
X8615301Y-15090674D01*
X8615301Y-15090674D02*
X8615301Y-15138293D01*
X8615301Y-15138293D02*
X8605777Y-15176388D01*
X8605777Y-15176388D02*
X8596253Y-15195436D01*
X8596253Y-15195436D02*
X8586729Y-15204960D01*
X8586729Y-15204960D02*
X8567682Y-15214484D01*
X8567682Y-15214484D02*
X8548634Y-15214484D01*
X8548634Y-15214484D02*
X8529587Y-15204960D01*
X8529587Y-15204960D02*
X8520063Y-15195436D01*
X8520063Y-15195436D02*
X8510539Y-15176388D01*
X8510539Y-15176388D02*
X8501015Y-15138293D01*
X8501015Y-15138293D02*
X8501015Y-15090674D01*
X8501015Y-15090674D02*
X8510539Y-15052579D01*
X8510539Y-15052579D02*
X8520063Y-15033531D01*
X8520063Y-15033531D02*
X8529587Y-15024008D01*
X8529587Y-15024008D02*
X8548634Y-15014484D01*
X8701015Y-15195436D02*
X8710539Y-15204960D01*
X8710539Y-15204960D02*
X8701015Y-15214484D01*
X8701015Y-15214484D02*
X8691491Y-15204960D01*
X8691491Y-15204960D02*
X8701015Y-15195436D01*
X8701015Y-15195436D02*
X8701015Y-15214484D01*
X8834348Y-15014484D02*
X8853396Y-15014484D01*
X8853396Y-15014484D02*
X8872444Y-15024008D01*
X8872444Y-15024008D02*
X8881968Y-15033531D01*
X8881968Y-15033531D02*
X8891491Y-15052579D01*
X8891491Y-15052579D02*
X8901015Y-15090674D01*
X8901015Y-15090674D02*
X8901015Y-15138293D01*
X8901015Y-15138293D02*
X8891491Y-15176388D01*
X8891491Y-15176388D02*
X8881968Y-15195436D01*
X8881968Y-15195436D02*
X8872444Y-15204960D01*
X8872444Y-15204960D02*
X8853396Y-15214484D01*
X8853396Y-15214484D02*
X8834348Y-15214484D01*
X8834348Y-15214484D02*
X8815301Y-15204960D01*
X8815301Y-15204960D02*
X8805777Y-15195436D01*
X8805777Y-15195436D02*
X8796253Y-15176388D01*
X8796253Y-15176388D02*
X8786729Y-15138293D01*
X8786729Y-15138293D02*
X8786729Y-15090674D01*
X8786729Y-15090674D02*
X8796253Y-15052579D01*
X8796253Y-15052579D02*
X8805777Y-15033531D01*
X8805777Y-15033531D02*
X8815301Y-15024008D01*
X8815301Y-15024008D02*
X8834348Y-15014484D01*
X8977206Y-15033531D02*
X8986729Y-15024008D01*
X8986729Y-15024008D02*
X9005777Y-15014484D01*
X9005777Y-15014484D02*
X9053396Y-15014484D01*
X9053396Y-15014484D02*
X9072444Y-15024008D01*
X9072444Y-15024008D02*
X9081968Y-15033531D01*
X9081968Y-15033531D02*
X9091491Y-15052579D01*
X9091491Y-15052579D02*
X9091491Y-15071627D01*
X9091491Y-15071627D02*
X9081968Y-15100198D01*
X9081968Y-15100198D02*
X8967682Y-15214484D01*
X8967682Y-15214484D02*
X9091491Y-15214484D01*
X9158158Y-15014484D02*
X9291491Y-15014484D01*
X9291491Y-15014484D02*
X9205777Y-15214484D01*
X9453396Y-15014484D02*
X9415301Y-15014484D01*
X9415301Y-15014484D02*
X9396253Y-15024008D01*
X9396253Y-15024008D02*
X9386729Y-15033531D01*
X9386729Y-15033531D02*
X9367682Y-15062103D01*
X9367682Y-15062103D02*
X9358158Y-15100198D01*
X9358158Y-15100198D02*
X9358158Y-15176388D01*
X9358158Y-15176388D02*
X9367682Y-15195436D01*
X9367682Y-15195436D02*
X9377206Y-15204960D01*
X9377206Y-15204960D02*
X9396253Y-15214484D01*
X9396253Y-15214484D02*
X9434349Y-15214484D01*
X9434349Y-15214484D02*
X9453396Y-15204960D01*
X9453396Y-15204960D02*
X9462920Y-15195436D01*
X9462920Y-15195436D02*
X9472444Y-15176388D01*
X9472444Y-15176388D02*
X9472444Y-15128769D01*
X9472444Y-15128769D02*
X9462920Y-15109722D01*
X9462920Y-15109722D02*
X9453396Y-15100198D01*
X9453396Y-15100198D02*
X9434349Y-15090674D01*
X9434349Y-15090674D02*
X9396253Y-15090674D01*
X9396253Y-15090674D02*
X9377206Y-15100198D01*
X9377206Y-15100198D02*
X9367682Y-15109722D01*
X9367682Y-15109722D02*
X9358158Y-15128769D01*
X9548634Y-15014484D02*
X9548634Y-15052579D01*
X9624825Y-15014484D02*
X9624825Y-15052579D01*
X9920063Y-15290674D02*
X9910539Y-15281150D01*
X9910539Y-15281150D02*
X9891491Y-15252579D01*
X9891491Y-15252579D02*
X9881968Y-15233531D01*
X9881968Y-15233531D02*
X9872444Y-15204960D01*
X9872444Y-15204960D02*
X9862920Y-15157341D01*
X9862920Y-15157341D02*
X9862920Y-15119246D01*
X9862920Y-15119246D02*
X9872444Y-15071627D01*
X9872444Y-15071627D02*
X9881968Y-15043055D01*
X9881968Y-15043055D02*
X9891491Y-15024008D01*
X9891491Y-15024008D02*
X9910539Y-14995436D01*
X9910539Y-14995436D02*
X9920063Y-14985912D01*
X10034349Y-15014484D02*
X10053396Y-15014484D01*
X10053396Y-15014484D02*
X10072444Y-15024008D01*
X10072444Y-15024008D02*
X10081968Y-15033531D01*
X10081968Y-15033531D02*
X10091491Y-15052579D01*
X10091491Y-15052579D02*
X10101015Y-15090674D01*
X10101015Y-15090674D02*
X10101015Y-15138293D01*
X10101015Y-15138293D02*
X10091491Y-15176388D01*
X10091491Y-15176388D02*
X10081968Y-15195436D01*
X10081968Y-15195436D02*
X10072444Y-15204960D01*
X10072444Y-15204960D02*
X10053396Y-15214484D01*
X10053396Y-15214484D02*
X10034349Y-15214484D01*
X10034349Y-15214484D02*
X10015301Y-15204960D01*
X10015301Y-15204960D02*
X10005777Y-15195436D01*
X10005777Y-15195436D02*
X9996253Y-15176388D01*
X9996253Y-15176388D02*
X9986730Y-15138293D01*
X9986730Y-15138293D02*
X9986730Y-15090674D01*
X9986730Y-15090674D02*
X9996253Y-15052579D01*
X9996253Y-15052579D02*
X10005777Y-15033531D01*
X10005777Y-15033531D02*
X10015301Y-15024008D01*
X10015301Y-15024008D02*
X10034349Y-15014484D01*
X10339111Y-15214484D02*
X10339111Y-15014484D01*
X10424825Y-15214484D02*
X10424825Y-15109722D01*
X10424825Y-15109722D02*
X10415301Y-15090674D01*
X10415301Y-15090674D02*
X10396253Y-15081150D01*
X10396253Y-15081150D02*
X10367682Y-15081150D01*
X10367682Y-15081150D02*
X10348634Y-15090674D01*
X10348634Y-15090674D02*
X10339111Y-15100198D01*
X10548634Y-15214484D02*
X10529587Y-15204960D01*
X10529587Y-15204960D02*
X10520063Y-15195436D01*
X10520063Y-15195436D02*
X10510539Y-15176388D01*
X10510539Y-15176388D02*
X10510539Y-15119246D01*
X10510539Y-15119246D02*
X10520063Y-15100198D01*
X10520063Y-15100198D02*
X10529587Y-15090674D01*
X10529587Y-15090674D02*
X10548634Y-15081150D01*
X10548634Y-15081150D02*
X10577206Y-15081150D01*
X10577206Y-15081150D02*
X10596253Y-15090674D01*
X10596253Y-15090674D02*
X10605777Y-15100198D01*
X10605777Y-15100198D02*
X10615301Y-15119246D01*
X10615301Y-15119246D02*
X10615301Y-15176388D01*
X10615301Y-15176388D02*
X10605777Y-15195436D01*
X10605777Y-15195436D02*
X10596253Y-15204960D01*
X10596253Y-15204960D02*
X10577206Y-15214484D01*
X10577206Y-15214484D02*
X10548634Y-15214484D01*
X10729587Y-15214484D02*
X10710539Y-15204960D01*
X10710539Y-15204960D02*
X10701015Y-15185912D01*
X10701015Y-15185912D02*
X10701015Y-15014484D01*
X10881968Y-15204960D02*
X10862920Y-15214484D01*
X10862920Y-15214484D02*
X10824825Y-15214484D01*
X10824825Y-15214484D02*
X10805777Y-15204960D01*
X10805777Y-15204960D02*
X10796253Y-15185912D01*
X10796253Y-15185912D02*
X10796253Y-15109722D01*
X10796253Y-15109722D02*
X10805777Y-15090674D01*
X10805777Y-15090674D02*
X10824825Y-15081150D01*
X10824825Y-15081150D02*
X10862920Y-15081150D01*
X10862920Y-15081150D02*
X10881968Y-15090674D01*
X10881968Y-15090674D02*
X10891492Y-15109722D01*
X10891492Y-15109722D02*
X10891492Y-15128769D01*
X10891492Y-15128769D02*
X10796253Y-15147817D01*
X10967682Y-15204960D02*
X10986730Y-15214484D01*
X10986730Y-15214484D02*
X11024825Y-15214484D01*
X11024825Y-15214484D02*
X11043873Y-15204960D01*
X11043873Y-15204960D02*
X11053396Y-15185912D01*
X11053396Y-15185912D02*
X11053396Y-15176388D01*
X11053396Y-15176388D02*
X11043873Y-15157341D01*
X11043873Y-15157341D02*
X11024825Y-15147817D01*
X11024825Y-15147817D02*
X10996253Y-15147817D01*
X10996253Y-15147817D02*
X10977206Y-15138293D01*
X10977206Y-15138293D02*
X10967682Y-15119246D01*
X10967682Y-15119246D02*
X10967682Y-15109722D01*
X10967682Y-15109722D02*
X10977206Y-15090674D01*
X10977206Y-15090674D02*
X10996253Y-15081150D01*
X10996253Y-15081150D02*
X11024825Y-15081150D01*
X11024825Y-15081150D02*
X11043873Y-15090674D01*
X11291492Y-15138293D02*
X11443873Y-15138293D01*
X11367682Y-15214484D02*
X11367682Y-15062103D01*
X11681968Y-15033531D02*
X11691492Y-15024008D01*
X11691492Y-15024008D02*
X11710539Y-15014484D01*
X11710539Y-15014484D02*
X11758158Y-15014484D01*
X11758158Y-15014484D02*
X11777206Y-15024008D01*
X11777206Y-15024008D02*
X11786730Y-15033531D01*
X11786730Y-15033531D02*
X11796253Y-15052579D01*
X11796253Y-15052579D02*
X11796253Y-15071627D01*
X11796253Y-15071627D02*
X11786730Y-15100198D01*
X11786730Y-15100198D02*
X11672444Y-15214484D01*
X11672444Y-15214484D02*
X11796253Y-15214484D01*
X12024825Y-15204960D02*
X12043873Y-15214484D01*
X12043873Y-15214484D02*
X12081968Y-15214484D01*
X12081968Y-15214484D02*
X12101015Y-15204960D01*
X12101015Y-15204960D02*
X12110539Y-15185912D01*
X12110539Y-15185912D02*
X12110539Y-15176388D01*
X12110539Y-15176388D02*
X12101015Y-15157341D01*
X12101015Y-15157341D02*
X12081968Y-15147817D01*
X12081968Y-15147817D02*
X12053396Y-15147817D01*
X12053396Y-15147817D02*
X12034349Y-15138293D01*
X12034349Y-15138293D02*
X12024825Y-15119246D01*
X12024825Y-15119246D02*
X12024825Y-15109722D01*
X12024825Y-15109722D02*
X12034349Y-15090674D01*
X12034349Y-15090674D02*
X12053396Y-15081150D01*
X12053396Y-15081150D02*
X12081968Y-15081150D01*
X12081968Y-15081150D02*
X12101015Y-15090674D01*
X12224825Y-15214484D02*
X12205777Y-15204960D01*
X12205777Y-15204960D02*
X12196254Y-15185912D01*
X12196254Y-15185912D02*
X12196254Y-15014484D01*
X12329587Y-15214484D02*
X12310539Y-15204960D01*
X12310539Y-15204960D02*
X12301015Y-15195436D01*
X12301015Y-15195436D02*
X12291492Y-15176388D01*
X12291492Y-15176388D02*
X12291492Y-15119246D01*
X12291492Y-15119246D02*
X12301015Y-15100198D01*
X12301015Y-15100198D02*
X12310539Y-15090674D01*
X12310539Y-15090674D02*
X12329587Y-15081150D01*
X12329587Y-15081150D02*
X12358158Y-15081150D01*
X12358158Y-15081150D02*
X12377206Y-15090674D01*
X12377206Y-15090674D02*
X12386730Y-15100198D01*
X12386730Y-15100198D02*
X12396254Y-15119246D01*
X12396254Y-15119246D02*
X12396254Y-15176388D01*
X12396254Y-15176388D02*
X12386730Y-15195436D01*
X12386730Y-15195436D02*
X12377206Y-15204960D01*
X12377206Y-15204960D02*
X12358158Y-15214484D01*
X12358158Y-15214484D02*
X12329587Y-15214484D01*
X12453396Y-15081150D02*
X12529587Y-15081150D01*
X12481968Y-15014484D02*
X12481968Y-15185912D01*
X12481968Y-15185912D02*
X12491492Y-15204960D01*
X12491492Y-15204960D02*
X12510539Y-15214484D01*
X12510539Y-15214484D02*
X12529587Y-15214484D01*
X12586730Y-15204960D02*
X12605777Y-15214484D01*
X12605777Y-15214484D02*
X12643873Y-15214484D01*
X12643873Y-15214484D02*
X12662920Y-15204960D01*
X12662920Y-15204960D02*
X12672444Y-15185912D01*
X12672444Y-15185912D02*
X12672444Y-15176388D01*
X12672444Y-15176388D02*
X12662920Y-15157341D01*
X12662920Y-15157341D02*
X12643873Y-15147817D01*
X12643873Y-15147817D02*
X12615301Y-15147817D01*
X12615301Y-15147817D02*
X12596254Y-15138293D01*
X12596254Y-15138293D02*
X12586730Y-15119246D01*
X12586730Y-15119246D02*
X12586730Y-15109722D01*
X12586730Y-15109722D02*
X12596254Y-15090674D01*
X12596254Y-15090674D02*
X12615301Y-15081150D01*
X12615301Y-15081150D02*
X12643873Y-15081150D01*
X12643873Y-15081150D02*
X12662920Y-15090674D01*
X12739111Y-15290674D02*
X12748635Y-15281150D01*
X12748635Y-15281150D02*
X12767682Y-15252579D01*
X12767682Y-15252579D02*
X12777206Y-15233531D01*
X12777206Y-15233531D02*
X12786730Y-15204960D01*
X12786730Y-15204960D02*
X12796254Y-15157341D01*
X12796254Y-15157341D02*
X12796254Y-15119246D01*
X12796254Y-15119246D02*
X12786730Y-15071627D01*
X12786730Y-15071627D02*
X12777206Y-15043055D01*
X12777206Y-15043055D02*
X12767682Y-15024008D01*
X12767682Y-15024008D02*
X12748635Y-14995436D01*
X12748635Y-14995436D02*
X12739111Y-14985912D01*
D15*
X6334017Y-15413517D02*
X6334017Y-15360483D01*
X6280983Y-15360483D01*
X6280983Y-15413517D01*
X6334017Y-15413517D01*
D11*
X6643872Y-15278484D02*
X6662920Y-15278484D01*
X6662920Y-15278484D02*
X6681967Y-15288008D01*
X6681967Y-15288008D02*
X6691491Y-15297531D01*
X6691491Y-15297531D02*
X6701015Y-15316579D01*
X6701015Y-15316579D02*
X6710539Y-15354674D01*
X6710539Y-15354674D02*
X6710539Y-15402293D01*
X6710539Y-15402293D02*
X6701015Y-15440388D01*
X6701015Y-15440388D02*
X6691491Y-15459436D01*
X6691491Y-15459436D02*
X6681967Y-15468960D01*
X6681967Y-15468960D02*
X6662920Y-15478484D01*
X6662920Y-15478484D02*
X6643872Y-15478484D01*
X6643872Y-15478484D02*
X6624824Y-15468960D01*
X6624824Y-15468960D02*
X6615301Y-15459436D01*
X6615301Y-15459436D02*
X6605777Y-15440388D01*
X6605777Y-15440388D02*
X6596253Y-15402293D01*
X6596253Y-15402293D02*
X6596253Y-15354674D01*
X6596253Y-15354674D02*
X6605777Y-15316579D01*
X6605777Y-15316579D02*
X6615301Y-15297531D01*
X6615301Y-15297531D02*
X6624824Y-15288008D01*
X6624824Y-15288008D02*
X6643872Y-15278484D01*
X6796253Y-15459436D02*
X6805777Y-15468960D01*
X6805777Y-15468960D02*
X6796253Y-15478484D01*
X6796253Y-15478484D02*
X6786729Y-15468960D01*
X6786729Y-15468960D02*
X6796253Y-15459436D01*
X6796253Y-15459436D02*
X6796253Y-15478484D01*
X6872443Y-15278484D02*
X7005777Y-15278484D01*
X7005777Y-15278484D02*
X6920062Y-15478484D01*
X7177205Y-15278484D02*
X7081967Y-15278484D01*
X7081967Y-15278484D02*
X7072443Y-15373722D01*
X7072443Y-15373722D02*
X7081967Y-15364198D01*
X7081967Y-15364198D02*
X7101015Y-15354674D01*
X7101015Y-15354674D02*
X7148634Y-15354674D01*
X7148634Y-15354674D02*
X7167682Y-15364198D01*
X7167682Y-15364198D02*
X7177205Y-15373722D01*
X7177205Y-15373722D02*
X7186729Y-15392769D01*
X7186729Y-15392769D02*
X7186729Y-15440388D01*
X7186729Y-15440388D02*
X7177205Y-15459436D01*
X7177205Y-15459436D02*
X7167682Y-15468960D01*
X7167682Y-15468960D02*
X7148634Y-15478484D01*
X7148634Y-15478484D02*
X7101015Y-15478484D01*
X7101015Y-15478484D02*
X7081967Y-15468960D01*
X7081967Y-15468960D02*
X7072443Y-15459436D01*
X7310539Y-15278484D02*
X7329586Y-15278484D01*
X7329586Y-15278484D02*
X7348634Y-15288008D01*
X7348634Y-15288008D02*
X7358158Y-15297531D01*
X7358158Y-15297531D02*
X7367682Y-15316579D01*
X7367682Y-15316579D02*
X7377205Y-15354674D01*
X7377205Y-15354674D02*
X7377205Y-15402293D01*
X7377205Y-15402293D02*
X7367682Y-15440388D01*
X7367682Y-15440388D02*
X7358158Y-15459436D01*
X7358158Y-15459436D02*
X7348634Y-15468960D01*
X7348634Y-15468960D02*
X7329586Y-15478484D01*
X7329586Y-15478484D02*
X7310539Y-15478484D01*
X7310539Y-15478484D02*
X7291491Y-15468960D01*
X7291491Y-15468960D02*
X7281967Y-15459436D01*
X7281967Y-15459436D02*
X7272443Y-15440388D01*
X7272443Y-15440388D02*
X7262920Y-15402293D01*
X7262920Y-15402293D02*
X7262920Y-15354674D01*
X7262920Y-15354674D02*
X7272443Y-15316579D01*
X7272443Y-15316579D02*
X7281967Y-15297531D01*
X7281967Y-15297531D02*
X7291491Y-15288008D01*
X7291491Y-15288008D02*
X7310539Y-15278484D01*
X7462920Y-15478484D02*
X7462920Y-15345150D01*
X7462920Y-15364198D02*
X7472443Y-15354674D01*
X7472443Y-15354674D02*
X7491491Y-15345150D01*
X7491491Y-15345150D02*
X7520063Y-15345150D01*
X7520063Y-15345150D02*
X7539110Y-15354674D01*
X7539110Y-15354674D02*
X7548634Y-15373722D01*
X7548634Y-15373722D02*
X7548634Y-15478484D01*
X7548634Y-15373722D02*
X7558158Y-15354674D01*
X7558158Y-15354674D02*
X7577205Y-15345150D01*
X7577205Y-15345150D02*
X7605777Y-15345150D01*
X7605777Y-15345150D02*
X7624824Y-15354674D01*
X7624824Y-15354674D02*
X7634348Y-15373722D01*
X7634348Y-15373722D02*
X7634348Y-15478484D01*
X7729586Y-15478484D02*
X7729586Y-15345150D01*
X7729586Y-15364198D02*
X7739110Y-15354674D01*
X7739110Y-15354674D02*
X7758158Y-15345150D01*
X7758158Y-15345150D02*
X7786729Y-15345150D01*
X7786729Y-15345150D02*
X7805777Y-15354674D01*
X7805777Y-15354674D02*
X7815301Y-15373722D01*
X7815301Y-15373722D02*
X7815301Y-15478484D01*
X7815301Y-15373722D02*
X7824824Y-15354674D01*
X7824824Y-15354674D02*
X7843872Y-15345150D01*
X7843872Y-15345150D02*
X7872443Y-15345150D01*
X7872443Y-15345150D02*
X7891491Y-15354674D01*
X7891491Y-15354674D02*
X7901015Y-15373722D01*
X7901015Y-15373722D02*
X7901015Y-15478484D01*
X8291491Y-15268960D02*
X8120063Y-15526103D01*
X8548634Y-15278484D02*
X8567682Y-15278484D01*
X8567682Y-15278484D02*
X8586729Y-15288008D01*
X8586729Y-15288008D02*
X8596253Y-15297531D01*
X8596253Y-15297531D02*
X8605777Y-15316579D01*
X8605777Y-15316579D02*
X8615301Y-15354674D01*
X8615301Y-15354674D02*
X8615301Y-15402293D01*
X8615301Y-15402293D02*
X8605777Y-15440388D01*
X8605777Y-15440388D02*
X8596253Y-15459436D01*
X8596253Y-15459436D02*
X8586729Y-15468960D01*
X8586729Y-15468960D02*
X8567682Y-15478484D01*
X8567682Y-15478484D02*
X8548634Y-15478484D01*
X8548634Y-15478484D02*
X8529587Y-15468960D01*
X8529587Y-15468960D02*
X8520063Y-15459436D01*
X8520063Y-15459436D02*
X8510539Y-15440388D01*
X8510539Y-15440388D02*
X8501015Y-15402293D01*
X8501015Y-15402293D02*
X8501015Y-15354674D01*
X8501015Y-15354674D02*
X8510539Y-15316579D01*
X8510539Y-15316579D02*
X8520063Y-15297531D01*
X8520063Y-15297531D02*
X8529587Y-15288008D01*
X8529587Y-15288008D02*
X8548634Y-15278484D01*
X8701015Y-15459436D02*
X8710539Y-15468960D01*
X8710539Y-15468960D02*
X8701015Y-15478484D01*
X8701015Y-15478484D02*
X8691491Y-15468960D01*
X8691491Y-15468960D02*
X8701015Y-15459436D01*
X8701015Y-15459436D02*
X8701015Y-15478484D01*
X8834348Y-15278484D02*
X8853396Y-15278484D01*
X8853396Y-15278484D02*
X8872444Y-15288008D01*
X8872444Y-15288008D02*
X8881968Y-15297531D01*
X8881968Y-15297531D02*
X8891491Y-15316579D01*
X8891491Y-15316579D02*
X8901015Y-15354674D01*
X8901015Y-15354674D02*
X8901015Y-15402293D01*
X8901015Y-15402293D02*
X8891491Y-15440388D01*
X8891491Y-15440388D02*
X8881968Y-15459436D01*
X8881968Y-15459436D02*
X8872444Y-15468960D01*
X8872444Y-15468960D02*
X8853396Y-15478484D01*
X8853396Y-15478484D02*
X8834348Y-15478484D01*
X8834348Y-15478484D02*
X8815301Y-15468960D01*
X8815301Y-15468960D02*
X8805777Y-15459436D01*
X8805777Y-15459436D02*
X8796253Y-15440388D01*
X8796253Y-15440388D02*
X8786729Y-15402293D01*
X8786729Y-15402293D02*
X8786729Y-15354674D01*
X8786729Y-15354674D02*
X8796253Y-15316579D01*
X8796253Y-15316579D02*
X8805777Y-15297531D01*
X8805777Y-15297531D02*
X8815301Y-15288008D01*
X8815301Y-15288008D02*
X8834348Y-15278484D01*
X8977206Y-15297531D02*
X8986729Y-15288008D01*
X8986729Y-15288008D02*
X9005777Y-15278484D01*
X9005777Y-15278484D02*
X9053396Y-15278484D01*
X9053396Y-15278484D02*
X9072444Y-15288008D01*
X9072444Y-15288008D02*
X9081968Y-15297531D01*
X9081968Y-15297531D02*
X9091491Y-15316579D01*
X9091491Y-15316579D02*
X9091491Y-15335627D01*
X9091491Y-15335627D02*
X9081968Y-15364198D01*
X9081968Y-15364198D02*
X8967682Y-15478484D01*
X8967682Y-15478484D02*
X9091491Y-15478484D01*
X9186729Y-15478484D02*
X9224825Y-15478484D01*
X9224825Y-15478484D02*
X9243872Y-15468960D01*
X9243872Y-15468960D02*
X9253396Y-15459436D01*
X9253396Y-15459436D02*
X9272444Y-15430865D01*
X9272444Y-15430865D02*
X9281968Y-15392769D01*
X9281968Y-15392769D02*
X9281968Y-15316579D01*
X9281968Y-15316579D02*
X9272444Y-15297531D01*
X9272444Y-15297531D02*
X9262920Y-15288008D01*
X9262920Y-15288008D02*
X9243872Y-15278484D01*
X9243872Y-15278484D02*
X9205777Y-15278484D01*
X9205777Y-15278484D02*
X9186729Y-15288008D01*
X9186729Y-15288008D02*
X9177206Y-15297531D01*
X9177206Y-15297531D02*
X9167682Y-15316579D01*
X9167682Y-15316579D02*
X9167682Y-15364198D01*
X9167682Y-15364198D02*
X9177206Y-15383246D01*
X9177206Y-15383246D02*
X9186729Y-15392769D01*
X9186729Y-15392769D02*
X9205777Y-15402293D01*
X9205777Y-15402293D02*
X9243872Y-15402293D01*
X9243872Y-15402293D02*
X9262920Y-15392769D01*
X9262920Y-15392769D02*
X9272444Y-15383246D01*
X9272444Y-15383246D02*
X9281968Y-15364198D01*
X9462920Y-15278484D02*
X9367682Y-15278484D01*
X9367682Y-15278484D02*
X9358158Y-15373722D01*
X9358158Y-15373722D02*
X9367682Y-15364198D01*
X9367682Y-15364198D02*
X9386729Y-15354674D01*
X9386729Y-15354674D02*
X9434349Y-15354674D01*
X9434349Y-15354674D02*
X9453396Y-15364198D01*
X9453396Y-15364198D02*
X9462920Y-15373722D01*
X9462920Y-15373722D02*
X9472444Y-15392769D01*
X9472444Y-15392769D02*
X9472444Y-15440388D01*
X9472444Y-15440388D02*
X9462920Y-15459436D01*
X9462920Y-15459436D02*
X9453396Y-15468960D01*
X9453396Y-15468960D02*
X9434349Y-15478484D01*
X9434349Y-15478484D02*
X9386729Y-15478484D01*
X9386729Y-15478484D02*
X9367682Y-15468960D01*
X9367682Y-15468960D02*
X9358158Y-15459436D01*
X9548634Y-15278484D02*
X9548634Y-15316579D01*
X9624825Y-15278484D02*
X9624825Y-15316579D01*
X9920063Y-15554674D02*
X9910539Y-15545150D01*
X9910539Y-15545150D02*
X9891491Y-15516579D01*
X9891491Y-15516579D02*
X9881968Y-15497531D01*
X9881968Y-15497531D02*
X9872444Y-15468960D01*
X9872444Y-15468960D02*
X9862920Y-15421341D01*
X9862920Y-15421341D02*
X9862920Y-15383246D01*
X9862920Y-15383246D02*
X9872444Y-15335627D01*
X9872444Y-15335627D02*
X9881968Y-15307055D01*
X9881968Y-15307055D02*
X9891491Y-15288008D01*
X9891491Y-15288008D02*
X9910539Y-15259436D01*
X9910539Y-15259436D02*
X9920063Y-15249912D01*
X9986730Y-15297531D02*
X9996253Y-15288008D01*
X9996253Y-15288008D02*
X10015301Y-15278484D01*
X10015301Y-15278484D02*
X10062920Y-15278484D01*
X10062920Y-15278484D02*
X10081968Y-15288008D01*
X10081968Y-15288008D02*
X10091491Y-15297531D01*
X10091491Y-15297531D02*
X10101015Y-15316579D01*
X10101015Y-15316579D02*
X10101015Y-15335627D01*
X10101015Y-15335627D02*
X10091491Y-15364198D01*
X10091491Y-15364198D02*
X9977206Y-15478484D01*
X9977206Y-15478484D02*
X10101015Y-15478484D01*
X10177206Y-15297531D02*
X10186730Y-15288008D01*
X10186730Y-15288008D02*
X10205777Y-15278484D01*
X10205777Y-15278484D02*
X10253396Y-15278484D01*
X10253396Y-15278484D02*
X10272444Y-15288008D01*
X10272444Y-15288008D02*
X10281968Y-15297531D01*
X10281968Y-15297531D02*
X10291491Y-15316579D01*
X10291491Y-15316579D02*
X10291491Y-15335627D01*
X10291491Y-15335627D02*
X10281968Y-15364198D01*
X10281968Y-15364198D02*
X10167682Y-15478484D01*
X10167682Y-15478484D02*
X10291491Y-15478484D01*
X10529587Y-15478484D02*
X10529587Y-15278484D01*
X10615301Y-15478484D02*
X10615301Y-15373722D01*
X10615301Y-15373722D02*
X10605777Y-15354674D01*
X10605777Y-15354674D02*
X10586730Y-15345150D01*
X10586730Y-15345150D02*
X10558158Y-15345150D01*
X10558158Y-15345150D02*
X10539111Y-15354674D01*
X10539111Y-15354674D02*
X10529587Y-15364198D01*
X10739111Y-15478484D02*
X10720063Y-15468960D01*
X10720063Y-15468960D02*
X10710539Y-15459436D01*
X10710539Y-15459436D02*
X10701015Y-15440388D01*
X10701015Y-15440388D02*
X10701015Y-15383246D01*
X10701015Y-15383246D02*
X10710539Y-15364198D01*
X10710539Y-15364198D02*
X10720063Y-15354674D01*
X10720063Y-15354674D02*
X10739111Y-15345150D01*
X10739111Y-15345150D02*
X10767682Y-15345150D01*
X10767682Y-15345150D02*
X10786730Y-15354674D01*
X10786730Y-15354674D02*
X10796253Y-15364198D01*
X10796253Y-15364198D02*
X10805777Y-15383246D01*
X10805777Y-15383246D02*
X10805777Y-15440388D01*
X10805777Y-15440388D02*
X10796253Y-15459436D01*
X10796253Y-15459436D02*
X10786730Y-15468960D01*
X10786730Y-15468960D02*
X10767682Y-15478484D01*
X10767682Y-15478484D02*
X10739111Y-15478484D01*
X10920063Y-15478484D02*
X10901015Y-15468960D01*
X10901015Y-15468960D02*
X10891492Y-15449912D01*
X10891492Y-15449912D02*
X10891492Y-15278484D01*
X11072444Y-15468960D02*
X11053396Y-15478484D01*
X11053396Y-15478484D02*
X11015301Y-15478484D01*
X11015301Y-15478484D02*
X10996253Y-15468960D01*
X10996253Y-15468960D02*
X10986730Y-15449912D01*
X10986730Y-15449912D02*
X10986730Y-15373722D01*
X10986730Y-15373722D02*
X10996253Y-15354674D01*
X10996253Y-15354674D02*
X11015301Y-15345150D01*
X11015301Y-15345150D02*
X11053396Y-15345150D01*
X11053396Y-15345150D02*
X11072444Y-15354674D01*
X11072444Y-15354674D02*
X11081968Y-15373722D01*
X11081968Y-15373722D02*
X11081968Y-15392769D01*
X11081968Y-15392769D02*
X10986730Y-15411817D01*
X11158158Y-15468960D02*
X11177206Y-15478484D01*
X11177206Y-15478484D02*
X11215301Y-15478484D01*
X11215301Y-15478484D02*
X11234349Y-15468960D01*
X11234349Y-15468960D02*
X11243872Y-15449912D01*
X11243872Y-15449912D02*
X11243872Y-15440388D01*
X11243872Y-15440388D02*
X11234349Y-15421341D01*
X11234349Y-15421341D02*
X11215301Y-15411817D01*
X11215301Y-15411817D02*
X11186730Y-15411817D01*
X11186730Y-15411817D02*
X11167682Y-15402293D01*
X11167682Y-15402293D02*
X11158158Y-15383246D01*
X11158158Y-15383246D02*
X11158158Y-15373722D01*
X11158158Y-15373722D02*
X11167682Y-15354674D01*
X11167682Y-15354674D02*
X11186730Y-15345150D01*
X11186730Y-15345150D02*
X11215301Y-15345150D01*
X11215301Y-15345150D02*
X11234349Y-15354674D01*
X11310539Y-15554674D02*
X11320063Y-15545150D01*
X11320063Y-15545150D02*
X11339111Y-15516579D01*
X11339111Y-15516579D02*
X11348634Y-15497531D01*
X11348634Y-15497531D02*
X11358158Y-15468960D01*
X11358158Y-15468960D02*
X11367682Y-15421341D01*
X11367682Y-15421341D02*
X11367682Y-15383246D01*
X11367682Y-15383246D02*
X11358158Y-15335627D01*
X11358158Y-15335627D02*
X11348634Y-15307055D01*
X11348634Y-15307055D02*
X11339111Y-15288008D01*
X11339111Y-15288008D02*
X11320063Y-15259436D01*
X11320063Y-15259436D02*
X11310539Y-15249912D01*
D16*
X6305000Y-15691000D02*
X6345000Y-15651000D01*
X6305000Y-15611000D01*
X6265000Y-15651000D01*
X6305000Y-15691000D01*
D11*
X6643872Y-15542484D02*
X6662920Y-15542484D01*
X6662920Y-15542484D02*
X6681967Y-15552008D01*
X6681967Y-15552008D02*
X6691491Y-15561531D01*
X6691491Y-15561531D02*
X6701015Y-15580579D01*
X6701015Y-15580579D02*
X6710539Y-15618674D01*
X6710539Y-15618674D02*
X6710539Y-15666293D01*
X6710539Y-15666293D02*
X6701015Y-15704388D01*
X6701015Y-15704388D02*
X6691491Y-15723436D01*
X6691491Y-15723436D02*
X6681967Y-15732960D01*
X6681967Y-15732960D02*
X6662920Y-15742484D01*
X6662920Y-15742484D02*
X6643872Y-15742484D01*
X6643872Y-15742484D02*
X6624824Y-15732960D01*
X6624824Y-15732960D02*
X6615301Y-15723436D01*
X6615301Y-15723436D02*
X6605777Y-15704388D01*
X6605777Y-15704388D02*
X6596253Y-15666293D01*
X6596253Y-15666293D02*
X6596253Y-15618674D01*
X6596253Y-15618674D02*
X6605777Y-15580579D01*
X6605777Y-15580579D02*
X6615301Y-15561531D01*
X6615301Y-15561531D02*
X6624824Y-15552008D01*
X6624824Y-15552008D02*
X6643872Y-15542484D01*
X6796253Y-15723436D02*
X6805777Y-15732960D01*
X6805777Y-15732960D02*
X6796253Y-15742484D01*
X6796253Y-15742484D02*
X6786729Y-15732960D01*
X6786729Y-15732960D02*
X6796253Y-15723436D01*
X6796253Y-15723436D02*
X6796253Y-15742484D01*
X6920062Y-15628198D02*
X6901015Y-15618674D01*
X6901015Y-15618674D02*
X6891491Y-15609150D01*
X6891491Y-15609150D02*
X6881967Y-15590103D01*
X6881967Y-15590103D02*
X6881967Y-15580579D01*
X6881967Y-15580579D02*
X6891491Y-15561531D01*
X6891491Y-15561531D02*
X6901015Y-15552008D01*
X6901015Y-15552008D02*
X6920062Y-15542484D01*
X6920062Y-15542484D02*
X6958158Y-15542484D01*
X6958158Y-15542484D02*
X6977205Y-15552008D01*
X6977205Y-15552008D02*
X6986729Y-15561531D01*
X6986729Y-15561531D02*
X6996253Y-15580579D01*
X6996253Y-15580579D02*
X6996253Y-15590103D01*
X6996253Y-15590103D02*
X6986729Y-15609150D01*
X6986729Y-15609150D02*
X6977205Y-15618674D01*
X6977205Y-15618674D02*
X6958158Y-15628198D01*
X6958158Y-15628198D02*
X6920062Y-15628198D01*
X6920062Y-15628198D02*
X6901015Y-15637722D01*
X6901015Y-15637722D02*
X6891491Y-15647246D01*
X6891491Y-15647246D02*
X6881967Y-15666293D01*
X6881967Y-15666293D02*
X6881967Y-15704388D01*
X6881967Y-15704388D02*
X6891491Y-15723436D01*
X6891491Y-15723436D02*
X6901015Y-15732960D01*
X6901015Y-15732960D02*
X6920062Y-15742484D01*
X6920062Y-15742484D02*
X6958158Y-15742484D01*
X6958158Y-15742484D02*
X6977205Y-15732960D01*
X6977205Y-15732960D02*
X6986729Y-15723436D01*
X6986729Y-15723436D02*
X6996253Y-15704388D01*
X6996253Y-15704388D02*
X6996253Y-15666293D01*
X6996253Y-15666293D02*
X6986729Y-15647246D01*
X6986729Y-15647246D02*
X6977205Y-15637722D01*
X6977205Y-15637722D02*
X6958158Y-15628198D01*
X7120062Y-15542484D02*
X7139110Y-15542484D01*
X7139110Y-15542484D02*
X7158158Y-15552008D01*
X7158158Y-15552008D02*
X7167682Y-15561531D01*
X7167682Y-15561531D02*
X7177205Y-15580579D01*
X7177205Y-15580579D02*
X7186729Y-15618674D01*
X7186729Y-15618674D02*
X7186729Y-15666293D01*
X7186729Y-15666293D02*
X7177205Y-15704388D01*
X7177205Y-15704388D02*
X7167682Y-15723436D01*
X7167682Y-15723436D02*
X7158158Y-15732960D01*
X7158158Y-15732960D02*
X7139110Y-15742484D01*
X7139110Y-15742484D02*
X7120062Y-15742484D01*
X7120062Y-15742484D02*
X7101015Y-15732960D01*
X7101015Y-15732960D02*
X7091491Y-15723436D01*
X7091491Y-15723436D02*
X7081967Y-15704388D01*
X7081967Y-15704388D02*
X7072443Y-15666293D01*
X7072443Y-15666293D02*
X7072443Y-15618674D01*
X7072443Y-15618674D02*
X7081967Y-15580579D01*
X7081967Y-15580579D02*
X7091491Y-15561531D01*
X7091491Y-15561531D02*
X7101015Y-15552008D01*
X7101015Y-15552008D02*
X7120062Y-15542484D01*
X7310539Y-15542484D02*
X7329586Y-15542484D01*
X7329586Y-15542484D02*
X7348634Y-15552008D01*
X7348634Y-15552008D02*
X7358158Y-15561531D01*
X7358158Y-15561531D02*
X7367682Y-15580579D01*
X7367682Y-15580579D02*
X7377205Y-15618674D01*
X7377205Y-15618674D02*
X7377205Y-15666293D01*
X7377205Y-15666293D02*
X7367682Y-15704388D01*
X7367682Y-15704388D02*
X7358158Y-15723436D01*
X7358158Y-15723436D02*
X7348634Y-15732960D01*
X7348634Y-15732960D02*
X7329586Y-15742484D01*
X7329586Y-15742484D02*
X7310539Y-15742484D01*
X7310539Y-15742484D02*
X7291491Y-15732960D01*
X7291491Y-15732960D02*
X7281967Y-15723436D01*
X7281967Y-15723436D02*
X7272443Y-15704388D01*
X7272443Y-15704388D02*
X7262920Y-15666293D01*
X7262920Y-15666293D02*
X7262920Y-15618674D01*
X7262920Y-15618674D02*
X7272443Y-15580579D01*
X7272443Y-15580579D02*
X7281967Y-15561531D01*
X7281967Y-15561531D02*
X7291491Y-15552008D01*
X7291491Y-15552008D02*
X7310539Y-15542484D01*
X7462920Y-15742484D02*
X7462920Y-15609150D01*
X7462920Y-15628198D02*
X7472443Y-15618674D01*
X7472443Y-15618674D02*
X7491491Y-15609150D01*
X7491491Y-15609150D02*
X7520063Y-15609150D01*
X7520063Y-15609150D02*
X7539110Y-15618674D01*
X7539110Y-15618674D02*
X7548634Y-15637722D01*
X7548634Y-15637722D02*
X7548634Y-15742484D01*
X7548634Y-15637722D02*
X7558158Y-15618674D01*
X7558158Y-15618674D02*
X7577205Y-15609150D01*
X7577205Y-15609150D02*
X7605777Y-15609150D01*
X7605777Y-15609150D02*
X7624824Y-15618674D01*
X7624824Y-15618674D02*
X7634348Y-15637722D01*
X7634348Y-15637722D02*
X7634348Y-15742484D01*
X7729586Y-15742484D02*
X7729586Y-15609150D01*
X7729586Y-15628198D02*
X7739110Y-15618674D01*
X7739110Y-15618674D02*
X7758158Y-15609150D01*
X7758158Y-15609150D02*
X7786729Y-15609150D01*
X7786729Y-15609150D02*
X7805777Y-15618674D01*
X7805777Y-15618674D02*
X7815301Y-15637722D01*
X7815301Y-15637722D02*
X7815301Y-15742484D01*
X7815301Y-15637722D02*
X7824824Y-15618674D01*
X7824824Y-15618674D02*
X7843872Y-15609150D01*
X7843872Y-15609150D02*
X7872443Y-15609150D01*
X7872443Y-15609150D02*
X7891491Y-15618674D01*
X7891491Y-15618674D02*
X7901015Y-15637722D01*
X7901015Y-15637722D02*
X7901015Y-15742484D01*
X8291491Y-15532960D02*
X8120063Y-15790103D01*
X8548634Y-15542484D02*
X8567682Y-15542484D01*
X8567682Y-15542484D02*
X8586729Y-15552008D01*
X8586729Y-15552008D02*
X8596253Y-15561531D01*
X8596253Y-15561531D02*
X8605777Y-15580579D01*
X8605777Y-15580579D02*
X8615301Y-15618674D01*
X8615301Y-15618674D02*
X8615301Y-15666293D01*
X8615301Y-15666293D02*
X8605777Y-15704388D01*
X8605777Y-15704388D02*
X8596253Y-15723436D01*
X8596253Y-15723436D02*
X8586729Y-15732960D01*
X8586729Y-15732960D02*
X8567682Y-15742484D01*
X8567682Y-15742484D02*
X8548634Y-15742484D01*
X8548634Y-15742484D02*
X8529587Y-15732960D01*
X8529587Y-15732960D02*
X8520063Y-15723436D01*
X8520063Y-15723436D02*
X8510539Y-15704388D01*
X8510539Y-15704388D02*
X8501015Y-15666293D01*
X8501015Y-15666293D02*
X8501015Y-15618674D01*
X8501015Y-15618674D02*
X8510539Y-15580579D01*
X8510539Y-15580579D02*
X8520063Y-15561531D01*
X8520063Y-15561531D02*
X8529587Y-15552008D01*
X8529587Y-15552008D02*
X8548634Y-15542484D01*
X8701015Y-15723436D02*
X8710539Y-15732960D01*
X8710539Y-15732960D02*
X8701015Y-15742484D01*
X8701015Y-15742484D02*
X8691491Y-15732960D01*
X8691491Y-15732960D02*
X8701015Y-15723436D01*
X8701015Y-15723436D02*
X8701015Y-15742484D01*
X8834348Y-15542484D02*
X8853396Y-15542484D01*
X8853396Y-15542484D02*
X8872444Y-15552008D01*
X8872444Y-15552008D02*
X8881968Y-15561531D01*
X8881968Y-15561531D02*
X8891491Y-15580579D01*
X8891491Y-15580579D02*
X8901015Y-15618674D01*
X8901015Y-15618674D02*
X8901015Y-15666293D01*
X8901015Y-15666293D02*
X8891491Y-15704388D01*
X8891491Y-15704388D02*
X8881968Y-15723436D01*
X8881968Y-15723436D02*
X8872444Y-15732960D01*
X8872444Y-15732960D02*
X8853396Y-15742484D01*
X8853396Y-15742484D02*
X8834348Y-15742484D01*
X8834348Y-15742484D02*
X8815301Y-15732960D01*
X8815301Y-15732960D02*
X8805777Y-15723436D01*
X8805777Y-15723436D02*
X8796253Y-15704388D01*
X8796253Y-15704388D02*
X8786729Y-15666293D01*
X8786729Y-15666293D02*
X8786729Y-15618674D01*
X8786729Y-15618674D02*
X8796253Y-15580579D01*
X8796253Y-15580579D02*
X8805777Y-15561531D01*
X8805777Y-15561531D02*
X8815301Y-15552008D01*
X8815301Y-15552008D02*
X8834348Y-15542484D01*
X8967682Y-15542484D02*
X9091491Y-15542484D01*
X9091491Y-15542484D02*
X9024825Y-15618674D01*
X9024825Y-15618674D02*
X9053396Y-15618674D01*
X9053396Y-15618674D02*
X9072444Y-15628198D01*
X9072444Y-15628198D02*
X9081968Y-15637722D01*
X9081968Y-15637722D02*
X9091491Y-15656769D01*
X9091491Y-15656769D02*
X9091491Y-15704388D01*
X9091491Y-15704388D02*
X9081968Y-15723436D01*
X9081968Y-15723436D02*
X9072444Y-15732960D01*
X9072444Y-15732960D02*
X9053396Y-15742484D01*
X9053396Y-15742484D02*
X8996253Y-15742484D01*
X8996253Y-15742484D02*
X8977206Y-15732960D01*
X8977206Y-15732960D02*
X8967682Y-15723436D01*
X9281968Y-15742484D02*
X9167682Y-15742484D01*
X9224825Y-15742484D02*
X9224825Y-15542484D01*
X9224825Y-15542484D02*
X9205777Y-15571055D01*
X9205777Y-15571055D02*
X9186729Y-15590103D01*
X9186729Y-15590103D02*
X9167682Y-15599627D01*
X9462920Y-15542484D02*
X9367682Y-15542484D01*
X9367682Y-15542484D02*
X9358158Y-15637722D01*
X9358158Y-15637722D02*
X9367682Y-15628198D01*
X9367682Y-15628198D02*
X9386729Y-15618674D01*
X9386729Y-15618674D02*
X9434349Y-15618674D01*
X9434349Y-15618674D02*
X9453396Y-15628198D01*
X9453396Y-15628198D02*
X9462920Y-15637722D01*
X9462920Y-15637722D02*
X9472444Y-15656769D01*
X9472444Y-15656769D02*
X9472444Y-15704388D01*
X9472444Y-15704388D02*
X9462920Y-15723436D01*
X9462920Y-15723436D02*
X9453396Y-15732960D01*
X9453396Y-15732960D02*
X9434349Y-15742484D01*
X9434349Y-15742484D02*
X9386729Y-15742484D01*
X9386729Y-15742484D02*
X9367682Y-15732960D01*
X9367682Y-15732960D02*
X9358158Y-15723436D01*
X9548634Y-15542484D02*
X9548634Y-15580579D01*
X9624825Y-15542484D02*
X9624825Y-15580579D01*
X9920063Y-15818674D02*
X9910539Y-15809150D01*
X9910539Y-15809150D02*
X9891491Y-15780579D01*
X9891491Y-15780579D02*
X9881968Y-15761531D01*
X9881968Y-15761531D02*
X9872444Y-15732960D01*
X9872444Y-15732960D02*
X9862920Y-15685341D01*
X9862920Y-15685341D02*
X9862920Y-15647246D01*
X9862920Y-15647246D02*
X9872444Y-15599627D01*
X9872444Y-15599627D02*
X9881968Y-15571055D01*
X9881968Y-15571055D02*
X9891491Y-15552008D01*
X9891491Y-15552008D02*
X9910539Y-15523436D01*
X9910539Y-15523436D02*
X9920063Y-15513912D01*
X10091491Y-15542484D02*
X9996253Y-15542484D01*
X9996253Y-15542484D02*
X9986730Y-15637722D01*
X9986730Y-15637722D02*
X9996253Y-15628198D01*
X9996253Y-15628198D02*
X10015301Y-15618674D01*
X10015301Y-15618674D02*
X10062920Y-15618674D01*
X10062920Y-15618674D02*
X10081968Y-15628198D01*
X10081968Y-15628198D02*
X10091491Y-15637722D01*
X10091491Y-15637722D02*
X10101015Y-15656769D01*
X10101015Y-15656769D02*
X10101015Y-15704388D01*
X10101015Y-15704388D02*
X10091491Y-15723436D01*
X10091491Y-15723436D02*
X10081968Y-15732960D01*
X10081968Y-15732960D02*
X10062920Y-15742484D01*
X10062920Y-15742484D02*
X10015301Y-15742484D01*
X10015301Y-15742484D02*
X9996253Y-15732960D01*
X9996253Y-15732960D02*
X9986730Y-15723436D01*
X10224825Y-15542484D02*
X10243872Y-15542484D01*
X10243872Y-15542484D02*
X10262920Y-15552008D01*
X10262920Y-15552008D02*
X10272444Y-15561531D01*
X10272444Y-15561531D02*
X10281968Y-15580579D01*
X10281968Y-15580579D02*
X10291491Y-15618674D01*
X10291491Y-15618674D02*
X10291491Y-15666293D01*
X10291491Y-15666293D02*
X10281968Y-15704388D01*
X10281968Y-15704388D02*
X10272444Y-15723436D01*
X10272444Y-15723436D02*
X10262920Y-15732960D01*
X10262920Y-15732960D02*
X10243872Y-15742484D01*
X10243872Y-15742484D02*
X10224825Y-15742484D01*
X10224825Y-15742484D02*
X10205777Y-15732960D01*
X10205777Y-15732960D02*
X10196253Y-15723436D01*
X10196253Y-15723436D02*
X10186730Y-15704388D01*
X10186730Y-15704388D02*
X10177206Y-15666293D01*
X10177206Y-15666293D02*
X10177206Y-15618674D01*
X10177206Y-15618674D02*
X10186730Y-15580579D01*
X10186730Y-15580579D02*
X10196253Y-15561531D01*
X10196253Y-15561531D02*
X10205777Y-15552008D01*
X10205777Y-15552008D02*
X10224825Y-15542484D01*
X10529587Y-15742484D02*
X10529587Y-15542484D01*
X10615301Y-15742484D02*
X10615301Y-15637722D01*
X10615301Y-15637722D02*
X10605777Y-15618674D01*
X10605777Y-15618674D02*
X10586730Y-15609150D01*
X10586730Y-15609150D02*
X10558158Y-15609150D01*
X10558158Y-15609150D02*
X10539111Y-15618674D01*
X10539111Y-15618674D02*
X10529587Y-15628198D01*
X10739111Y-15742484D02*
X10720063Y-15732960D01*
X10720063Y-15732960D02*
X10710539Y-15723436D01*
X10710539Y-15723436D02*
X10701015Y-15704388D01*
X10701015Y-15704388D02*
X10701015Y-15647246D01*
X10701015Y-15647246D02*
X10710539Y-15628198D01*
X10710539Y-15628198D02*
X10720063Y-15618674D01*
X10720063Y-15618674D02*
X10739111Y-15609150D01*
X10739111Y-15609150D02*
X10767682Y-15609150D01*
X10767682Y-15609150D02*
X10786730Y-15618674D01*
X10786730Y-15618674D02*
X10796253Y-15628198D01*
X10796253Y-15628198D02*
X10805777Y-15647246D01*
X10805777Y-15647246D02*
X10805777Y-15704388D01*
X10805777Y-15704388D02*
X10796253Y-15723436D01*
X10796253Y-15723436D02*
X10786730Y-15732960D01*
X10786730Y-15732960D02*
X10767682Y-15742484D01*
X10767682Y-15742484D02*
X10739111Y-15742484D01*
X10920063Y-15742484D02*
X10901015Y-15732960D01*
X10901015Y-15732960D02*
X10891492Y-15713912D01*
X10891492Y-15713912D02*
X10891492Y-15542484D01*
X11072444Y-15732960D02*
X11053396Y-15742484D01*
X11053396Y-15742484D02*
X11015301Y-15742484D01*
X11015301Y-15742484D02*
X10996253Y-15732960D01*
X10996253Y-15732960D02*
X10986730Y-15713912D01*
X10986730Y-15713912D02*
X10986730Y-15637722D01*
X10986730Y-15637722D02*
X10996253Y-15618674D01*
X10996253Y-15618674D02*
X11015301Y-15609150D01*
X11015301Y-15609150D02*
X11053396Y-15609150D01*
X11053396Y-15609150D02*
X11072444Y-15618674D01*
X11072444Y-15618674D02*
X11081968Y-15637722D01*
X11081968Y-15637722D02*
X11081968Y-15656769D01*
X11081968Y-15656769D02*
X10986730Y-15675817D01*
X11158158Y-15732960D02*
X11177206Y-15742484D01*
X11177206Y-15742484D02*
X11215301Y-15742484D01*
X11215301Y-15742484D02*
X11234349Y-15732960D01*
X11234349Y-15732960D02*
X11243872Y-15713912D01*
X11243872Y-15713912D02*
X11243872Y-15704388D01*
X11243872Y-15704388D02*
X11234349Y-15685341D01*
X11234349Y-15685341D02*
X11215301Y-15675817D01*
X11215301Y-15675817D02*
X11186730Y-15675817D01*
X11186730Y-15675817D02*
X11167682Y-15666293D01*
X11167682Y-15666293D02*
X11158158Y-15647246D01*
X11158158Y-15647246D02*
X11158158Y-15637722D01*
X11158158Y-15637722D02*
X11167682Y-15618674D01*
X11167682Y-15618674D02*
X11186730Y-15609150D01*
X11186730Y-15609150D02*
X11215301Y-15609150D01*
X11215301Y-15609150D02*
X11234349Y-15618674D01*
X11310539Y-15818674D02*
X11320063Y-15809150D01*
X11320063Y-15809150D02*
X11339111Y-15780579D01*
X11339111Y-15780579D02*
X11348634Y-15761531D01*
X11348634Y-15761531D02*
X11358158Y-15732960D01*
X11358158Y-15732960D02*
X11367682Y-15685341D01*
X11367682Y-15685341D02*
X11367682Y-15647246D01*
X11367682Y-15647246D02*
X11358158Y-15599627D01*
X11358158Y-15599627D02*
X11348634Y-15571055D01*
X11348634Y-15571055D02*
X11339111Y-15552008D01*
X11339111Y-15552008D02*
X11320063Y-15523436D01*
X11320063Y-15523436D02*
X11310539Y-15513912D01*
D10*
X6245000Y-15865000D02*
X6345000Y-15965000D01*
X6345000Y-15865000D02*
X6245000Y-15965000D01*
X6345000Y-15915000D02*
G75*
G03*
X6345000Y-15915000I-50000J0D01*
G01*
D11*
X6710539Y-16006484D02*
X6596253Y-16006484D01*
X6653396Y-16006484D02*
X6653396Y-15806484D01*
X6653396Y-15806484D02*
X6634348Y-15835055D01*
X6634348Y-15835055D02*
X6615301Y-15854103D01*
X6615301Y-15854103D02*
X6596253Y-15863627D01*
X6796253Y-15987436D02*
X6805777Y-15996960D01*
X6805777Y-15996960D02*
X6796253Y-16006484D01*
X6796253Y-16006484D02*
X6786729Y-15996960D01*
X6786729Y-15996960D02*
X6796253Y-15987436D01*
X6796253Y-15987436D02*
X6796253Y-16006484D01*
X6929586Y-15806484D02*
X6948634Y-15806484D01*
X6948634Y-15806484D02*
X6967682Y-15816008D01*
X6967682Y-15816008D02*
X6977205Y-15825531D01*
X6977205Y-15825531D02*
X6986729Y-15844579D01*
X6986729Y-15844579D02*
X6996253Y-15882674D01*
X6996253Y-15882674D02*
X6996253Y-15930293D01*
X6996253Y-15930293D02*
X6986729Y-15968388D01*
X6986729Y-15968388D02*
X6977205Y-15987436D01*
X6977205Y-15987436D02*
X6967682Y-15996960D01*
X6967682Y-15996960D02*
X6948634Y-16006484D01*
X6948634Y-16006484D02*
X6929586Y-16006484D01*
X6929586Y-16006484D02*
X6910539Y-15996960D01*
X6910539Y-15996960D02*
X6901015Y-15987436D01*
X6901015Y-15987436D02*
X6891491Y-15968388D01*
X6891491Y-15968388D02*
X6881967Y-15930293D01*
X6881967Y-15930293D02*
X6881967Y-15882674D01*
X6881967Y-15882674D02*
X6891491Y-15844579D01*
X6891491Y-15844579D02*
X6901015Y-15825531D01*
X6901015Y-15825531D02*
X6910539Y-15816008D01*
X6910539Y-15816008D02*
X6929586Y-15806484D01*
X7120062Y-15806484D02*
X7139110Y-15806484D01*
X7139110Y-15806484D02*
X7158158Y-15816008D01*
X7158158Y-15816008D02*
X7167682Y-15825531D01*
X7167682Y-15825531D02*
X7177205Y-15844579D01*
X7177205Y-15844579D02*
X7186729Y-15882674D01*
X7186729Y-15882674D02*
X7186729Y-15930293D01*
X7186729Y-15930293D02*
X7177205Y-15968388D01*
X7177205Y-15968388D02*
X7167682Y-15987436D01*
X7167682Y-15987436D02*
X7158158Y-15996960D01*
X7158158Y-15996960D02*
X7139110Y-16006484D01*
X7139110Y-16006484D02*
X7120062Y-16006484D01*
X7120062Y-16006484D02*
X7101015Y-15996960D01*
X7101015Y-15996960D02*
X7091491Y-15987436D01*
X7091491Y-15987436D02*
X7081967Y-15968388D01*
X7081967Y-15968388D02*
X7072443Y-15930293D01*
X7072443Y-15930293D02*
X7072443Y-15882674D01*
X7072443Y-15882674D02*
X7081967Y-15844579D01*
X7081967Y-15844579D02*
X7091491Y-15825531D01*
X7091491Y-15825531D02*
X7101015Y-15816008D01*
X7101015Y-15816008D02*
X7120062Y-15806484D01*
X7310539Y-15806484D02*
X7329586Y-15806484D01*
X7329586Y-15806484D02*
X7348634Y-15816008D01*
X7348634Y-15816008D02*
X7358158Y-15825531D01*
X7358158Y-15825531D02*
X7367682Y-15844579D01*
X7367682Y-15844579D02*
X7377205Y-15882674D01*
X7377205Y-15882674D02*
X7377205Y-15930293D01*
X7377205Y-15930293D02*
X7367682Y-15968388D01*
X7367682Y-15968388D02*
X7358158Y-15987436D01*
X7358158Y-15987436D02*
X7348634Y-15996960D01*
X7348634Y-15996960D02*
X7329586Y-16006484D01*
X7329586Y-16006484D02*
X7310539Y-16006484D01*
X7310539Y-16006484D02*
X7291491Y-15996960D01*
X7291491Y-15996960D02*
X7281967Y-15987436D01*
X7281967Y-15987436D02*
X7272443Y-15968388D01*
X7272443Y-15968388D02*
X7262920Y-15930293D01*
X7262920Y-15930293D02*
X7262920Y-15882674D01*
X7262920Y-15882674D02*
X7272443Y-15844579D01*
X7272443Y-15844579D02*
X7281967Y-15825531D01*
X7281967Y-15825531D02*
X7291491Y-15816008D01*
X7291491Y-15816008D02*
X7310539Y-15806484D01*
X7462920Y-16006484D02*
X7462920Y-15873150D01*
X7462920Y-15892198D02*
X7472443Y-15882674D01*
X7472443Y-15882674D02*
X7491491Y-15873150D01*
X7491491Y-15873150D02*
X7520063Y-15873150D01*
X7520063Y-15873150D02*
X7539110Y-15882674D01*
X7539110Y-15882674D02*
X7548634Y-15901722D01*
X7548634Y-15901722D02*
X7548634Y-16006484D01*
X7548634Y-15901722D02*
X7558158Y-15882674D01*
X7558158Y-15882674D02*
X7577205Y-15873150D01*
X7577205Y-15873150D02*
X7605777Y-15873150D01*
X7605777Y-15873150D02*
X7624824Y-15882674D01*
X7624824Y-15882674D02*
X7634348Y-15901722D01*
X7634348Y-15901722D02*
X7634348Y-16006484D01*
X7729586Y-16006484D02*
X7729586Y-15873150D01*
X7729586Y-15892198D02*
X7739110Y-15882674D01*
X7739110Y-15882674D02*
X7758158Y-15873150D01*
X7758158Y-15873150D02*
X7786729Y-15873150D01*
X7786729Y-15873150D02*
X7805777Y-15882674D01*
X7805777Y-15882674D02*
X7815301Y-15901722D01*
X7815301Y-15901722D02*
X7815301Y-16006484D01*
X7815301Y-15901722D02*
X7824824Y-15882674D01*
X7824824Y-15882674D02*
X7843872Y-15873150D01*
X7843872Y-15873150D02*
X7872443Y-15873150D01*
X7872443Y-15873150D02*
X7891491Y-15882674D01*
X7891491Y-15882674D02*
X7901015Y-15901722D01*
X7901015Y-15901722D02*
X7901015Y-16006484D01*
X8291491Y-15796960D02*
X8120063Y-16054103D01*
X8548634Y-15806484D02*
X8567682Y-15806484D01*
X8567682Y-15806484D02*
X8586729Y-15816008D01*
X8586729Y-15816008D02*
X8596253Y-15825531D01*
X8596253Y-15825531D02*
X8605777Y-15844579D01*
X8605777Y-15844579D02*
X8615301Y-15882674D01*
X8615301Y-15882674D02*
X8615301Y-15930293D01*
X8615301Y-15930293D02*
X8605777Y-15968388D01*
X8605777Y-15968388D02*
X8596253Y-15987436D01*
X8596253Y-15987436D02*
X8586729Y-15996960D01*
X8586729Y-15996960D02*
X8567682Y-16006484D01*
X8567682Y-16006484D02*
X8548634Y-16006484D01*
X8548634Y-16006484D02*
X8529587Y-15996960D01*
X8529587Y-15996960D02*
X8520063Y-15987436D01*
X8520063Y-15987436D02*
X8510539Y-15968388D01*
X8510539Y-15968388D02*
X8501015Y-15930293D01*
X8501015Y-15930293D02*
X8501015Y-15882674D01*
X8501015Y-15882674D02*
X8510539Y-15844579D01*
X8510539Y-15844579D02*
X8520063Y-15825531D01*
X8520063Y-15825531D02*
X8529587Y-15816008D01*
X8529587Y-15816008D02*
X8548634Y-15806484D01*
X8701015Y-15987436D02*
X8710539Y-15996960D01*
X8710539Y-15996960D02*
X8701015Y-16006484D01*
X8701015Y-16006484D02*
X8691491Y-15996960D01*
X8691491Y-15996960D02*
X8701015Y-15987436D01*
X8701015Y-15987436D02*
X8701015Y-16006484D01*
X8834348Y-15806484D02*
X8853396Y-15806484D01*
X8853396Y-15806484D02*
X8872444Y-15816008D01*
X8872444Y-15816008D02*
X8881968Y-15825531D01*
X8881968Y-15825531D02*
X8891491Y-15844579D01*
X8891491Y-15844579D02*
X8901015Y-15882674D01*
X8901015Y-15882674D02*
X8901015Y-15930293D01*
X8901015Y-15930293D02*
X8891491Y-15968388D01*
X8891491Y-15968388D02*
X8881968Y-15987436D01*
X8881968Y-15987436D02*
X8872444Y-15996960D01*
X8872444Y-15996960D02*
X8853396Y-16006484D01*
X8853396Y-16006484D02*
X8834348Y-16006484D01*
X8834348Y-16006484D02*
X8815301Y-15996960D01*
X8815301Y-15996960D02*
X8805777Y-15987436D01*
X8805777Y-15987436D02*
X8796253Y-15968388D01*
X8796253Y-15968388D02*
X8786729Y-15930293D01*
X8786729Y-15930293D02*
X8786729Y-15882674D01*
X8786729Y-15882674D02*
X8796253Y-15844579D01*
X8796253Y-15844579D02*
X8805777Y-15825531D01*
X8805777Y-15825531D02*
X8815301Y-15816008D01*
X8815301Y-15816008D02*
X8834348Y-15806484D01*
X8967682Y-15806484D02*
X9091491Y-15806484D01*
X9091491Y-15806484D02*
X9024825Y-15882674D01*
X9024825Y-15882674D02*
X9053396Y-15882674D01*
X9053396Y-15882674D02*
X9072444Y-15892198D01*
X9072444Y-15892198D02*
X9081968Y-15901722D01*
X9081968Y-15901722D02*
X9091491Y-15920769D01*
X9091491Y-15920769D02*
X9091491Y-15968388D01*
X9091491Y-15968388D02*
X9081968Y-15987436D01*
X9081968Y-15987436D02*
X9072444Y-15996960D01*
X9072444Y-15996960D02*
X9053396Y-16006484D01*
X9053396Y-16006484D02*
X8996253Y-16006484D01*
X8996253Y-16006484D02*
X8977206Y-15996960D01*
X8977206Y-15996960D02*
X8967682Y-15987436D01*
X9186729Y-16006484D02*
X9224825Y-16006484D01*
X9224825Y-16006484D02*
X9243872Y-15996960D01*
X9243872Y-15996960D02*
X9253396Y-15987436D01*
X9253396Y-15987436D02*
X9272444Y-15958865D01*
X9272444Y-15958865D02*
X9281968Y-15920769D01*
X9281968Y-15920769D02*
X9281968Y-15844579D01*
X9281968Y-15844579D02*
X9272444Y-15825531D01*
X9272444Y-15825531D02*
X9262920Y-15816008D01*
X9262920Y-15816008D02*
X9243872Y-15806484D01*
X9243872Y-15806484D02*
X9205777Y-15806484D01*
X9205777Y-15806484D02*
X9186729Y-15816008D01*
X9186729Y-15816008D02*
X9177206Y-15825531D01*
X9177206Y-15825531D02*
X9167682Y-15844579D01*
X9167682Y-15844579D02*
X9167682Y-15892198D01*
X9167682Y-15892198D02*
X9177206Y-15911246D01*
X9177206Y-15911246D02*
X9186729Y-15920769D01*
X9186729Y-15920769D02*
X9205777Y-15930293D01*
X9205777Y-15930293D02*
X9243872Y-15930293D01*
X9243872Y-15930293D02*
X9262920Y-15920769D01*
X9262920Y-15920769D02*
X9272444Y-15911246D01*
X9272444Y-15911246D02*
X9281968Y-15892198D01*
X9453396Y-15873150D02*
X9453396Y-16006484D01*
X9405777Y-15796960D02*
X9358158Y-15939817D01*
X9358158Y-15939817D02*
X9481968Y-15939817D01*
X9548634Y-15806484D02*
X9548634Y-15844579D01*
X9624825Y-15806484D02*
X9624825Y-15844579D01*
X9920063Y-16082674D02*
X9910539Y-16073150D01*
X9910539Y-16073150D02*
X9891491Y-16044579D01*
X9891491Y-16044579D02*
X9881968Y-16025531D01*
X9881968Y-16025531D02*
X9872444Y-15996960D01*
X9872444Y-15996960D02*
X9862920Y-15949341D01*
X9862920Y-15949341D02*
X9862920Y-15911246D01*
X9862920Y-15911246D02*
X9872444Y-15863627D01*
X9872444Y-15863627D02*
X9881968Y-15835055D01*
X9881968Y-15835055D02*
X9891491Y-15816008D01*
X9891491Y-15816008D02*
X9910539Y-15787436D01*
X9910539Y-15787436D02*
X9920063Y-15777912D01*
X9977206Y-15806484D02*
X10110539Y-15806484D01*
X10110539Y-15806484D02*
X10024825Y-16006484D01*
X10339111Y-16006484D02*
X10339111Y-15806484D01*
X10424825Y-16006484D02*
X10424825Y-15901722D01*
X10424825Y-15901722D02*
X10415301Y-15882674D01*
X10415301Y-15882674D02*
X10396253Y-15873150D01*
X10396253Y-15873150D02*
X10367682Y-15873150D01*
X10367682Y-15873150D02*
X10348634Y-15882674D01*
X10348634Y-15882674D02*
X10339111Y-15892198D01*
X10548634Y-16006484D02*
X10529587Y-15996960D01*
X10529587Y-15996960D02*
X10520063Y-15987436D01*
X10520063Y-15987436D02*
X10510539Y-15968388D01*
X10510539Y-15968388D02*
X10510539Y-15911246D01*
X10510539Y-15911246D02*
X10520063Y-15892198D01*
X10520063Y-15892198D02*
X10529587Y-15882674D01*
X10529587Y-15882674D02*
X10548634Y-15873150D01*
X10548634Y-15873150D02*
X10577206Y-15873150D01*
X10577206Y-15873150D02*
X10596253Y-15882674D01*
X10596253Y-15882674D02*
X10605777Y-15892198D01*
X10605777Y-15892198D02*
X10615301Y-15911246D01*
X10615301Y-15911246D02*
X10615301Y-15968388D01*
X10615301Y-15968388D02*
X10605777Y-15987436D01*
X10605777Y-15987436D02*
X10596253Y-15996960D01*
X10596253Y-15996960D02*
X10577206Y-16006484D01*
X10577206Y-16006484D02*
X10548634Y-16006484D01*
X10729587Y-16006484D02*
X10710539Y-15996960D01*
X10710539Y-15996960D02*
X10701015Y-15977912D01*
X10701015Y-15977912D02*
X10701015Y-15806484D01*
X10881968Y-15996960D02*
X10862920Y-16006484D01*
X10862920Y-16006484D02*
X10824825Y-16006484D01*
X10824825Y-16006484D02*
X10805777Y-15996960D01*
X10805777Y-15996960D02*
X10796253Y-15977912D01*
X10796253Y-15977912D02*
X10796253Y-15901722D01*
X10796253Y-15901722D02*
X10805777Y-15882674D01*
X10805777Y-15882674D02*
X10824825Y-15873150D01*
X10824825Y-15873150D02*
X10862920Y-15873150D01*
X10862920Y-15873150D02*
X10881968Y-15882674D01*
X10881968Y-15882674D02*
X10891492Y-15901722D01*
X10891492Y-15901722D02*
X10891492Y-15920769D01*
X10891492Y-15920769D02*
X10796253Y-15939817D01*
X10967682Y-15996960D02*
X10986730Y-16006484D01*
X10986730Y-16006484D02*
X11024825Y-16006484D01*
X11024825Y-16006484D02*
X11043873Y-15996960D01*
X11043873Y-15996960D02*
X11053396Y-15977912D01*
X11053396Y-15977912D02*
X11053396Y-15968388D01*
X11053396Y-15968388D02*
X11043873Y-15949341D01*
X11043873Y-15949341D02*
X11024825Y-15939817D01*
X11024825Y-15939817D02*
X10996253Y-15939817D01*
X10996253Y-15939817D02*
X10977206Y-15930293D01*
X10977206Y-15930293D02*
X10967682Y-15911246D01*
X10967682Y-15911246D02*
X10967682Y-15901722D01*
X10967682Y-15901722D02*
X10977206Y-15882674D01*
X10977206Y-15882674D02*
X10996253Y-15873150D01*
X10996253Y-15873150D02*
X11024825Y-15873150D01*
X11024825Y-15873150D02*
X11043873Y-15882674D01*
X11120063Y-16082674D02*
X11129587Y-16073150D01*
X11129587Y-16073150D02*
X11148634Y-16044579D01*
X11148634Y-16044579D02*
X11158158Y-16025531D01*
X11158158Y-16025531D02*
X11167682Y-15996960D01*
X11167682Y-15996960D02*
X11177206Y-15949341D01*
X11177206Y-15949341D02*
X11177206Y-15911246D01*
X11177206Y-15911246D02*
X11167682Y-15863627D01*
X11167682Y-15863627D02*
X11158158Y-15835055D01*
X11158158Y-15835055D02*
X11148634Y-15816008D01*
X11148634Y-15816008D02*
X11129587Y-15787436D01*
X11129587Y-15787436D02*
X11120063Y-15777912D01*
D17*
X6243400Y-16128200D02*
X6345000Y-16229800D01*
X6345000Y-16128200D02*
X6243400Y-16229800D01*
X6294200Y-16128200D02*
X6294200Y-16229800D01*
X6243400Y-16179000D02*
X6345000Y-16179000D01*
D11*
X6710539Y-16270484D02*
X6596253Y-16270484D01*
X6653396Y-16270484D02*
X6653396Y-16070484D01*
X6653396Y-16070484D02*
X6634348Y-16099055D01*
X6634348Y-16099055D02*
X6615301Y-16118103D01*
X6615301Y-16118103D02*
X6596253Y-16127627D01*
X6796253Y-16251436D02*
X6805777Y-16260960D01*
X6805777Y-16260960D02*
X6796253Y-16270484D01*
X6796253Y-16270484D02*
X6786729Y-16260960D01*
X6786729Y-16260960D02*
X6796253Y-16251436D01*
X6796253Y-16251436D02*
X6796253Y-16270484D01*
X6929586Y-16070484D02*
X6948634Y-16070484D01*
X6948634Y-16070484D02*
X6967682Y-16080008D01*
X6967682Y-16080008D02*
X6977205Y-16089531D01*
X6977205Y-16089531D02*
X6986729Y-16108579D01*
X6986729Y-16108579D02*
X6996253Y-16146674D01*
X6996253Y-16146674D02*
X6996253Y-16194293D01*
X6996253Y-16194293D02*
X6986729Y-16232388D01*
X6986729Y-16232388D02*
X6977205Y-16251436D01*
X6977205Y-16251436D02*
X6967682Y-16260960D01*
X6967682Y-16260960D02*
X6948634Y-16270484D01*
X6948634Y-16270484D02*
X6929586Y-16270484D01*
X6929586Y-16270484D02*
X6910539Y-16260960D01*
X6910539Y-16260960D02*
X6901015Y-16251436D01*
X6901015Y-16251436D02*
X6891491Y-16232388D01*
X6891491Y-16232388D02*
X6881967Y-16194293D01*
X6881967Y-16194293D02*
X6881967Y-16146674D01*
X6881967Y-16146674D02*
X6891491Y-16108579D01*
X6891491Y-16108579D02*
X6901015Y-16089531D01*
X6901015Y-16089531D02*
X6910539Y-16080008D01*
X6910539Y-16080008D02*
X6929586Y-16070484D01*
X7186729Y-16270484D02*
X7072443Y-16270484D01*
X7129586Y-16270484D02*
X7129586Y-16070484D01*
X7129586Y-16070484D02*
X7110539Y-16099055D01*
X7110539Y-16099055D02*
X7091491Y-16118103D01*
X7091491Y-16118103D02*
X7072443Y-16127627D01*
X7358158Y-16070484D02*
X7320062Y-16070484D01*
X7320062Y-16070484D02*
X7301015Y-16080008D01*
X7301015Y-16080008D02*
X7291491Y-16089531D01*
X7291491Y-16089531D02*
X7272443Y-16118103D01*
X7272443Y-16118103D02*
X7262920Y-16156198D01*
X7262920Y-16156198D02*
X7262920Y-16232388D01*
X7262920Y-16232388D02*
X7272443Y-16251436D01*
X7272443Y-16251436D02*
X7281967Y-16260960D01*
X7281967Y-16260960D02*
X7301015Y-16270484D01*
X7301015Y-16270484D02*
X7339110Y-16270484D01*
X7339110Y-16270484D02*
X7358158Y-16260960D01*
X7358158Y-16260960D02*
X7367682Y-16251436D01*
X7367682Y-16251436D02*
X7377205Y-16232388D01*
X7377205Y-16232388D02*
X7377205Y-16184769D01*
X7377205Y-16184769D02*
X7367682Y-16165722D01*
X7367682Y-16165722D02*
X7358158Y-16156198D01*
X7358158Y-16156198D02*
X7339110Y-16146674D01*
X7339110Y-16146674D02*
X7301015Y-16146674D01*
X7301015Y-16146674D02*
X7281967Y-16156198D01*
X7281967Y-16156198D02*
X7272443Y-16165722D01*
X7272443Y-16165722D02*
X7262920Y-16184769D01*
X7462920Y-16270484D02*
X7462920Y-16137150D01*
X7462920Y-16156198D02*
X7472443Y-16146674D01*
X7472443Y-16146674D02*
X7491491Y-16137150D01*
X7491491Y-16137150D02*
X7520063Y-16137150D01*
X7520063Y-16137150D02*
X7539110Y-16146674D01*
X7539110Y-16146674D02*
X7548634Y-16165722D01*
X7548634Y-16165722D02*
X7548634Y-16270484D01*
X7548634Y-16165722D02*
X7558158Y-16146674D01*
X7558158Y-16146674D02*
X7577205Y-16137150D01*
X7577205Y-16137150D02*
X7605777Y-16137150D01*
X7605777Y-16137150D02*
X7624824Y-16146674D01*
X7624824Y-16146674D02*
X7634348Y-16165722D01*
X7634348Y-16165722D02*
X7634348Y-16270484D01*
X7729586Y-16270484D02*
X7729586Y-16137150D01*
X7729586Y-16156198D02*
X7739110Y-16146674D01*
X7739110Y-16146674D02*
X7758158Y-16137150D01*
X7758158Y-16137150D02*
X7786729Y-16137150D01*
X7786729Y-16137150D02*
X7805777Y-16146674D01*
X7805777Y-16146674D02*
X7815301Y-16165722D01*
X7815301Y-16165722D02*
X7815301Y-16270484D01*
X7815301Y-16165722D02*
X7824824Y-16146674D01*
X7824824Y-16146674D02*
X7843872Y-16137150D01*
X7843872Y-16137150D02*
X7872443Y-16137150D01*
X7872443Y-16137150D02*
X7891491Y-16146674D01*
X7891491Y-16146674D02*
X7901015Y-16165722D01*
X7901015Y-16165722D02*
X7901015Y-16270484D01*
X8291491Y-16060960D02*
X8120063Y-16318103D01*
X8548634Y-16070484D02*
X8567682Y-16070484D01*
X8567682Y-16070484D02*
X8586729Y-16080008D01*
X8586729Y-16080008D02*
X8596253Y-16089531D01*
X8596253Y-16089531D02*
X8605777Y-16108579D01*
X8605777Y-16108579D02*
X8615301Y-16146674D01*
X8615301Y-16146674D02*
X8615301Y-16194293D01*
X8615301Y-16194293D02*
X8605777Y-16232388D01*
X8605777Y-16232388D02*
X8596253Y-16251436D01*
X8596253Y-16251436D02*
X8586729Y-16260960D01*
X8586729Y-16260960D02*
X8567682Y-16270484D01*
X8567682Y-16270484D02*
X8548634Y-16270484D01*
X8548634Y-16270484D02*
X8529587Y-16260960D01*
X8529587Y-16260960D02*
X8520063Y-16251436D01*
X8520063Y-16251436D02*
X8510539Y-16232388D01*
X8510539Y-16232388D02*
X8501015Y-16194293D01*
X8501015Y-16194293D02*
X8501015Y-16146674D01*
X8501015Y-16146674D02*
X8510539Y-16108579D01*
X8510539Y-16108579D02*
X8520063Y-16089531D01*
X8520063Y-16089531D02*
X8529587Y-16080008D01*
X8529587Y-16080008D02*
X8548634Y-16070484D01*
X8701015Y-16251436D02*
X8710539Y-16260960D01*
X8710539Y-16260960D02*
X8701015Y-16270484D01*
X8701015Y-16270484D02*
X8691491Y-16260960D01*
X8691491Y-16260960D02*
X8701015Y-16251436D01*
X8701015Y-16251436D02*
X8701015Y-16270484D01*
X8834348Y-16070484D02*
X8853396Y-16070484D01*
X8853396Y-16070484D02*
X8872444Y-16080008D01*
X8872444Y-16080008D02*
X8881968Y-16089531D01*
X8881968Y-16089531D02*
X8891491Y-16108579D01*
X8891491Y-16108579D02*
X8901015Y-16146674D01*
X8901015Y-16146674D02*
X8901015Y-16194293D01*
X8901015Y-16194293D02*
X8891491Y-16232388D01*
X8891491Y-16232388D02*
X8881968Y-16251436D01*
X8881968Y-16251436D02*
X8872444Y-16260960D01*
X8872444Y-16260960D02*
X8853396Y-16270484D01*
X8853396Y-16270484D02*
X8834348Y-16270484D01*
X8834348Y-16270484D02*
X8815301Y-16260960D01*
X8815301Y-16260960D02*
X8805777Y-16251436D01*
X8805777Y-16251436D02*
X8796253Y-16232388D01*
X8796253Y-16232388D02*
X8786729Y-16194293D01*
X8786729Y-16194293D02*
X8786729Y-16146674D01*
X8786729Y-16146674D02*
X8796253Y-16108579D01*
X8796253Y-16108579D02*
X8805777Y-16089531D01*
X8805777Y-16089531D02*
X8815301Y-16080008D01*
X8815301Y-16080008D02*
X8834348Y-16070484D01*
X9072444Y-16137150D02*
X9072444Y-16270484D01*
X9024825Y-16060960D02*
X8977206Y-16203817D01*
X8977206Y-16203817D02*
X9101015Y-16203817D01*
X9215301Y-16070484D02*
X9234349Y-16070484D01*
X9234349Y-16070484D02*
X9253396Y-16080008D01*
X9253396Y-16080008D02*
X9262920Y-16089531D01*
X9262920Y-16089531D02*
X9272444Y-16108579D01*
X9272444Y-16108579D02*
X9281968Y-16146674D01*
X9281968Y-16146674D02*
X9281968Y-16194293D01*
X9281968Y-16194293D02*
X9272444Y-16232388D01*
X9272444Y-16232388D02*
X9262920Y-16251436D01*
X9262920Y-16251436D02*
X9253396Y-16260960D01*
X9253396Y-16260960D02*
X9234349Y-16270484D01*
X9234349Y-16270484D02*
X9215301Y-16270484D01*
X9215301Y-16270484D02*
X9196253Y-16260960D01*
X9196253Y-16260960D02*
X9186729Y-16251436D01*
X9186729Y-16251436D02*
X9177206Y-16232388D01*
X9177206Y-16232388D02*
X9167682Y-16194293D01*
X9167682Y-16194293D02*
X9167682Y-16146674D01*
X9167682Y-16146674D02*
X9177206Y-16108579D01*
X9177206Y-16108579D02*
X9186729Y-16089531D01*
X9186729Y-16089531D02*
X9196253Y-16080008D01*
X9196253Y-16080008D02*
X9215301Y-16070484D01*
X9405777Y-16070484D02*
X9424825Y-16070484D01*
X9424825Y-16070484D02*
X9443872Y-16080008D01*
X9443872Y-16080008D02*
X9453396Y-16089531D01*
X9453396Y-16089531D02*
X9462920Y-16108579D01*
X9462920Y-16108579D02*
X9472444Y-16146674D01*
X9472444Y-16146674D02*
X9472444Y-16194293D01*
X9472444Y-16194293D02*
X9462920Y-16232388D01*
X9462920Y-16232388D02*
X9453396Y-16251436D01*
X9453396Y-16251436D02*
X9443872Y-16260960D01*
X9443872Y-16260960D02*
X9424825Y-16270484D01*
X9424825Y-16270484D02*
X9405777Y-16270484D01*
X9405777Y-16270484D02*
X9386729Y-16260960D01*
X9386729Y-16260960D02*
X9377206Y-16251436D01*
X9377206Y-16251436D02*
X9367682Y-16232388D01*
X9367682Y-16232388D02*
X9358158Y-16194293D01*
X9358158Y-16194293D02*
X9358158Y-16146674D01*
X9358158Y-16146674D02*
X9367682Y-16108579D01*
X9367682Y-16108579D02*
X9377206Y-16089531D01*
X9377206Y-16089531D02*
X9386729Y-16080008D01*
X9386729Y-16080008D02*
X9405777Y-16070484D01*
X9548634Y-16070484D02*
X9548634Y-16108579D01*
X9624825Y-16070484D02*
X9624825Y-16108579D01*
X9920063Y-16346674D02*
X9910539Y-16337150D01*
X9910539Y-16337150D02*
X9891491Y-16308579D01*
X9891491Y-16308579D02*
X9881968Y-16289531D01*
X9881968Y-16289531D02*
X9872444Y-16260960D01*
X9872444Y-16260960D02*
X9862920Y-16213341D01*
X9862920Y-16213341D02*
X9862920Y-16175246D01*
X9862920Y-16175246D02*
X9872444Y-16127627D01*
X9872444Y-16127627D02*
X9881968Y-16099055D01*
X9881968Y-16099055D02*
X9891491Y-16080008D01*
X9891491Y-16080008D02*
X9910539Y-16051436D01*
X9910539Y-16051436D02*
X9920063Y-16041912D01*
X10081968Y-16070484D02*
X10043872Y-16070484D01*
X10043872Y-16070484D02*
X10024825Y-16080008D01*
X10024825Y-16080008D02*
X10015301Y-16089531D01*
X10015301Y-16089531D02*
X9996253Y-16118103D01*
X9996253Y-16118103D02*
X9986730Y-16156198D01*
X9986730Y-16156198D02*
X9986730Y-16232388D01*
X9986730Y-16232388D02*
X9996253Y-16251436D01*
X9996253Y-16251436D02*
X10005777Y-16260960D01*
X10005777Y-16260960D02*
X10024825Y-16270484D01*
X10024825Y-16270484D02*
X10062920Y-16270484D01*
X10062920Y-16270484D02*
X10081968Y-16260960D01*
X10081968Y-16260960D02*
X10091491Y-16251436D01*
X10091491Y-16251436D02*
X10101015Y-16232388D01*
X10101015Y-16232388D02*
X10101015Y-16184769D01*
X10101015Y-16184769D02*
X10091491Y-16165722D01*
X10091491Y-16165722D02*
X10081968Y-16156198D01*
X10081968Y-16156198D02*
X10062920Y-16146674D01*
X10062920Y-16146674D02*
X10024825Y-16146674D01*
X10024825Y-16146674D02*
X10005777Y-16156198D01*
X10005777Y-16156198D02*
X9996253Y-16165722D01*
X9996253Y-16165722D02*
X9986730Y-16184769D01*
X10339111Y-16270484D02*
X10339111Y-16070484D01*
X10424825Y-16270484D02*
X10424825Y-16165722D01*
X10424825Y-16165722D02*
X10415301Y-16146674D01*
X10415301Y-16146674D02*
X10396253Y-16137150D01*
X10396253Y-16137150D02*
X10367682Y-16137150D01*
X10367682Y-16137150D02*
X10348634Y-16146674D01*
X10348634Y-16146674D02*
X10339111Y-16156198D01*
X10548634Y-16270484D02*
X10529587Y-16260960D01*
X10529587Y-16260960D02*
X10520063Y-16251436D01*
X10520063Y-16251436D02*
X10510539Y-16232388D01*
X10510539Y-16232388D02*
X10510539Y-16175246D01*
X10510539Y-16175246D02*
X10520063Y-16156198D01*
X10520063Y-16156198D02*
X10529587Y-16146674D01*
X10529587Y-16146674D02*
X10548634Y-16137150D01*
X10548634Y-16137150D02*
X10577206Y-16137150D01*
X10577206Y-16137150D02*
X10596253Y-16146674D01*
X10596253Y-16146674D02*
X10605777Y-16156198D01*
X10605777Y-16156198D02*
X10615301Y-16175246D01*
X10615301Y-16175246D02*
X10615301Y-16232388D01*
X10615301Y-16232388D02*
X10605777Y-16251436D01*
X10605777Y-16251436D02*
X10596253Y-16260960D01*
X10596253Y-16260960D02*
X10577206Y-16270484D01*
X10577206Y-16270484D02*
X10548634Y-16270484D01*
X10729587Y-16270484D02*
X10710539Y-16260960D01*
X10710539Y-16260960D02*
X10701015Y-16241912D01*
X10701015Y-16241912D02*
X10701015Y-16070484D01*
X10881968Y-16260960D02*
X10862920Y-16270484D01*
X10862920Y-16270484D02*
X10824825Y-16270484D01*
X10824825Y-16270484D02*
X10805777Y-16260960D01*
X10805777Y-16260960D02*
X10796253Y-16241912D01*
X10796253Y-16241912D02*
X10796253Y-16165722D01*
X10796253Y-16165722D02*
X10805777Y-16146674D01*
X10805777Y-16146674D02*
X10824825Y-16137150D01*
X10824825Y-16137150D02*
X10862920Y-16137150D01*
X10862920Y-16137150D02*
X10881968Y-16146674D01*
X10881968Y-16146674D02*
X10891492Y-16165722D01*
X10891492Y-16165722D02*
X10891492Y-16184769D01*
X10891492Y-16184769D02*
X10796253Y-16203817D01*
X10967682Y-16260960D02*
X10986730Y-16270484D01*
X10986730Y-16270484D02*
X11024825Y-16270484D01*
X11024825Y-16270484D02*
X11043873Y-16260960D01*
X11043873Y-16260960D02*
X11053396Y-16241912D01*
X11053396Y-16241912D02*
X11053396Y-16232388D01*
X11053396Y-16232388D02*
X11043873Y-16213341D01*
X11043873Y-16213341D02*
X11024825Y-16203817D01*
X11024825Y-16203817D02*
X10996253Y-16203817D01*
X10996253Y-16203817D02*
X10977206Y-16194293D01*
X10977206Y-16194293D02*
X10967682Y-16175246D01*
X10967682Y-16175246D02*
X10967682Y-16165722D01*
X10967682Y-16165722D02*
X10977206Y-16146674D01*
X10977206Y-16146674D02*
X10996253Y-16137150D01*
X10996253Y-16137150D02*
X11024825Y-16137150D01*
X11024825Y-16137150D02*
X11043873Y-16146674D01*
X11120063Y-16346674D02*
X11129587Y-16337150D01*
X11129587Y-16337150D02*
X11148634Y-16308579D01*
X11148634Y-16308579D02*
X11158158Y-16289531D01*
X11158158Y-16289531D02*
X11167682Y-16260960D01*
X11167682Y-16260960D02*
X11177206Y-16213341D01*
X11177206Y-16213341D02*
X11177206Y-16175246D01*
X11177206Y-16175246D02*
X11167682Y-16127627D01*
X11167682Y-16127627D02*
X11158158Y-16099055D01*
X11158158Y-16099055D02*
X11148634Y-16080008D01*
X11148634Y-16080008D02*
X11129587Y-16051436D01*
X11129587Y-16051436D02*
X11120063Y-16041912D01*
D18*
X6235000Y-16388000D02*
X6345000Y-16498000D01*
X6345000Y-16388000D02*
X6235000Y-16498000D01*
X6328891Y-16481891D02*
X6328891Y-16404109D01*
X6251109Y-16404109D01*
X6251109Y-16481891D01*
X6328891Y-16481891D01*
D11*
X6710539Y-16534484D02*
X6596253Y-16534484D01*
X6653396Y-16534484D02*
X6653396Y-16334484D01*
X6653396Y-16334484D02*
X6634348Y-16363055D01*
X6634348Y-16363055D02*
X6615301Y-16382103D01*
X6615301Y-16382103D02*
X6596253Y-16391627D01*
X6796253Y-16515436D02*
X6805777Y-16524960D01*
X6805777Y-16524960D02*
X6796253Y-16534484D01*
X6796253Y-16534484D02*
X6786729Y-16524960D01*
X6786729Y-16524960D02*
X6796253Y-16515436D01*
X6796253Y-16515436D02*
X6796253Y-16534484D01*
X6996253Y-16534484D02*
X6881967Y-16534484D01*
X6939110Y-16534484D02*
X6939110Y-16334484D01*
X6939110Y-16334484D02*
X6920062Y-16363055D01*
X6920062Y-16363055D02*
X6901015Y-16382103D01*
X6901015Y-16382103D02*
X6881967Y-16391627D01*
X7120062Y-16334484D02*
X7139110Y-16334484D01*
X7139110Y-16334484D02*
X7158158Y-16344008D01*
X7158158Y-16344008D02*
X7167682Y-16353531D01*
X7167682Y-16353531D02*
X7177205Y-16372579D01*
X7177205Y-16372579D02*
X7186729Y-16410674D01*
X7186729Y-16410674D02*
X7186729Y-16458293D01*
X7186729Y-16458293D02*
X7177205Y-16496388D01*
X7177205Y-16496388D02*
X7167682Y-16515436D01*
X7167682Y-16515436D02*
X7158158Y-16524960D01*
X7158158Y-16524960D02*
X7139110Y-16534484D01*
X7139110Y-16534484D02*
X7120062Y-16534484D01*
X7120062Y-16534484D02*
X7101015Y-16524960D01*
X7101015Y-16524960D02*
X7091491Y-16515436D01*
X7091491Y-16515436D02*
X7081967Y-16496388D01*
X7081967Y-16496388D02*
X7072443Y-16458293D01*
X7072443Y-16458293D02*
X7072443Y-16410674D01*
X7072443Y-16410674D02*
X7081967Y-16372579D01*
X7081967Y-16372579D02*
X7091491Y-16353531D01*
X7091491Y-16353531D02*
X7101015Y-16344008D01*
X7101015Y-16344008D02*
X7120062Y-16334484D01*
X7310539Y-16334484D02*
X7329586Y-16334484D01*
X7329586Y-16334484D02*
X7348634Y-16344008D01*
X7348634Y-16344008D02*
X7358158Y-16353531D01*
X7358158Y-16353531D02*
X7367682Y-16372579D01*
X7367682Y-16372579D02*
X7377205Y-16410674D01*
X7377205Y-16410674D02*
X7377205Y-16458293D01*
X7377205Y-16458293D02*
X7367682Y-16496388D01*
X7367682Y-16496388D02*
X7358158Y-16515436D01*
X7358158Y-16515436D02*
X7348634Y-16524960D01*
X7348634Y-16524960D02*
X7329586Y-16534484D01*
X7329586Y-16534484D02*
X7310539Y-16534484D01*
X7310539Y-16534484D02*
X7291491Y-16524960D01*
X7291491Y-16524960D02*
X7281967Y-16515436D01*
X7281967Y-16515436D02*
X7272443Y-16496388D01*
X7272443Y-16496388D02*
X7262920Y-16458293D01*
X7262920Y-16458293D02*
X7262920Y-16410674D01*
X7262920Y-16410674D02*
X7272443Y-16372579D01*
X7272443Y-16372579D02*
X7281967Y-16353531D01*
X7281967Y-16353531D02*
X7291491Y-16344008D01*
X7291491Y-16344008D02*
X7310539Y-16334484D01*
X7462920Y-16534484D02*
X7462920Y-16401150D01*
X7462920Y-16420198D02*
X7472443Y-16410674D01*
X7472443Y-16410674D02*
X7491491Y-16401150D01*
X7491491Y-16401150D02*
X7520063Y-16401150D01*
X7520063Y-16401150D02*
X7539110Y-16410674D01*
X7539110Y-16410674D02*
X7548634Y-16429722D01*
X7548634Y-16429722D02*
X7548634Y-16534484D01*
X7548634Y-16429722D02*
X7558158Y-16410674D01*
X7558158Y-16410674D02*
X7577205Y-16401150D01*
X7577205Y-16401150D02*
X7605777Y-16401150D01*
X7605777Y-16401150D02*
X7624824Y-16410674D01*
X7624824Y-16410674D02*
X7634348Y-16429722D01*
X7634348Y-16429722D02*
X7634348Y-16534484D01*
X7729586Y-16534484D02*
X7729586Y-16401150D01*
X7729586Y-16420198D02*
X7739110Y-16410674D01*
X7739110Y-16410674D02*
X7758158Y-16401150D01*
X7758158Y-16401150D02*
X7786729Y-16401150D01*
X7786729Y-16401150D02*
X7805777Y-16410674D01*
X7805777Y-16410674D02*
X7815301Y-16429722D01*
X7815301Y-16429722D02*
X7815301Y-16534484D01*
X7815301Y-16429722D02*
X7824824Y-16410674D01*
X7824824Y-16410674D02*
X7843872Y-16401150D01*
X7843872Y-16401150D02*
X7872443Y-16401150D01*
X7872443Y-16401150D02*
X7891491Y-16410674D01*
X7891491Y-16410674D02*
X7901015Y-16429722D01*
X7901015Y-16429722D02*
X7901015Y-16534484D01*
X8291491Y-16324960D02*
X8120063Y-16582103D01*
X8548634Y-16334484D02*
X8567682Y-16334484D01*
X8567682Y-16334484D02*
X8586729Y-16344008D01*
X8586729Y-16344008D02*
X8596253Y-16353531D01*
X8596253Y-16353531D02*
X8605777Y-16372579D01*
X8605777Y-16372579D02*
X8615301Y-16410674D01*
X8615301Y-16410674D02*
X8615301Y-16458293D01*
X8615301Y-16458293D02*
X8605777Y-16496388D01*
X8605777Y-16496388D02*
X8596253Y-16515436D01*
X8596253Y-16515436D02*
X8586729Y-16524960D01*
X8586729Y-16524960D02*
X8567682Y-16534484D01*
X8567682Y-16534484D02*
X8548634Y-16534484D01*
X8548634Y-16534484D02*
X8529587Y-16524960D01*
X8529587Y-16524960D02*
X8520063Y-16515436D01*
X8520063Y-16515436D02*
X8510539Y-16496388D01*
X8510539Y-16496388D02*
X8501015Y-16458293D01*
X8501015Y-16458293D02*
X8501015Y-16410674D01*
X8501015Y-16410674D02*
X8510539Y-16372579D01*
X8510539Y-16372579D02*
X8520063Y-16353531D01*
X8520063Y-16353531D02*
X8529587Y-16344008D01*
X8529587Y-16344008D02*
X8548634Y-16334484D01*
X8701015Y-16515436D02*
X8710539Y-16524960D01*
X8710539Y-16524960D02*
X8701015Y-16534484D01*
X8701015Y-16534484D02*
X8691491Y-16524960D01*
X8691491Y-16524960D02*
X8701015Y-16515436D01*
X8701015Y-16515436D02*
X8701015Y-16534484D01*
X8834348Y-16334484D02*
X8853396Y-16334484D01*
X8853396Y-16334484D02*
X8872444Y-16344008D01*
X8872444Y-16344008D02*
X8881968Y-16353531D01*
X8881968Y-16353531D02*
X8891491Y-16372579D01*
X8891491Y-16372579D02*
X8901015Y-16410674D01*
X8901015Y-16410674D02*
X8901015Y-16458293D01*
X8901015Y-16458293D02*
X8891491Y-16496388D01*
X8891491Y-16496388D02*
X8881968Y-16515436D01*
X8881968Y-16515436D02*
X8872444Y-16524960D01*
X8872444Y-16524960D02*
X8853396Y-16534484D01*
X8853396Y-16534484D02*
X8834348Y-16534484D01*
X8834348Y-16534484D02*
X8815301Y-16524960D01*
X8815301Y-16524960D02*
X8805777Y-16515436D01*
X8805777Y-16515436D02*
X8796253Y-16496388D01*
X8796253Y-16496388D02*
X8786729Y-16458293D01*
X8786729Y-16458293D02*
X8786729Y-16410674D01*
X8786729Y-16410674D02*
X8796253Y-16372579D01*
X8796253Y-16372579D02*
X8805777Y-16353531D01*
X8805777Y-16353531D02*
X8815301Y-16344008D01*
X8815301Y-16344008D02*
X8834348Y-16334484D01*
X9072444Y-16401150D02*
X9072444Y-16534484D01*
X9024825Y-16324960D02*
X8977206Y-16467817D01*
X8977206Y-16467817D02*
X9101015Y-16467817D01*
X9158158Y-16334484D02*
X9281968Y-16334484D01*
X9281968Y-16334484D02*
X9215301Y-16410674D01*
X9215301Y-16410674D02*
X9243872Y-16410674D01*
X9243872Y-16410674D02*
X9262920Y-16420198D01*
X9262920Y-16420198D02*
X9272444Y-16429722D01*
X9272444Y-16429722D02*
X9281968Y-16448769D01*
X9281968Y-16448769D02*
X9281968Y-16496388D01*
X9281968Y-16496388D02*
X9272444Y-16515436D01*
X9272444Y-16515436D02*
X9262920Y-16524960D01*
X9262920Y-16524960D02*
X9243872Y-16534484D01*
X9243872Y-16534484D02*
X9186729Y-16534484D01*
X9186729Y-16534484D02*
X9167682Y-16524960D01*
X9167682Y-16524960D02*
X9158158Y-16515436D01*
X9348634Y-16334484D02*
X9472444Y-16334484D01*
X9472444Y-16334484D02*
X9405777Y-16410674D01*
X9405777Y-16410674D02*
X9434349Y-16410674D01*
X9434349Y-16410674D02*
X9453396Y-16420198D01*
X9453396Y-16420198D02*
X9462920Y-16429722D01*
X9462920Y-16429722D02*
X9472444Y-16448769D01*
X9472444Y-16448769D02*
X9472444Y-16496388D01*
X9472444Y-16496388D02*
X9462920Y-16515436D01*
X9462920Y-16515436D02*
X9453396Y-16524960D01*
X9453396Y-16524960D02*
X9434349Y-16534484D01*
X9434349Y-16534484D02*
X9377206Y-16534484D01*
X9377206Y-16534484D02*
X9358158Y-16524960D01*
X9358158Y-16524960D02*
X9348634Y-16515436D01*
X9548634Y-16334484D02*
X9548634Y-16372579D01*
X9624825Y-16334484D02*
X9624825Y-16372579D01*
X9920063Y-16610674D02*
X9910539Y-16601150D01*
X9910539Y-16601150D02*
X9891491Y-16572579D01*
X9891491Y-16572579D02*
X9881968Y-16553531D01*
X9881968Y-16553531D02*
X9872444Y-16524960D01*
X9872444Y-16524960D02*
X9862920Y-16477341D01*
X9862920Y-16477341D02*
X9862920Y-16439246D01*
X9862920Y-16439246D02*
X9872444Y-16391627D01*
X9872444Y-16391627D02*
X9881968Y-16363055D01*
X9881968Y-16363055D02*
X9891491Y-16344008D01*
X9891491Y-16344008D02*
X9910539Y-16315436D01*
X9910539Y-16315436D02*
X9920063Y-16305912D01*
X10081968Y-16401150D02*
X10081968Y-16534484D01*
X10034349Y-16324960D02*
X9986730Y-16467817D01*
X9986730Y-16467817D02*
X10110539Y-16467817D01*
X10167682Y-16334484D02*
X10291491Y-16334484D01*
X10291491Y-16334484D02*
X10224825Y-16410674D01*
X10224825Y-16410674D02*
X10253396Y-16410674D01*
X10253396Y-16410674D02*
X10272444Y-16420198D01*
X10272444Y-16420198D02*
X10281968Y-16429722D01*
X10281968Y-16429722D02*
X10291491Y-16448769D01*
X10291491Y-16448769D02*
X10291491Y-16496388D01*
X10291491Y-16496388D02*
X10281968Y-16515436D01*
X10281968Y-16515436D02*
X10272444Y-16524960D01*
X10272444Y-16524960D02*
X10253396Y-16534484D01*
X10253396Y-16534484D02*
X10196253Y-16534484D01*
X10196253Y-16534484D02*
X10177206Y-16524960D01*
X10177206Y-16524960D02*
X10167682Y-16515436D01*
X10529587Y-16534484D02*
X10529587Y-16334484D01*
X10615301Y-16534484D02*
X10615301Y-16429722D01*
X10615301Y-16429722D02*
X10605777Y-16410674D01*
X10605777Y-16410674D02*
X10586730Y-16401150D01*
X10586730Y-16401150D02*
X10558158Y-16401150D01*
X10558158Y-16401150D02*
X10539111Y-16410674D01*
X10539111Y-16410674D02*
X10529587Y-16420198D01*
X10739111Y-16534484D02*
X10720063Y-16524960D01*
X10720063Y-16524960D02*
X10710539Y-16515436D01*
X10710539Y-16515436D02*
X10701015Y-16496388D01*
X10701015Y-16496388D02*
X10701015Y-16439246D01*
X10701015Y-16439246D02*
X10710539Y-16420198D01*
X10710539Y-16420198D02*
X10720063Y-16410674D01*
X10720063Y-16410674D02*
X10739111Y-16401150D01*
X10739111Y-16401150D02*
X10767682Y-16401150D01*
X10767682Y-16401150D02*
X10786730Y-16410674D01*
X10786730Y-16410674D02*
X10796253Y-16420198D01*
X10796253Y-16420198D02*
X10805777Y-16439246D01*
X10805777Y-16439246D02*
X10805777Y-16496388D01*
X10805777Y-16496388D02*
X10796253Y-16515436D01*
X10796253Y-16515436D02*
X10786730Y-16524960D01*
X10786730Y-16524960D02*
X10767682Y-16534484D01*
X10767682Y-16534484D02*
X10739111Y-16534484D01*
X10920063Y-16534484D02*
X10901015Y-16524960D01*
X10901015Y-16524960D02*
X10891492Y-16505912D01*
X10891492Y-16505912D02*
X10891492Y-16334484D01*
X11072444Y-16524960D02*
X11053396Y-16534484D01*
X11053396Y-16534484D02*
X11015301Y-16534484D01*
X11015301Y-16534484D02*
X10996253Y-16524960D01*
X10996253Y-16524960D02*
X10986730Y-16505912D01*
X10986730Y-16505912D02*
X10986730Y-16429722D01*
X10986730Y-16429722D02*
X10996253Y-16410674D01*
X10996253Y-16410674D02*
X11015301Y-16401150D01*
X11015301Y-16401150D02*
X11053396Y-16401150D01*
X11053396Y-16401150D02*
X11072444Y-16410674D01*
X11072444Y-16410674D02*
X11081968Y-16429722D01*
X11081968Y-16429722D02*
X11081968Y-16448769D01*
X11081968Y-16448769D02*
X10986730Y-16467817D01*
X11158158Y-16524960D02*
X11177206Y-16534484D01*
X11177206Y-16534484D02*
X11215301Y-16534484D01*
X11215301Y-16534484D02*
X11234349Y-16524960D01*
X11234349Y-16524960D02*
X11243872Y-16505912D01*
X11243872Y-16505912D02*
X11243872Y-16496388D01*
X11243872Y-16496388D02*
X11234349Y-16477341D01*
X11234349Y-16477341D02*
X11215301Y-16467817D01*
X11215301Y-16467817D02*
X11186730Y-16467817D01*
X11186730Y-16467817D02*
X11167682Y-16458293D01*
X11167682Y-16458293D02*
X11158158Y-16439246D01*
X11158158Y-16439246D02*
X11158158Y-16429722D01*
X11158158Y-16429722D02*
X11167682Y-16410674D01*
X11167682Y-16410674D02*
X11186730Y-16401150D01*
X11186730Y-16401150D02*
X11215301Y-16401150D01*
X11215301Y-16401150D02*
X11234349Y-16410674D01*
X11310539Y-16610674D02*
X11320063Y-16601150D01*
X11320063Y-16601150D02*
X11339111Y-16572579D01*
X11339111Y-16572579D02*
X11348634Y-16553531D01*
X11348634Y-16553531D02*
X11358158Y-16524960D01*
X11358158Y-16524960D02*
X11367682Y-16477341D01*
X11367682Y-16477341D02*
X11367682Y-16439246D01*
X11367682Y-16439246D02*
X11358158Y-16391627D01*
X11358158Y-16391627D02*
X11348634Y-16363055D01*
X11348634Y-16363055D02*
X11339111Y-16344008D01*
X11339111Y-16344008D02*
X11320063Y-16315436D01*
X11320063Y-16315436D02*
X11310539Y-16305912D01*
D19*
X6205000Y-16637000D02*
X6345000Y-16777000D01*
X6345000Y-16637000D02*
X6205000Y-16777000D01*
X6275000Y-16777000D02*
X6345000Y-16707000D01*
X6275000Y-16637000D01*
X6205000Y-16707000D01*
X6275000Y-16777000D01*
D11*
X6710539Y-16798484D02*
X6596253Y-16798484D01*
X6653396Y-16798484D02*
X6653396Y-16598484D01*
X6653396Y-16598484D02*
X6634348Y-16627055D01*
X6634348Y-16627055D02*
X6615301Y-16646103D01*
X6615301Y-16646103D02*
X6596253Y-16655627D01*
X6796253Y-16779436D02*
X6805777Y-16788960D01*
X6805777Y-16788960D02*
X6796253Y-16798484D01*
X6796253Y-16798484D02*
X6786729Y-16788960D01*
X6786729Y-16788960D02*
X6796253Y-16779436D01*
X6796253Y-16779436D02*
X6796253Y-16798484D01*
X6977205Y-16665150D02*
X6977205Y-16798484D01*
X6929586Y-16588960D02*
X6881967Y-16731817D01*
X6881967Y-16731817D02*
X7005777Y-16731817D01*
X7120062Y-16598484D02*
X7139110Y-16598484D01*
X7139110Y-16598484D02*
X7158158Y-16608008D01*
X7158158Y-16608008D02*
X7167682Y-16617531D01*
X7167682Y-16617531D02*
X7177205Y-16636579D01*
X7177205Y-16636579D02*
X7186729Y-16674674D01*
X7186729Y-16674674D02*
X7186729Y-16722293D01*
X7186729Y-16722293D02*
X7177205Y-16760388D01*
X7177205Y-16760388D02*
X7167682Y-16779436D01*
X7167682Y-16779436D02*
X7158158Y-16788960D01*
X7158158Y-16788960D02*
X7139110Y-16798484D01*
X7139110Y-16798484D02*
X7120062Y-16798484D01*
X7120062Y-16798484D02*
X7101015Y-16788960D01*
X7101015Y-16788960D02*
X7091491Y-16779436D01*
X7091491Y-16779436D02*
X7081967Y-16760388D01*
X7081967Y-16760388D02*
X7072443Y-16722293D01*
X7072443Y-16722293D02*
X7072443Y-16674674D01*
X7072443Y-16674674D02*
X7081967Y-16636579D01*
X7081967Y-16636579D02*
X7091491Y-16617531D01*
X7091491Y-16617531D02*
X7101015Y-16608008D01*
X7101015Y-16608008D02*
X7120062Y-16598484D01*
X7310539Y-16598484D02*
X7329586Y-16598484D01*
X7329586Y-16598484D02*
X7348634Y-16608008D01*
X7348634Y-16608008D02*
X7358158Y-16617531D01*
X7358158Y-16617531D02*
X7367682Y-16636579D01*
X7367682Y-16636579D02*
X7377205Y-16674674D01*
X7377205Y-16674674D02*
X7377205Y-16722293D01*
X7377205Y-16722293D02*
X7367682Y-16760388D01*
X7367682Y-16760388D02*
X7358158Y-16779436D01*
X7358158Y-16779436D02*
X7348634Y-16788960D01*
X7348634Y-16788960D02*
X7329586Y-16798484D01*
X7329586Y-16798484D02*
X7310539Y-16798484D01*
X7310539Y-16798484D02*
X7291491Y-16788960D01*
X7291491Y-16788960D02*
X7281967Y-16779436D01*
X7281967Y-16779436D02*
X7272443Y-16760388D01*
X7272443Y-16760388D02*
X7262920Y-16722293D01*
X7262920Y-16722293D02*
X7262920Y-16674674D01*
X7262920Y-16674674D02*
X7272443Y-16636579D01*
X7272443Y-16636579D02*
X7281967Y-16617531D01*
X7281967Y-16617531D02*
X7291491Y-16608008D01*
X7291491Y-16608008D02*
X7310539Y-16598484D01*
X7462920Y-16798484D02*
X7462920Y-16665150D01*
X7462920Y-16684198D02*
X7472443Y-16674674D01*
X7472443Y-16674674D02*
X7491491Y-16665150D01*
X7491491Y-16665150D02*
X7520063Y-16665150D01*
X7520063Y-16665150D02*
X7539110Y-16674674D01*
X7539110Y-16674674D02*
X7548634Y-16693722D01*
X7548634Y-16693722D02*
X7548634Y-16798484D01*
X7548634Y-16693722D02*
X7558158Y-16674674D01*
X7558158Y-16674674D02*
X7577205Y-16665150D01*
X7577205Y-16665150D02*
X7605777Y-16665150D01*
X7605777Y-16665150D02*
X7624824Y-16674674D01*
X7624824Y-16674674D02*
X7634348Y-16693722D01*
X7634348Y-16693722D02*
X7634348Y-16798484D01*
X7729586Y-16798484D02*
X7729586Y-16665150D01*
X7729586Y-16684198D02*
X7739110Y-16674674D01*
X7739110Y-16674674D02*
X7758158Y-16665150D01*
X7758158Y-16665150D02*
X7786729Y-16665150D01*
X7786729Y-16665150D02*
X7805777Y-16674674D01*
X7805777Y-16674674D02*
X7815301Y-16693722D01*
X7815301Y-16693722D02*
X7815301Y-16798484D01*
X7815301Y-16693722D02*
X7824824Y-16674674D01*
X7824824Y-16674674D02*
X7843872Y-16665150D01*
X7843872Y-16665150D02*
X7872443Y-16665150D01*
X7872443Y-16665150D02*
X7891491Y-16674674D01*
X7891491Y-16674674D02*
X7901015Y-16693722D01*
X7901015Y-16693722D02*
X7901015Y-16798484D01*
X8291491Y-16588960D02*
X8120063Y-16846103D01*
X8548634Y-16598484D02*
X8567682Y-16598484D01*
X8567682Y-16598484D02*
X8586729Y-16608008D01*
X8586729Y-16608008D02*
X8596253Y-16617531D01*
X8596253Y-16617531D02*
X8605777Y-16636579D01*
X8605777Y-16636579D02*
X8615301Y-16674674D01*
X8615301Y-16674674D02*
X8615301Y-16722293D01*
X8615301Y-16722293D02*
X8605777Y-16760388D01*
X8605777Y-16760388D02*
X8596253Y-16779436D01*
X8596253Y-16779436D02*
X8586729Y-16788960D01*
X8586729Y-16788960D02*
X8567682Y-16798484D01*
X8567682Y-16798484D02*
X8548634Y-16798484D01*
X8548634Y-16798484D02*
X8529587Y-16788960D01*
X8529587Y-16788960D02*
X8520063Y-16779436D01*
X8520063Y-16779436D02*
X8510539Y-16760388D01*
X8510539Y-16760388D02*
X8501015Y-16722293D01*
X8501015Y-16722293D02*
X8501015Y-16674674D01*
X8501015Y-16674674D02*
X8510539Y-16636579D01*
X8510539Y-16636579D02*
X8520063Y-16617531D01*
X8520063Y-16617531D02*
X8529587Y-16608008D01*
X8529587Y-16608008D02*
X8548634Y-16598484D01*
X8701015Y-16779436D02*
X8710539Y-16788960D01*
X8710539Y-16788960D02*
X8701015Y-16798484D01*
X8701015Y-16798484D02*
X8691491Y-16788960D01*
X8691491Y-16788960D02*
X8701015Y-16779436D01*
X8701015Y-16779436D02*
X8701015Y-16798484D01*
X8834348Y-16598484D02*
X8853396Y-16598484D01*
X8853396Y-16598484D02*
X8872444Y-16608008D01*
X8872444Y-16608008D02*
X8881968Y-16617531D01*
X8881968Y-16617531D02*
X8891491Y-16636579D01*
X8891491Y-16636579D02*
X8901015Y-16674674D01*
X8901015Y-16674674D02*
X8901015Y-16722293D01*
X8901015Y-16722293D02*
X8891491Y-16760388D01*
X8891491Y-16760388D02*
X8881968Y-16779436D01*
X8881968Y-16779436D02*
X8872444Y-16788960D01*
X8872444Y-16788960D02*
X8853396Y-16798484D01*
X8853396Y-16798484D02*
X8834348Y-16798484D01*
X8834348Y-16798484D02*
X8815301Y-16788960D01*
X8815301Y-16788960D02*
X8805777Y-16779436D01*
X8805777Y-16779436D02*
X8796253Y-16760388D01*
X8796253Y-16760388D02*
X8786729Y-16722293D01*
X8786729Y-16722293D02*
X8786729Y-16674674D01*
X8786729Y-16674674D02*
X8796253Y-16636579D01*
X8796253Y-16636579D02*
X8805777Y-16617531D01*
X8805777Y-16617531D02*
X8815301Y-16608008D01*
X8815301Y-16608008D02*
X8834348Y-16598484D01*
X9081968Y-16598484D02*
X8986729Y-16598484D01*
X8986729Y-16598484D02*
X8977206Y-16693722D01*
X8977206Y-16693722D02*
X8986729Y-16684198D01*
X8986729Y-16684198D02*
X9005777Y-16674674D01*
X9005777Y-16674674D02*
X9053396Y-16674674D01*
X9053396Y-16674674D02*
X9072444Y-16684198D01*
X9072444Y-16684198D02*
X9081968Y-16693722D01*
X9081968Y-16693722D02*
X9091491Y-16712769D01*
X9091491Y-16712769D02*
X9091491Y-16760388D01*
X9091491Y-16760388D02*
X9081968Y-16779436D01*
X9081968Y-16779436D02*
X9072444Y-16788960D01*
X9072444Y-16788960D02*
X9053396Y-16798484D01*
X9053396Y-16798484D02*
X9005777Y-16798484D01*
X9005777Y-16798484D02*
X8986729Y-16788960D01*
X8986729Y-16788960D02*
X8977206Y-16779436D01*
X9272444Y-16598484D02*
X9177206Y-16598484D01*
X9177206Y-16598484D02*
X9167682Y-16693722D01*
X9167682Y-16693722D02*
X9177206Y-16684198D01*
X9177206Y-16684198D02*
X9196253Y-16674674D01*
X9196253Y-16674674D02*
X9243872Y-16674674D01*
X9243872Y-16674674D02*
X9262920Y-16684198D01*
X9262920Y-16684198D02*
X9272444Y-16693722D01*
X9272444Y-16693722D02*
X9281968Y-16712769D01*
X9281968Y-16712769D02*
X9281968Y-16760388D01*
X9281968Y-16760388D02*
X9272444Y-16779436D01*
X9272444Y-16779436D02*
X9262920Y-16788960D01*
X9262920Y-16788960D02*
X9243872Y-16798484D01*
X9243872Y-16798484D02*
X9196253Y-16798484D01*
X9196253Y-16798484D02*
X9177206Y-16788960D01*
X9177206Y-16788960D02*
X9167682Y-16779436D01*
X9472444Y-16798484D02*
X9358158Y-16798484D01*
X9415301Y-16798484D02*
X9415301Y-16598484D01*
X9415301Y-16598484D02*
X9396253Y-16627055D01*
X9396253Y-16627055D02*
X9377206Y-16646103D01*
X9377206Y-16646103D02*
X9358158Y-16655627D01*
X9548634Y-16598484D02*
X9548634Y-16636579D01*
X9624825Y-16598484D02*
X9624825Y-16636579D01*
X9920063Y-16874674D02*
X9910539Y-16865150D01*
X9910539Y-16865150D02*
X9891491Y-16836579D01*
X9891491Y-16836579D02*
X9881968Y-16817531D01*
X9881968Y-16817531D02*
X9872444Y-16788960D01*
X9872444Y-16788960D02*
X9862920Y-16741341D01*
X9862920Y-16741341D02*
X9862920Y-16703246D01*
X9862920Y-16703246D02*
X9872444Y-16655627D01*
X9872444Y-16655627D02*
X9881968Y-16627055D01*
X9881968Y-16627055D02*
X9891491Y-16608008D01*
X9891491Y-16608008D02*
X9910539Y-16579436D01*
X9910539Y-16579436D02*
X9920063Y-16569912D01*
X10101015Y-16798484D02*
X9986730Y-16798484D01*
X10043872Y-16798484D02*
X10043872Y-16598484D01*
X10043872Y-16598484D02*
X10024825Y-16627055D01*
X10024825Y-16627055D02*
X10005777Y-16646103D01*
X10005777Y-16646103D02*
X9986730Y-16655627D01*
X10272444Y-16665150D02*
X10272444Y-16798484D01*
X10224825Y-16588960D02*
X10177206Y-16731817D01*
X10177206Y-16731817D02*
X10301015Y-16731817D01*
X10529587Y-16798484D02*
X10529587Y-16598484D01*
X10615301Y-16798484D02*
X10615301Y-16693722D01*
X10615301Y-16693722D02*
X10605777Y-16674674D01*
X10605777Y-16674674D02*
X10586730Y-16665150D01*
X10586730Y-16665150D02*
X10558158Y-16665150D01*
X10558158Y-16665150D02*
X10539111Y-16674674D01*
X10539111Y-16674674D02*
X10529587Y-16684198D01*
X10739111Y-16798484D02*
X10720063Y-16788960D01*
X10720063Y-16788960D02*
X10710539Y-16779436D01*
X10710539Y-16779436D02*
X10701015Y-16760388D01*
X10701015Y-16760388D02*
X10701015Y-16703246D01*
X10701015Y-16703246D02*
X10710539Y-16684198D01*
X10710539Y-16684198D02*
X10720063Y-16674674D01*
X10720063Y-16674674D02*
X10739111Y-16665150D01*
X10739111Y-16665150D02*
X10767682Y-16665150D01*
X10767682Y-16665150D02*
X10786730Y-16674674D01*
X10786730Y-16674674D02*
X10796253Y-16684198D01*
X10796253Y-16684198D02*
X10805777Y-16703246D01*
X10805777Y-16703246D02*
X10805777Y-16760388D01*
X10805777Y-16760388D02*
X10796253Y-16779436D01*
X10796253Y-16779436D02*
X10786730Y-16788960D01*
X10786730Y-16788960D02*
X10767682Y-16798484D01*
X10767682Y-16798484D02*
X10739111Y-16798484D01*
X10920063Y-16798484D02*
X10901015Y-16788960D01*
X10901015Y-16788960D02*
X10891492Y-16769912D01*
X10891492Y-16769912D02*
X10891492Y-16598484D01*
X11072444Y-16788960D02*
X11053396Y-16798484D01*
X11053396Y-16798484D02*
X11015301Y-16798484D01*
X11015301Y-16798484D02*
X10996253Y-16788960D01*
X10996253Y-16788960D02*
X10986730Y-16769912D01*
X10986730Y-16769912D02*
X10986730Y-16693722D01*
X10986730Y-16693722D02*
X10996253Y-16674674D01*
X10996253Y-16674674D02*
X11015301Y-16665150D01*
X11015301Y-16665150D02*
X11053396Y-16665150D01*
X11053396Y-16665150D02*
X11072444Y-16674674D01*
X11072444Y-16674674D02*
X11081968Y-16693722D01*
X11081968Y-16693722D02*
X11081968Y-16712769D01*
X11081968Y-16712769D02*
X10986730Y-16731817D01*
X11158158Y-16788960D02*
X11177206Y-16798484D01*
X11177206Y-16798484D02*
X11215301Y-16798484D01*
X11215301Y-16798484D02*
X11234349Y-16788960D01*
X11234349Y-16788960D02*
X11243872Y-16769912D01*
X11243872Y-16769912D02*
X11243872Y-16760388D01*
X11243872Y-16760388D02*
X11234349Y-16741341D01*
X11234349Y-16741341D02*
X11215301Y-16731817D01*
X11215301Y-16731817D02*
X11186730Y-16731817D01*
X11186730Y-16731817D02*
X11167682Y-16722293D01*
X11167682Y-16722293D02*
X11158158Y-16703246D01*
X11158158Y-16703246D02*
X11158158Y-16693722D01*
X11158158Y-16693722D02*
X11167682Y-16674674D01*
X11167682Y-16674674D02*
X11186730Y-16665150D01*
X11186730Y-16665150D02*
X11215301Y-16665150D01*
X11215301Y-16665150D02*
X11234349Y-16674674D01*
X11310539Y-16874674D02*
X11320063Y-16865150D01*
X11320063Y-16865150D02*
X11339111Y-16836579D01*
X11339111Y-16836579D02*
X11348634Y-16817531D01*
X11348634Y-16817531D02*
X11358158Y-16788960D01*
X11358158Y-16788960D02*
X11367682Y-16741341D01*
X11367682Y-16741341D02*
X11367682Y-16703246D01*
X11367682Y-16703246D02*
X11358158Y-16655627D01*
X11358158Y-16655627D02*
X11348634Y-16627055D01*
X11348634Y-16627055D02*
X11339111Y-16608008D01*
X11339111Y-16608008D02*
X11320063Y-16579436D01*
X11320063Y-16579436D02*
X11310539Y-16569912D01*
X6245000Y-16871000D02*
X6245000Y-17071000D01*
X6145000Y-16971000D02*
X6345000Y-16971000D01*
X6345000Y-16971000D02*
G75*
G03*
X6345000Y-16971000I-100000J0D01*
G01*
X6596253Y-16881531D02*
X6605777Y-16872008D01*
X6605777Y-16872008D02*
X6624824Y-16862484D01*
X6624824Y-16862484D02*
X6672443Y-16862484D01*
X6672443Y-16862484D02*
X6691491Y-16872008D01*
X6691491Y-16872008D02*
X6701015Y-16881531D01*
X6701015Y-16881531D02*
X6710539Y-16900579D01*
X6710539Y-16900579D02*
X6710539Y-16919627D01*
X6710539Y-16919627D02*
X6701015Y-16948198D01*
X6701015Y-16948198D02*
X6586729Y-17062484D01*
X6586729Y-17062484D02*
X6710539Y-17062484D01*
X6796253Y-17043436D02*
X6805777Y-17052960D01*
X6805777Y-17052960D02*
X6796253Y-17062484D01*
X6796253Y-17062484D02*
X6786729Y-17052960D01*
X6786729Y-17052960D02*
X6796253Y-17043436D01*
X6796253Y-17043436D02*
X6796253Y-17062484D01*
X6872443Y-16862484D02*
X6996253Y-16862484D01*
X6996253Y-16862484D02*
X6929586Y-16938674D01*
X6929586Y-16938674D02*
X6958158Y-16938674D01*
X6958158Y-16938674D02*
X6977205Y-16948198D01*
X6977205Y-16948198D02*
X6986729Y-16957722D01*
X6986729Y-16957722D02*
X6996253Y-16976770D01*
X6996253Y-16976770D02*
X6996253Y-17024389D01*
X6996253Y-17024389D02*
X6986729Y-17043436D01*
X6986729Y-17043436D02*
X6977205Y-17052960D01*
X6977205Y-17052960D02*
X6958158Y-17062484D01*
X6958158Y-17062484D02*
X6901015Y-17062484D01*
X6901015Y-17062484D02*
X6881967Y-17052960D01*
X6881967Y-17052960D02*
X6872443Y-17043436D01*
X7120062Y-16862484D02*
X7139110Y-16862484D01*
X7139110Y-16862484D02*
X7158158Y-16872008D01*
X7158158Y-16872008D02*
X7167682Y-16881531D01*
X7167682Y-16881531D02*
X7177205Y-16900579D01*
X7177205Y-16900579D02*
X7186729Y-16938674D01*
X7186729Y-16938674D02*
X7186729Y-16986293D01*
X7186729Y-16986293D02*
X7177205Y-17024389D01*
X7177205Y-17024389D02*
X7167682Y-17043436D01*
X7167682Y-17043436D02*
X7158158Y-17052960D01*
X7158158Y-17052960D02*
X7139110Y-17062484D01*
X7139110Y-17062484D02*
X7120062Y-17062484D01*
X7120062Y-17062484D02*
X7101015Y-17052960D01*
X7101015Y-17052960D02*
X7091491Y-17043436D01*
X7091491Y-17043436D02*
X7081967Y-17024389D01*
X7081967Y-17024389D02*
X7072443Y-16986293D01*
X7072443Y-16986293D02*
X7072443Y-16938674D01*
X7072443Y-16938674D02*
X7081967Y-16900579D01*
X7081967Y-16900579D02*
X7091491Y-16881531D01*
X7091491Y-16881531D02*
X7101015Y-16872008D01*
X7101015Y-16872008D02*
X7120062Y-16862484D01*
X7310539Y-16862484D02*
X7329586Y-16862484D01*
X7329586Y-16862484D02*
X7348634Y-16872008D01*
X7348634Y-16872008D02*
X7358158Y-16881531D01*
X7358158Y-16881531D02*
X7367682Y-16900579D01*
X7367682Y-16900579D02*
X7377205Y-16938674D01*
X7377205Y-16938674D02*
X7377205Y-16986293D01*
X7377205Y-16986293D02*
X7367682Y-17024389D01*
X7367682Y-17024389D02*
X7358158Y-17043436D01*
X7358158Y-17043436D02*
X7348634Y-17052960D01*
X7348634Y-17052960D02*
X7329586Y-17062484D01*
X7329586Y-17062484D02*
X7310539Y-17062484D01*
X7310539Y-17062484D02*
X7291491Y-17052960D01*
X7291491Y-17052960D02*
X7281967Y-17043436D01*
X7281967Y-17043436D02*
X7272443Y-17024389D01*
X7272443Y-17024389D02*
X7262920Y-16986293D01*
X7262920Y-16986293D02*
X7262920Y-16938674D01*
X7262920Y-16938674D02*
X7272443Y-16900579D01*
X7272443Y-16900579D02*
X7281967Y-16881531D01*
X7281967Y-16881531D02*
X7291491Y-16872008D01*
X7291491Y-16872008D02*
X7310539Y-16862484D01*
X7462920Y-17062484D02*
X7462920Y-16929150D01*
X7462920Y-16948198D02*
X7472443Y-16938674D01*
X7472443Y-16938674D02*
X7491491Y-16929150D01*
X7491491Y-16929150D02*
X7520063Y-16929150D01*
X7520063Y-16929150D02*
X7539110Y-16938674D01*
X7539110Y-16938674D02*
X7548634Y-16957722D01*
X7548634Y-16957722D02*
X7548634Y-17062484D01*
X7548634Y-16957722D02*
X7558158Y-16938674D01*
X7558158Y-16938674D02*
X7577205Y-16929150D01*
X7577205Y-16929150D02*
X7605777Y-16929150D01*
X7605777Y-16929150D02*
X7624824Y-16938674D01*
X7624824Y-16938674D02*
X7634348Y-16957722D01*
X7634348Y-16957722D02*
X7634348Y-17062484D01*
X7729586Y-17062484D02*
X7729586Y-16929150D01*
X7729586Y-16948198D02*
X7739110Y-16938674D01*
X7739110Y-16938674D02*
X7758158Y-16929150D01*
X7758158Y-16929150D02*
X7786729Y-16929150D01*
X7786729Y-16929150D02*
X7805777Y-16938674D01*
X7805777Y-16938674D02*
X7815301Y-16957722D01*
X7815301Y-16957722D02*
X7815301Y-17062484D01*
X7815301Y-16957722D02*
X7824824Y-16938674D01*
X7824824Y-16938674D02*
X7843872Y-16929150D01*
X7843872Y-16929150D02*
X7872443Y-16929150D01*
X7872443Y-16929150D02*
X7891491Y-16938674D01*
X7891491Y-16938674D02*
X7901015Y-16957722D01*
X7901015Y-16957722D02*
X7901015Y-17062484D01*
X8291491Y-16852960D02*
X8120063Y-17110103D01*
X8548634Y-16862484D02*
X8567682Y-16862484D01*
X8567682Y-16862484D02*
X8586729Y-16872008D01*
X8586729Y-16872008D02*
X8596253Y-16881531D01*
X8596253Y-16881531D02*
X8605777Y-16900579D01*
X8605777Y-16900579D02*
X8615301Y-16938674D01*
X8615301Y-16938674D02*
X8615301Y-16986293D01*
X8615301Y-16986293D02*
X8605777Y-17024389D01*
X8605777Y-17024389D02*
X8596253Y-17043436D01*
X8596253Y-17043436D02*
X8586729Y-17052960D01*
X8586729Y-17052960D02*
X8567682Y-17062484D01*
X8567682Y-17062484D02*
X8548634Y-17062484D01*
X8548634Y-17062484D02*
X8529587Y-17052960D01*
X8529587Y-17052960D02*
X8520063Y-17043436D01*
X8520063Y-17043436D02*
X8510539Y-17024389D01*
X8510539Y-17024389D02*
X8501015Y-16986293D01*
X8501015Y-16986293D02*
X8501015Y-16938674D01*
X8501015Y-16938674D02*
X8510539Y-16900579D01*
X8510539Y-16900579D02*
X8520063Y-16881531D01*
X8520063Y-16881531D02*
X8529587Y-16872008D01*
X8529587Y-16872008D02*
X8548634Y-16862484D01*
X8701015Y-17043436D02*
X8710539Y-17052960D01*
X8710539Y-17052960D02*
X8701015Y-17062484D01*
X8701015Y-17062484D02*
X8691491Y-17052960D01*
X8691491Y-17052960D02*
X8701015Y-17043436D01*
X8701015Y-17043436D02*
X8701015Y-17062484D01*
X8834348Y-16862484D02*
X8853396Y-16862484D01*
X8853396Y-16862484D02*
X8872444Y-16872008D01*
X8872444Y-16872008D02*
X8881968Y-16881531D01*
X8881968Y-16881531D02*
X8891491Y-16900579D01*
X8891491Y-16900579D02*
X8901015Y-16938674D01*
X8901015Y-16938674D02*
X8901015Y-16986293D01*
X8901015Y-16986293D02*
X8891491Y-17024389D01*
X8891491Y-17024389D02*
X8881968Y-17043436D01*
X8881968Y-17043436D02*
X8872444Y-17052960D01*
X8872444Y-17052960D02*
X8853396Y-17062484D01*
X8853396Y-17062484D02*
X8834348Y-17062484D01*
X8834348Y-17062484D02*
X8815301Y-17052960D01*
X8815301Y-17052960D02*
X8805777Y-17043436D01*
X8805777Y-17043436D02*
X8796253Y-17024389D01*
X8796253Y-17024389D02*
X8786729Y-16986293D01*
X8786729Y-16986293D02*
X8786729Y-16938674D01*
X8786729Y-16938674D02*
X8796253Y-16900579D01*
X8796253Y-16900579D02*
X8805777Y-16881531D01*
X8805777Y-16881531D02*
X8815301Y-16872008D01*
X8815301Y-16872008D02*
X8834348Y-16862484D01*
X8996253Y-17062484D02*
X9034348Y-17062484D01*
X9034348Y-17062484D02*
X9053396Y-17052960D01*
X9053396Y-17052960D02*
X9062920Y-17043436D01*
X9062920Y-17043436D02*
X9081968Y-17014865D01*
X9081968Y-17014865D02*
X9091491Y-16976770D01*
X9091491Y-16976770D02*
X9091491Y-16900579D01*
X9091491Y-16900579D02*
X9081968Y-16881531D01*
X9081968Y-16881531D02*
X9072444Y-16872008D01*
X9072444Y-16872008D02*
X9053396Y-16862484D01*
X9053396Y-16862484D02*
X9015301Y-16862484D01*
X9015301Y-16862484D02*
X8996253Y-16872008D01*
X8996253Y-16872008D02*
X8986729Y-16881531D01*
X8986729Y-16881531D02*
X8977206Y-16900579D01*
X8977206Y-16900579D02*
X8977206Y-16948198D01*
X8977206Y-16948198D02*
X8986729Y-16967246D01*
X8986729Y-16967246D02*
X8996253Y-16976770D01*
X8996253Y-16976770D02*
X9015301Y-16986293D01*
X9015301Y-16986293D02*
X9053396Y-16986293D01*
X9053396Y-16986293D02*
X9072444Y-16976770D01*
X9072444Y-16976770D02*
X9081968Y-16967246D01*
X9081968Y-16967246D02*
X9091491Y-16948198D01*
X9215301Y-16862484D02*
X9234349Y-16862484D01*
X9234349Y-16862484D02*
X9253396Y-16872008D01*
X9253396Y-16872008D02*
X9262920Y-16881531D01*
X9262920Y-16881531D02*
X9272444Y-16900579D01*
X9272444Y-16900579D02*
X9281968Y-16938674D01*
X9281968Y-16938674D02*
X9281968Y-16986293D01*
X9281968Y-16986293D02*
X9272444Y-17024389D01*
X9272444Y-17024389D02*
X9262920Y-17043436D01*
X9262920Y-17043436D02*
X9253396Y-17052960D01*
X9253396Y-17052960D02*
X9234349Y-17062484D01*
X9234349Y-17062484D02*
X9215301Y-17062484D01*
X9215301Y-17062484D02*
X9196253Y-17052960D01*
X9196253Y-17052960D02*
X9186729Y-17043436D01*
X9186729Y-17043436D02*
X9177206Y-17024389D01*
X9177206Y-17024389D02*
X9167682Y-16986293D01*
X9167682Y-16986293D02*
X9167682Y-16938674D01*
X9167682Y-16938674D02*
X9177206Y-16900579D01*
X9177206Y-16900579D02*
X9186729Y-16881531D01*
X9186729Y-16881531D02*
X9196253Y-16872008D01*
X9196253Y-16872008D02*
X9215301Y-16862484D01*
X9453396Y-16862484D02*
X9415301Y-16862484D01*
X9415301Y-16862484D02*
X9396253Y-16872008D01*
X9396253Y-16872008D02*
X9386729Y-16881531D01*
X9386729Y-16881531D02*
X9367682Y-16910103D01*
X9367682Y-16910103D02*
X9358158Y-16948198D01*
X9358158Y-16948198D02*
X9358158Y-17024389D01*
X9358158Y-17024389D02*
X9367682Y-17043436D01*
X9367682Y-17043436D02*
X9377206Y-17052960D01*
X9377206Y-17052960D02*
X9396253Y-17062484D01*
X9396253Y-17062484D02*
X9434349Y-17062484D01*
X9434349Y-17062484D02*
X9453396Y-17052960D01*
X9453396Y-17052960D02*
X9462920Y-17043436D01*
X9462920Y-17043436D02*
X9472444Y-17024389D01*
X9472444Y-17024389D02*
X9472444Y-16976770D01*
X9472444Y-16976770D02*
X9462920Y-16957722D01*
X9462920Y-16957722D02*
X9453396Y-16948198D01*
X9453396Y-16948198D02*
X9434349Y-16938674D01*
X9434349Y-16938674D02*
X9396253Y-16938674D01*
X9396253Y-16938674D02*
X9377206Y-16948198D01*
X9377206Y-16948198D02*
X9367682Y-16957722D01*
X9367682Y-16957722D02*
X9358158Y-16976770D01*
X9548634Y-16862484D02*
X9548634Y-16900579D01*
X9624825Y-16862484D02*
X9624825Y-16900579D01*
X9920063Y-17138674D02*
X9910539Y-17129150D01*
X9910539Y-17129150D02*
X9891491Y-17100579D01*
X9891491Y-17100579D02*
X9881968Y-17081531D01*
X9881968Y-17081531D02*
X9872444Y-17052960D01*
X9872444Y-17052960D02*
X9862920Y-17005341D01*
X9862920Y-17005341D02*
X9862920Y-16967246D01*
X9862920Y-16967246D02*
X9872444Y-16919627D01*
X9872444Y-16919627D02*
X9881968Y-16891055D01*
X9881968Y-16891055D02*
X9891491Y-16872008D01*
X9891491Y-16872008D02*
X9910539Y-16843436D01*
X9910539Y-16843436D02*
X9920063Y-16833912D01*
X9986730Y-16881531D02*
X9996253Y-16872008D01*
X9996253Y-16872008D02*
X10015301Y-16862484D01*
X10015301Y-16862484D02*
X10062920Y-16862484D01*
X10062920Y-16862484D02*
X10081968Y-16872008D01*
X10081968Y-16872008D02*
X10091491Y-16881531D01*
X10091491Y-16881531D02*
X10101015Y-16900579D01*
X10101015Y-16900579D02*
X10101015Y-16919627D01*
X10101015Y-16919627D02*
X10091491Y-16948198D01*
X10091491Y-16948198D02*
X9977206Y-17062484D01*
X9977206Y-17062484D02*
X10101015Y-17062484D01*
X10339111Y-17062484D02*
X10339111Y-16862484D01*
X10424825Y-17062484D02*
X10424825Y-16957722D01*
X10424825Y-16957722D02*
X10415301Y-16938674D01*
X10415301Y-16938674D02*
X10396253Y-16929150D01*
X10396253Y-16929150D02*
X10367682Y-16929150D01*
X10367682Y-16929150D02*
X10348634Y-16938674D01*
X10348634Y-16938674D02*
X10339111Y-16948198D01*
X10548634Y-17062484D02*
X10529587Y-17052960D01*
X10529587Y-17052960D02*
X10520063Y-17043436D01*
X10520063Y-17043436D02*
X10510539Y-17024389D01*
X10510539Y-17024389D02*
X10510539Y-16967246D01*
X10510539Y-16967246D02*
X10520063Y-16948198D01*
X10520063Y-16948198D02*
X10529587Y-16938674D01*
X10529587Y-16938674D02*
X10548634Y-16929150D01*
X10548634Y-16929150D02*
X10577206Y-16929150D01*
X10577206Y-16929150D02*
X10596253Y-16938674D01*
X10596253Y-16938674D02*
X10605777Y-16948198D01*
X10605777Y-16948198D02*
X10615301Y-16967246D01*
X10615301Y-16967246D02*
X10615301Y-17024389D01*
X10615301Y-17024389D02*
X10605777Y-17043436D01*
X10605777Y-17043436D02*
X10596253Y-17052960D01*
X10596253Y-17052960D02*
X10577206Y-17062484D01*
X10577206Y-17062484D02*
X10548634Y-17062484D01*
X10729587Y-17062484D02*
X10710539Y-17052960D01*
X10710539Y-17052960D02*
X10701015Y-17033912D01*
X10701015Y-17033912D02*
X10701015Y-16862484D01*
X10881968Y-17052960D02*
X10862920Y-17062484D01*
X10862920Y-17062484D02*
X10824825Y-17062484D01*
X10824825Y-17062484D02*
X10805777Y-17052960D01*
X10805777Y-17052960D02*
X10796253Y-17033912D01*
X10796253Y-17033912D02*
X10796253Y-16957722D01*
X10796253Y-16957722D02*
X10805777Y-16938674D01*
X10805777Y-16938674D02*
X10824825Y-16929150D01*
X10824825Y-16929150D02*
X10862920Y-16929150D01*
X10862920Y-16929150D02*
X10881968Y-16938674D01*
X10881968Y-16938674D02*
X10891492Y-16957722D01*
X10891492Y-16957722D02*
X10891492Y-16976770D01*
X10891492Y-16976770D02*
X10796253Y-16995817D01*
X10967682Y-17052960D02*
X10986730Y-17062484D01*
X10986730Y-17062484D02*
X11024825Y-17062484D01*
X11024825Y-17062484D02*
X11043873Y-17052960D01*
X11043873Y-17052960D02*
X11053396Y-17033912D01*
X11053396Y-17033912D02*
X11053396Y-17024389D01*
X11053396Y-17024389D02*
X11043873Y-17005341D01*
X11043873Y-17005341D02*
X11024825Y-16995817D01*
X11024825Y-16995817D02*
X10996253Y-16995817D01*
X10996253Y-16995817D02*
X10977206Y-16986293D01*
X10977206Y-16986293D02*
X10967682Y-16967246D01*
X10967682Y-16967246D02*
X10967682Y-16957722D01*
X10967682Y-16957722D02*
X10977206Y-16938674D01*
X10977206Y-16938674D02*
X10996253Y-16929150D01*
X10996253Y-16929150D02*
X11024825Y-16929150D01*
X11024825Y-16929150D02*
X11043873Y-16938674D01*
X11120063Y-17138674D02*
X11129587Y-17129150D01*
X11129587Y-17129150D02*
X11148634Y-17100579D01*
X11148634Y-17100579D02*
X11158158Y-17081531D01*
X11158158Y-17081531D02*
X11167682Y-17052960D01*
X11167682Y-17052960D02*
X11177206Y-17005341D01*
X11177206Y-17005341D02*
X11177206Y-16967246D01*
X11177206Y-16967246D02*
X11167682Y-16919627D01*
X11167682Y-16919627D02*
X11158158Y-16891055D01*
X11158158Y-16891055D02*
X11148634Y-16872008D01*
X11148634Y-16872008D02*
X11129587Y-16843436D01*
X11129587Y-16843436D02*
X11120063Y-16833912D01*
X6315711Y-17361711D02*
X6315711Y-17220289D01*
X6174289Y-17220289D01*
X6174289Y-17361711D01*
X6315711Y-17361711D01*
X6345000Y-17291000D02*
G75*
G03*
X6345000Y-17291000I-100000J0D01*
G01*
X6596253Y-17201531D02*
X6605777Y-17192008D01*
X6605777Y-17192008D02*
X6624824Y-17182484D01*
X6624824Y-17182484D02*
X6672443Y-17182484D01*
X6672443Y-17182484D02*
X6691491Y-17192008D01*
X6691491Y-17192008D02*
X6701015Y-17201531D01*
X6701015Y-17201531D02*
X6710539Y-17220579D01*
X6710539Y-17220579D02*
X6710539Y-17239627D01*
X6710539Y-17239627D02*
X6701015Y-17268198D01*
X6701015Y-17268198D02*
X6586729Y-17382484D01*
X6586729Y-17382484D02*
X6710539Y-17382484D01*
X6796253Y-17363436D02*
X6805777Y-17372960D01*
X6805777Y-17372960D02*
X6796253Y-17382484D01*
X6796253Y-17382484D02*
X6786729Y-17372960D01*
X6786729Y-17372960D02*
X6796253Y-17363436D01*
X6796253Y-17363436D02*
X6796253Y-17382484D01*
X6986729Y-17182484D02*
X6891491Y-17182484D01*
X6891491Y-17182484D02*
X6881967Y-17277722D01*
X6881967Y-17277722D02*
X6891491Y-17268198D01*
X6891491Y-17268198D02*
X6910539Y-17258674D01*
X6910539Y-17258674D02*
X6958158Y-17258674D01*
X6958158Y-17258674D02*
X6977205Y-17268198D01*
X6977205Y-17268198D02*
X6986729Y-17277722D01*
X6986729Y-17277722D02*
X6996253Y-17296770D01*
X6996253Y-17296770D02*
X6996253Y-17344389D01*
X6996253Y-17344389D02*
X6986729Y-17363436D01*
X6986729Y-17363436D02*
X6977205Y-17372960D01*
X6977205Y-17372960D02*
X6958158Y-17382484D01*
X6958158Y-17382484D02*
X6910539Y-17382484D01*
X6910539Y-17382484D02*
X6891491Y-17372960D01*
X6891491Y-17372960D02*
X6881967Y-17363436D01*
X7120062Y-17182484D02*
X7139110Y-17182484D01*
X7139110Y-17182484D02*
X7158158Y-17192008D01*
X7158158Y-17192008D02*
X7167682Y-17201531D01*
X7167682Y-17201531D02*
X7177205Y-17220579D01*
X7177205Y-17220579D02*
X7186729Y-17258674D01*
X7186729Y-17258674D02*
X7186729Y-17306293D01*
X7186729Y-17306293D02*
X7177205Y-17344389D01*
X7177205Y-17344389D02*
X7167682Y-17363436D01*
X7167682Y-17363436D02*
X7158158Y-17372960D01*
X7158158Y-17372960D02*
X7139110Y-17382484D01*
X7139110Y-17382484D02*
X7120062Y-17382484D01*
X7120062Y-17382484D02*
X7101015Y-17372960D01*
X7101015Y-17372960D02*
X7091491Y-17363436D01*
X7091491Y-17363436D02*
X7081967Y-17344389D01*
X7081967Y-17344389D02*
X7072443Y-17306293D01*
X7072443Y-17306293D02*
X7072443Y-17258674D01*
X7072443Y-17258674D02*
X7081967Y-17220579D01*
X7081967Y-17220579D02*
X7091491Y-17201531D01*
X7091491Y-17201531D02*
X7101015Y-17192008D01*
X7101015Y-17192008D02*
X7120062Y-17182484D01*
X7310539Y-17182484D02*
X7329586Y-17182484D01*
X7329586Y-17182484D02*
X7348634Y-17192008D01*
X7348634Y-17192008D02*
X7358158Y-17201531D01*
X7358158Y-17201531D02*
X7367682Y-17220579D01*
X7367682Y-17220579D02*
X7377205Y-17258674D01*
X7377205Y-17258674D02*
X7377205Y-17306293D01*
X7377205Y-17306293D02*
X7367682Y-17344389D01*
X7367682Y-17344389D02*
X7358158Y-17363436D01*
X7358158Y-17363436D02*
X7348634Y-17372960D01*
X7348634Y-17372960D02*
X7329586Y-17382484D01*
X7329586Y-17382484D02*
X7310539Y-17382484D01*
X7310539Y-17382484D02*
X7291491Y-17372960D01*
X7291491Y-17372960D02*
X7281967Y-17363436D01*
X7281967Y-17363436D02*
X7272443Y-17344389D01*
X7272443Y-17344389D02*
X7262920Y-17306293D01*
X7262920Y-17306293D02*
X7262920Y-17258674D01*
X7262920Y-17258674D02*
X7272443Y-17220579D01*
X7272443Y-17220579D02*
X7281967Y-17201531D01*
X7281967Y-17201531D02*
X7291491Y-17192008D01*
X7291491Y-17192008D02*
X7310539Y-17182484D01*
X7462920Y-17382484D02*
X7462920Y-17249150D01*
X7462920Y-17268198D02*
X7472443Y-17258674D01*
X7472443Y-17258674D02*
X7491491Y-17249150D01*
X7491491Y-17249150D02*
X7520063Y-17249150D01*
X7520063Y-17249150D02*
X7539110Y-17258674D01*
X7539110Y-17258674D02*
X7548634Y-17277722D01*
X7548634Y-17277722D02*
X7548634Y-17382484D01*
X7548634Y-17277722D02*
X7558158Y-17258674D01*
X7558158Y-17258674D02*
X7577205Y-17249150D01*
X7577205Y-17249150D02*
X7605777Y-17249150D01*
X7605777Y-17249150D02*
X7624824Y-17258674D01*
X7624824Y-17258674D02*
X7634348Y-17277722D01*
X7634348Y-17277722D02*
X7634348Y-17382484D01*
X7729586Y-17382484D02*
X7729586Y-17249150D01*
X7729586Y-17268198D02*
X7739110Y-17258674D01*
X7739110Y-17258674D02*
X7758158Y-17249150D01*
X7758158Y-17249150D02*
X7786729Y-17249150D01*
X7786729Y-17249150D02*
X7805777Y-17258674D01*
X7805777Y-17258674D02*
X7815301Y-17277722D01*
X7815301Y-17277722D02*
X7815301Y-17382484D01*
X7815301Y-17277722D02*
X7824824Y-17258674D01*
X7824824Y-17258674D02*
X7843872Y-17249150D01*
X7843872Y-17249150D02*
X7872443Y-17249150D01*
X7872443Y-17249150D02*
X7891491Y-17258674D01*
X7891491Y-17258674D02*
X7901015Y-17277722D01*
X7901015Y-17277722D02*
X7901015Y-17382484D01*
X8291491Y-17172960D02*
X8120063Y-17430103D01*
X8548634Y-17182484D02*
X8567682Y-17182484D01*
X8567682Y-17182484D02*
X8586729Y-17192008D01*
X8586729Y-17192008D02*
X8596253Y-17201531D01*
X8596253Y-17201531D02*
X8605777Y-17220579D01*
X8605777Y-17220579D02*
X8615301Y-17258674D01*
X8615301Y-17258674D02*
X8615301Y-17306293D01*
X8615301Y-17306293D02*
X8605777Y-17344389D01*
X8605777Y-17344389D02*
X8596253Y-17363436D01*
X8596253Y-17363436D02*
X8586729Y-17372960D01*
X8586729Y-17372960D02*
X8567682Y-17382484D01*
X8567682Y-17382484D02*
X8548634Y-17382484D01*
X8548634Y-17382484D02*
X8529587Y-17372960D01*
X8529587Y-17372960D02*
X8520063Y-17363436D01*
X8520063Y-17363436D02*
X8510539Y-17344389D01*
X8510539Y-17344389D02*
X8501015Y-17306293D01*
X8501015Y-17306293D02*
X8501015Y-17258674D01*
X8501015Y-17258674D02*
X8510539Y-17220579D01*
X8510539Y-17220579D02*
X8520063Y-17201531D01*
X8520063Y-17201531D02*
X8529587Y-17192008D01*
X8529587Y-17192008D02*
X8548634Y-17182484D01*
X8701015Y-17363436D02*
X8710539Y-17372960D01*
X8710539Y-17372960D02*
X8701015Y-17382484D01*
X8701015Y-17382484D02*
X8691491Y-17372960D01*
X8691491Y-17372960D02*
X8701015Y-17363436D01*
X8701015Y-17363436D02*
X8701015Y-17382484D01*
X8834348Y-17182484D02*
X8853396Y-17182484D01*
X8853396Y-17182484D02*
X8872444Y-17192008D01*
X8872444Y-17192008D02*
X8881968Y-17201531D01*
X8881968Y-17201531D02*
X8891491Y-17220579D01*
X8891491Y-17220579D02*
X8901015Y-17258674D01*
X8901015Y-17258674D02*
X8901015Y-17306293D01*
X8901015Y-17306293D02*
X8891491Y-17344389D01*
X8891491Y-17344389D02*
X8881968Y-17363436D01*
X8881968Y-17363436D02*
X8872444Y-17372960D01*
X8872444Y-17372960D02*
X8853396Y-17382484D01*
X8853396Y-17382484D02*
X8834348Y-17382484D01*
X8834348Y-17382484D02*
X8815301Y-17372960D01*
X8815301Y-17372960D02*
X8805777Y-17363436D01*
X8805777Y-17363436D02*
X8796253Y-17344389D01*
X8796253Y-17344389D02*
X8786729Y-17306293D01*
X8786729Y-17306293D02*
X8786729Y-17258674D01*
X8786729Y-17258674D02*
X8796253Y-17220579D01*
X8796253Y-17220579D02*
X8805777Y-17201531D01*
X8805777Y-17201531D02*
X8815301Y-17192008D01*
X8815301Y-17192008D02*
X8834348Y-17182484D01*
X8996253Y-17382484D02*
X9034348Y-17382484D01*
X9034348Y-17382484D02*
X9053396Y-17372960D01*
X9053396Y-17372960D02*
X9062920Y-17363436D01*
X9062920Y-17363436D02*
X9081968Y-17334865D01*
X9081968Y-17334865D02*
X9091491Y-17296770D01*
X9091491Y-17296770D02*
X9091491Y-17220579D01*
X9091491Y-17220579D02*
X9081968Y-17201531D01*
X9081968Y-17201531D02*
X9072444Y-17192008D01*
X9072444Y-17192008D02*
X9053396Y-17182484D01*
X9053396Y-17182484D02*
X9015301Y-17182484D01*
X9015301Y-17182484D02*
X8996253Y-17192008D01*
X8996253Y-17192008D02*
X8986729Y-17201531D01*
X8986729Y-17201531D02*
X8977206Y-17220579D01*
X8977206Y-17220579D02*
X8977206Y-17268198D01*
X8977206Y-17268198D02*
X8986729Y-17287246D01*
X8986729Y-17287246D02*
X8996253Y-17296770D01*
X8996253Y-17296770D02*
X9015301Y-17306293D01*
X9015301Y-17306293D02*
X9053396Y-17306293D01*
X9053396Y-17306293D02*
X9072444Y-17296770D01*
X9072444Y-17296770D02*
X9081968Y-17287246D01*
X9081968Y-17287246D02*
X9091491Y-17268198D01*
X9205777Y-17268198D02*
X9186729Y-17258674D01*
X9186729Y-17258674D02*
X9177206Y-17249150D01*
X9177206Y-17249150D02*
X9167682Y-17230103D01*
X9167682Y-17230103D02*
X9167682Y-17220579D01*
X9167682Y-17220579D02*
X9177206Y-17201531D01*
X9177206Y-17201531D02*
X9186729Y-17192008D01*
X9186729Y-17192008D02*
X9205777Y-17182484D01*
X9205777Y-17182484D02*
X9243872Y-17182484D01*
X9243872Y-17182484D02*
X9262920Y-17192008D01*
X9262920Y-17192008D02*
X9272444Y-17201531D01*
X9272444Y-17201531D02*
X9281968Y-17220579D01*
X9281968Y-17220579D02*
X9281968Y-17230103D01*
X9281968Y-17230103D02*
X9272444Y-17249150D01*
X9272444Y-17249150D02*
X9262920Y-17258674D01*
X9262920Y-17258674D02*
X9243872Y-17268198D01*
X9243872Y-17268198D02*
X9205777Y-17268198D01*
X9205777Y-17268198D02*
X9186729Y-17277722D01*
X9186729Y-17277722D02*
X9177206Y-17287246D01*
X9177206Y-17287246D02*
X9167682Y-17306293D01*
X9167682Y-17306293D02*
X9167682Y-17344389D01*
X9167682Y-17344389D02*
X9177206Y-17363436D01*
X9177206Y-17363436D02*
X9186729Y-17372960D01*
X9186729Y-17372960D02*
X9205777Y-17382484D01*
X9205777Y-17382484D02*
X9243872Y-17382484D01*
X9243872Y-17382484D02*
X9262920Y-17372960D01*
X9262920Y-17372960D02*
X9272444Y-17363436D01*
X9272444Y-17363436D02*
X9281968Y-17344389D01*
X9281968Y-17344389D02*
X9281968Y-17306293D01*
X9281968Y-17306293D02*
X9272444Y-17287246D01*
X9272444Y-17287246D02*
X9262920Y-17277722D01*
X9262920Y-17277722D02*
X9243872Y-17268198D01*
X9453396Y-17249150D02*
X9453396Y-17382484D01*
X9405777Y-17172960D02*
X9358158Y-17315817D01*
X9358158Y-17315817D02*
X9481968Y-17315817D01*
X9548634Y-17182484D02*
X9548634Y-17220579D01*
X9624825Y-17182484D02*
X9624825Y-17220579D01*
X9920063Y-17458674D02*
X9910539Y-17449150D01*
X9910539Y-17449150D02*
X9891491Y-17420579D01*
X9891491Y-17420579D02*
X9881968Y-17401531D01*
X9881968Y-17401531D02*
X9872444Y-17372960D01*
X9872444Y-17372960D02*
X9862920Y-17325341D01*
X9862920Y-17325341D02*
X9862920Y-17287246D01*
X9862920Y-17287246D02*
X9872444Y-17239627D01*
X9872444Y-17239627D02*
X9881968Y-17211055D01*
X9881968Y-17211055D02*
X9891491Y-17192008D01*
X9891491Y-17192008D02*
X9910539Y-17163436D01*
X9910539Y-17163436D02*
X9920063Y-17153912D01*
X10081968Y-17182484D02*
X10043872Y-17182484D01*
X10043872Y-17182484D02*
X10024825Y-17192008D01*
X10024825Y-17192008D02*
X10015301Y-17201531D01*
X10015301Y-17201531D02*
X9996253Y-17230103D01*
X9996253Y-17230103D02*
X9986730Y-17268198D01*
X9986730Y-17268198D02*
X9986730Y-17344389D01*
X9986730Y-17344389D02*
X9996253Y-17363436D01*
X9996253Y-17363436D02*
X10005777Y-17372960D01*
X10005777Y-17372960D02*
X10024825Y-17382484D01*
X10024825Y-17382484D02*
X10062920Y-17382484D01*
X10062920Y-17382484D02*
X10081968Y-17372960D01*
X10081968Y-17372960D02*
X10091491Y-17363436D01*
X10091491Y-17363436D02*
X10101015Y-17344389D01*
X10101015Y-17344389D02*
X10101015Y-17296770D01*
X10101015Y-17296770D02*
X10091491Y-17277722D01*
X10091491Y-17277722D02*
X10081968Y-17268198D01*
X10081968Y-17268198D02*
X10062920Y-17258674D01*
X10062920Y-17258674D02*
X10024825Y-17258674D01*
X10024825Y-17258674D02*
X10005777Y-17268198D01*
X10005777Y-17268198D02*
X9996253Y-17277722D01*
X9996253Y-17277722D02*
X9986730Y-17296770D01*
X10339111Y-17382484D02*
X10339111Y-17182484D01*
X10424825Y-17382484D02*
X10424825Y-17277722D01*
X10424825Y-17277722D02*
X10415301Y-17258674D01*
X10415301Y-17258674D02*
X10396253Y-17249150D01*
X10396253Y-17249150D02*
X10367682Y-17249150D01*
X10367682Y-17249150D02*
X10348634Y-17258674D01*
X10348634Y-17258674D02*
X10339111Y-17268198D01*
X10548634Y-17382484D02*
X10529587Y-17372960D01*
X10529587Y-17372960D02*
X10520063Y-17363436D01*
X10520063Y-17363436D02*
X10510539Y-17344389D01*
X10510539Y-17344389D02*
X10510539Y-17287246D01*
X10510539Y-17287246D02*
X10520063Y-17268198D01*
X10520063Y-17268198D02*
X10529587Y-17258674D01*
X10529587Y-17258674D02*
X10548634Y-17249150D01*
X10548634Y-17249150D02*
X10577206Y-17249150D01*
X10577206Y-17249150D02*
X10596253Y-17258674D01*
X10596253Y-17258674D02*
X10605777Y-17268198D01*
X10605777Y-17268198D02*
X10615301Y-17287246D01*
X10615301Y-17287246D02*
X10615301Y-17344389D01*
X10615301Y-17344389D02*
X10605777Y-17363436D01*
X10605777Y-17363436D02*
X10596253Y-17372960D01*
X10596253Y-17372960D02*
X10577206Y-17382484D01*
X10577206Y-17382484D02*
X10548634Y-17382484D01*
X10729587Y-17382484D02*
X10710539Y-17372960D01*
X10710539Y-17372960D02*
X10701015Y-17353912D01*
X10701015Y-17353912D02*
X10701015Y-17182484D01*
X10881968Y-17372960D02*
X10862920Y-17382484D01*
X10862920Y-17382484D02*
X10824825Y-17382484D01*
X10824825Y-17382484D02*
X10805777Y-17372960D01*
X10805777Y-17372960D02*
X10796253Y-17353912D01*
X10796253Y-17353912D02*
X10796253Y-17277722D01*
X10796253Y-17277722D02*
X10805777Y-17258674D01*
X10805777Y-17258674D02*
X10824825Y-17249150D01*
X10824825Y-17249150D02*
X10862920Y-17249150D01*
X10862920Y-17249150D02*
X10881968Y-17258674D01*
X10881968Y-17258674D02*
X10891492Y-17277722D01*
X10891492Y-17277722D02*
X10891492Y-17296770D01*
X10891492Y-17296770D02*
X10796253Y-17315817D01*
X10967682Y-17372960D02*
X10986730Y-17382484D01*
X10986730Y-17382484D02*
X11024825Y-17382484D01*
X11024825Y-17382484D02*
X11043873Y-17372960D01*
X11043873Y-17372960D02*
X11053396Y-17353912D01*
X11053396Y-17353912D02*
X11053396Y-17344389D01*
X11053396Y-17344389D02*
X11043873Y-17325341D01*
X11043873Y-17325341D02*
X11024825Y-17315817D01*
X11024825Y-17315817D02*
X10996253Y-17315817D01*
X10996253Y-17315817D02*
X10977206Y-17306293D01*
X10977206Y-17306293D02*
X10967682Y-17287246D01*
X10967682Y-17287246D02*
X10967682Y-17277722D01*
X10967682Y-17277722D02*
X10977206Y-17258674D01*
X10977206Y-17258674D02*
X10996253Y-17249150D01*
X10996253Y-17249150D02*
X11024825Y-17249150D01*
X11024825Y-17249150D02*
X11043873Y-17258674D01*
X11120063Y-17458674D02*
X11129587Y-17449150D01*
X11129587Y-17449150D02*
X11148634Y-17420579D01*
X11148634Y-17420579D02*
X11158158Y-17401531D01*
X11158158Y-17401531D02*
X11167682Y-17372960D01*
X11167682Y-17372960D02*
X11177206Y-17325341D01*
X11177206Y-17325341D02*
X11177206Y-17287246D01*
X11177206Y-17287246D02*
X11167682Y-17239627D01*
X11167682Y-17239627D02*
X11158158Y-17211055D01*
X11158158Y-17211055D02*
X11148634Y-17192008D01*
X11148634Y-17192008D02*
X11129587Y-17163436D01*
X11129587Y-17163436D02*
X11120063Y-17153912D01*
M02*
