M48
; DRILL file {KiCad 7.0.6} date Tue Oct  3 18:06:28 2023
; FORMAT={-:-/ absolute / metric / decimal}
; #@! TF.CreationDate,2023-10-03T18:06:28-04:00
; #@! TF.GenerationSoftware,Kicad,Pcbnew,7.0.6
; #@! TF.FileFunction,Plated,1,2,PTH
FMAT,2
METRIC
; #@! TA.AperFunction,Plated,PTH,ViaDrill
T1C0.400
; #@! TA.AperFunction,Plated,PTH,ComponentDrill
T2C0.600
; #@! TA.AperFunction,Plated,PTH,ComponentDrill
T3C0.700
; #@! TA.AperFunction,Plated,PTH,ComponentDrill
T4C0.750
; #@! TA.AperFunction,Plated,PTH,ComponentDrill
T5C0.800
; #@! TA.AperFunction,Plated,PTH,ComponentDrill
T6C1.000
; #@! TA.AperFunction,Plated,PTH,ComponentDrill
T7C1.016
; #@! TA.AperFunction,Plated,PTH,ComponentDrill
T8C1.100
; #@! TA.AperFunction,Plated,PTH,ComponentDrill
T9C1.400
; #@! TA.AperFunction,Plated,PTH,ComponentDrill
T10C2.300
; #@! TA.AperFunction,Plated,PTH,ComponentDrill
T11C2.500
%
G90
G05
T1
X152.4Y-91.216
T2
X84.052Y-97.5
X86.052Y-97.5
X93.877Y-111.38
X94.072Y-106.5
X95.877Y-111.38
X96.072Y-106.5
X104.85Y-97.5
X106.85Y-97.5
T4
X123.613Y-131.241
X123.613Y-133.241
X123.613Y-135.241
X131.191Y-131.145
X131.191Y-133.145
X131.191Y-135.145
X138.811Y-131.145
X138.811Y-133.145
X138.811Y-135.145
X139.75Y-103.25
X141.75Y-103.25
X143.75Y-103.25
X145.75Y-103.25
X146.431Y-131.209
X146.431Y-133.209
X146.431Y-135.209
X147.75Y-103.25
X149.75Y-103.25
X154.051Y-131.177
X154.051Y-133.177
X161.671Y-131.177
X161.671Y-133.177
T5
X76.215Y-93.26
X77.9Y-97.38
X77.9Y-105.0
X80.7Y-105.0
X80.7Y-107.54
X80.7Y-110.08
X80.7Y-112.62
X83.835Y-93.26
X86.025Y-93.26
X88.32Y-105.0
X88.32Y-107.54
X88.32Y-110.08
X88.32Y-112.62
X91.025Y-93.26
X91.025Y-97.182
X91.025Y-99.682
X91.1Y-105.1
X91.1Y-110.1
X99.0Y-107.6
X99.0Y-112.6
X99.1Y-93.26
X99.15Y-97.2
X99.15Y-99.7
X101.68Y-105.08
X101.68Y-107.62
X101.68Y-110.16
X101.68Y-112.7
X104.1Y-93.26
X106.3Y-93.26
X109.3Y-105.08
X109.3Y-107.62
X109.3Y-110.16
X109.3Y-112.7
X112.0Y-97.48
X112.0Y-105.1
X113.92Y-93.26
X134.5Y-94.13
X134.5Y-101.75
X149.86Y-107.315
X157.48Y-107.315
X160.1Y-86.6
X160.1Y-91.6
X160.655Y-100.33
X160.655Y-107.95
X163.83Y-100.33
X163.83Y-107.95
X166.6Y-129.6
X167.005Y-100.33
X167.005Y-107.95
X171.6Y-129.6
T6
X90.5Y-118.0
X92.5Y-118.0
X94.5Y-118.0
X96.5Y-118.0
X98.5Y-118.0
X156.743Y-73.64
X156.743Y-76.18
T7
X156.743Y-78.72
X156.743Y-81.26
X156.743Y-83.8
X156.743Y-86.34
X156.743Y-88.88
X156.743Y-91.42
T8
X120.505Y-111.0
X120.505Y-126.24
X123.045Y-111.0
X123.045Y-126.24
X125.585Y-111.0
X125.585Y-126.24
X128.125Y-111.0
X128.125Y-126.24
X130.665Y-111.0
X130.665Y-126.24
X131.25Y-95.46
X131.25Y-98.0
X131.25Y-100.54
X133.205Y-111.0
X133.205Y-126.24
X135.745Y-111.0
X135.745Y-126.24
X138.285Y-111.0
X138.285Y-126.24
X140.825Y-111.0
X140.825Y-126.24
X143.365Y-111.0
X143.365Y-126.24
X145.905Y-111.0
X145.905Y-126.24
X148.445Y-111.0
X148.445Y-126.24
X150.985Y-111.0
X150.985Y-126.24
X153.525Y-111.0
X153.525Y-126.24
X156.065Y-111.0
X156.065Y-126.24
X158.605Y-111.0
X158.605Y-126.24
X161.145Y-111.0
X161.145Y-126.24
X163.685Y-111.0
X163.685Y-126.24
X166.225Y-111.0
X166.225Y-126.24
X168.765Y-111.0
X168.765Y-126.24
T9
X65.525Y-71.522
X65.525Y-84.222
X81.755Y-71.522
X81.755Y-84.222
X89.789Y-71.522
X89.789Y-84.222
X106.019Y-71.522
X106.019Y-84.222
X113.919Y-71.522
X113.919Y-77.872
X113.919Y-84.222
X130.149Y-71.522
X130.149Y-77.872
X130.149Y-84.222
T10
X140.648Y-96.754
X153.788Y-96.754
T11
X66.5Y-94.5
X66.5Y-136.5
X138.963Y-66.02
X155.473Y-66.02
X170.475Y-94.5
X170.475Y-136.5
T3
X89.5Y-128.3G85X89.5Y-127.7
G05
X99.5Y-128.3G85X99.5Y-127.7
G05
T0
M30
